<svg width="61" height="34" viewBox="0 0 61 34" fill="none" xmlns="http://www.w3.org/2000/svg">
<path d="M15.8333 14H4.16666M4.16666 14L10 19.8333M4.16666 14L10 8.16667" stroke="#FCFCFC" stroke-width="1.66667" stroke-linecap="round" stroke-linejoin="round"/>
<path d="M29.1186 19V8.81818H32.8473C33.5698 8.81818 34.1681 8.9375 34.642 9.17614C35.116 9.41146 35.4706 9.7313 35.706 10.1357C35.9413 10.5367 36.0589 10.9891 36.0589 11.4929C36.0589 11.9171 35.9811 12.2751 35.8253 12.5668C35.6695 12.8551 35.4607 13.0871 35.1989 13.2628C34.9403 13.4351 34.6553 13.5611 34.3438 13.6406V13.7401C34.6818 13.7566 35.0116 13.866 35.3331 14.0682C35.6579 14.267 35.9264 14.5504 36.1385 14.9183C36.3506 15.2862 36.4567 15.7337 36.4567 16.2607C36.4567 16.781 36.334 17.2483 36.0888 17.6626C35.8468 18.0736 35.4723 18.4001 34.9652 18.642C34.4581 18.8807 33.8101 19 33.0213 19H29.1186ZM30.6548 17.6825H32.8722C33.608 17.6825 34.1349 17.54 34.4531 17.255C34.7713 16.9699 34.9304 16.6136 34.9304 16.1861C34.9304 15.8646 34.8492 15.5696 34.6868 15.3011C34.5244 15.0327 34.2924 14.8189 33.9908 14.6598C33.6925 14.5007 33.3378 14.4212 32.9268 14.4212H30.6548V17.6825ZM30.6548 13.223H32.7131C33.0578 13.223 33.3677 13.1567 33.6428 13.0241C33.9212 12.8916 34.1416 12.706 34.304 12.4673C34.4697 12.2254 34.5526 11.9403 34.5526 11.6122C34.5526 11.1913 34.4051 10.8383 34.1101 10.5533C33.8151 10.2682 33.3627 10.1257 32.7528 10.1257H30.6548V13.223ZM40.3817 19.169C39.8978 19.169 39.4603 19.0795 39.0692 18.9006C38.6781 18.7183 38.3683 18.4548 38.1396 18.1101C37.9142 17.7654 37.8015 17.3428 37.8015 16.8423C37.8015 16.4115 37.8844 16.0568 38.0501 15.7784C38.2158 15.5 38.4395 15.2796 38.7212 15.1172C39.003 14.9548 39.3178 14.8321 39.6658 14.7493C40.0138 14.6664 40.3685 14.6035 40.7298 14.5604C41.1871 14.5073 41.5584 14.4643 41.8434 14.4311C42.1284 14.3946 42.3356 14.3366 42.4648 14.2571C42.5941 14.1776 42.6587 14.0483 42.6587 13.8693V13.8345C42.6587 13.4003 42.5361 13.0639 42.2908 12.8253C42.0489 12.5866 41.6876 12.4673 41.207 12.4673C40.7066 12.4673 40.3121 12.5784 40.0238 12.8004C39.7388 13.0192 39.5415 13.2628 39.4322 13.5312L38.0352 13.2131C38.2009 12.7491 38.4428 12.3745 38.761 12.0895C39.0825 11.8011 39.4521 11.5923 39.8697 11.4631C40.2873 11.3305 40.7264 11.2642 41.1871 11.2642C41.4921 11.2642 41.8152 11.3007 42.1566 11.3736C42.5013 11.4432 42.8228 11.5724 43.1211 11.7614C43.4227 11.9503 43.6696 12.2204 43.8619 12.5717C44.0541 12.9197 44.1502 13.3722 44.1502 13.929V19H42.6985V17.956H42.6388C42.5427 18.1482 42.3986 18.3371 42.2063 18.5227C42.0141 18.7083 41.7672 18.8625 41.4656 18.9851C41.1639 19.1077 40.8027 19.169 40.3817 19.169ZM40.7049 17.9759C41.1159 17.9759 41.4672 17.8946 41.7589 17.7322C42.0539 17.5698 42.2776 17.3577 42.43 17.0959C42.5858 16.8307 42.6637 16.5473 42.6637 16.2457V15.2614C42.6107 15.3144 42.5079 15.3641 42.3555 15.4105C42.2063 15.4536 42.0356 15.4917 41.8434 15.5249C41.6512 15.5547 41.4639 15.5829 41.2816 15.6094C41.0993 15.6326 40.9469 15.6525 40.8242 15.669C40.5359 15.7055 40.2724 15.7668 40.0337 15.853C39.7984 15.9392 39.6095 16.0634 39.467 16.2259C39.3278 16.3849 39.2582 16.5971 39.2582 16.8622C39.2582 17.2301 39.3941 17.5085 39.6658 17.6974C39.9376 17.883 40.284 17.9759 40.7049 17.9759ZM49.3468 19.1541C48.6077 19.1541 47.9713 18.9867 47.4377 18.652C46.9074 18.3139 46.4997 17.8482 46.2147 17.255C45.9296 16.6617 45.7871 15.9822 45.7871 15.2166C45.7871 14.4411 45.9329 13.7566 46.2246 13.1634C46.5163 12.5668 46.9273 12.1011 47.4576 11.7663C47.9879 11.4316 48.6126 11.2642 49.3319 11.2642C49.9119 11.2642 50.4289 11.3719 50.883 11.5874C51.3371 11.7995 51.7033 12.0978 51.9817 12.4822C52.2634 12.8667 52.4308 13.3158 52.4838 13.8295H51.0371C50.9576 13.4716 50.7753 13.1634 50.4902 12.9048C50.2085 12.6463 49.8307 12.517 49.3567 12.517C48.9424 12.517 48.5795 12.6264 48.2679 12.8452C47.9597 13.0606 47.7194 13.3688 47.5471 13.7699C47.3747 14.1676 47.2885 14.6383 47.2885 15.1818C47.2885 15.7386 47.373 16.2192 47.5421 16.6236C47.7111 17.0279 47.9498 17.3411 48.258 17.5632C48.5695 17.7853 48.9358 17.8963 49.3567 17.8963C49.6384 17.8963 49.8936 17.8449 50.1223 17.7422C50.3543 17.6361 50.5482 17.4853 50.704 17.2898C50.8631 17.0942 50.9741 16.8589 51.0371 16.5838H52.4838C52.4308 17.0777 52.2701 17.5185 52.0016 17.9062C51.7331 18.294 51.3735 18.599 50.9228 18.821C50.4753 19.0431 49.95 19.1541 49.3468 19.1541ZM55.4407 16.4098L55.4308 14.5952H55.6893L58.7319 11.3636H60.5117L57.0415 15.0426H56.8079L55.4407 16.4098ZM54.0735 19V8.81818H55.56V19H54.0735ZM58.896 19L56.1616 15.3707L57.1857 14.3317L60.7205 19H58.896Z" fill="white"/>
</svg>
