<svg width="172" height="44" viewBox="0 0 172 44" fill="none" xmlns="http://www.w3.org/2000/svg">
<g filter="url(#filter0_d_1_8086)">
<rect x="2" y="1" width="168" height="40" rx="8" fill="#19FB9B" fill-opacity="0.15"/>
<circle cx="23" cy="21" r="4" fill="#19FB9B"/>
<path d="M45.5753 19.1293H44.0241C43.9645 18.7978 43.8535 18.5062 43.6911 18.2543C43.5286 18.0024 43.3298 17.7886 43.0945 17.6129C42.8591 17.4373 42.5956 17.3047 42.304 17.2152C42.0156 17.1257 41.709 17.081 41.3842 17.081C40.7976 17.081 40.2723 17.2285 39.8082 17.5234C39.3475 17.8184 38.983 18.2509 38.7145 18.821C38.4493 19.3911 38.3168 20.0871 38.3168 20.9091C38.3168 21.7377 38.4493 22.437 38.7145 23.0071C38.983 23.5772 39.3492 24.008 39.8132 24.2997C40.2772 24.5914 40.7992 24.7372 41.3793 24.7372C41.7008 24.7372 42.0057 24.6941 42.294 24.608C42.5857 24.5185 42.8492 24.3875 43.0845 24.2152C43.3198 24.0429 43.5187 23.8324 43.6811 23.5838C43.8468 23.3319 43.9612 23.0436 44.0241 22.7188L45.5753 22.7237C45.4924 23.2242 45.3317 23.6849 45.093 24.1058C44.8577 24.5234 44.5545 24.8847 44.1832 25.1896C43.8153 25.4912 43.3944 25.7249 42.9205 25.8906C42.4465 26.0563 41.9295 26.1392 41.3693 26.1392C40.4877 26.1392 39.7022 25.9304 39.0128 25.5128C38.3234 25.0919 37.7798 24.4903 37.3821 23.7081C36.9877 22.9259 36.7905 21.9929 36.7905 20.9091C36.7905 19.822 36.9893 18.889 37.3871 18.1101C37.7848 17.3279 38.3284 16.728 39.0178 16.3104C39.7071 15.8894 40.491 15.679 41.3693 15.679C41.9096 15.679 42.4134 15.7569 42.8807 15.9126C43.3513 16.0651 43.7739 16.2905 44.1484 16.5888C44.523 16.8838 44.8329 17.245 45.0781 17.6726C45.3234 18.0968 45.4891 18.5824 45.5753 19.1293ZM47.2942 26V18.3636H48.731V19.5767H48.8105C48.9498 19.1657 49.195 18.8426 49.5463 18.6072C49.901 18.3686 50.302 18.2493 50.7495 18.2493C50.8423 18.2493 50.9516 18.2526 51.0776 18.2592C51.2069 18.2659 51.3079 18.2741 51.3809 18.2841V19.706C51.3212 19.6894 51.2151 19.6712 51.0627 19.6513C50.9102 19.6281 50.7578 19.6165 50.6053 19.6165C50.254 19.6165 49.9408 19.6911 49.6657 19.8402C49.3939 19.986 49.1784 20.1899 49.0194 20.4517C48.8603 20.7102 48.7807 21.0052 48.7807 21.3366V26H47.2942ZM55.685 26.1541C54.9326 26.1541 54.2847 25.9934 53.7411 25.6719C53.2009 25.3471 52.7833 24.8913 52.4883 24.3047C52.1966 23.7147 52.0508 23.0237 52.0508 22.2315C52.0508 21.4493 52.1966 20.7599 52.4883 20.1634C52.7833 19.5668 53.1942 19.1011 53.7212 18.7663C54.2515 18.4316 54.8713 18.2642 55.5806 18.2642C56.0115 18.2642 56.4291 18.3355 56.8335 18.478C57.2378 18.6205 57.6007 18.8442 57.9222 19.1491C58.2437 19.4541 58.4973 19.8501 58.6829 20.3374C58.8685 20.8213 58.9613 21.4096 58.9613 22.1023V22.6293H52.891V21.5156H57.5046C57.5046 21.1245 57.4251 20.7782 57.266 20.4766C57.1069 20.1716 56.8832 19.9313 56.5948 19.7557C56.3098 19.58 55.975 19.4922 55.5906 19.4922C55.1729 19.4922 54.8084 19.5949 54.4968 19.8004C54.1886 20.0026 53.9499 20.2678 53.7809 20.5959C53.6152 20.9207 53.5323 21.2737 53.5323 21.6548V22.5249C53.5323 23.0353 53.6218 23.4695 53.8008 23.8274C53.9831 24.1854 54.2366 24.4588 54.5614 24.6477C54.8862 24.8333 55.2657 24.9261 55.6999 24.9261C55.9817 24.9261 56.2385 24.8864 56.4705 24.8068C56.7025 24.724 56.9031 24.6013 57.0721 24.4389C57.2411 24.2765 57.3704 24.076 57.4599 23.8374L58.8668 24.0909C58.7541 24.5052 58.552 24.8681 58.2603 25.1797C57.9719 25.4879 57.609 25.7282 57.1715 25.9006C56.7373 26.0696 56.2418 26.1541 55.685 26.1541ZM63.4693 26.1491C62.8528 26.1491 62.3026 25.9917 61.8187 25.6768C61.3381 25.3587 60.9603 24.9062 60.6852 24.3196C60.4134 23.7296 60.2775 23.022 60.2775 22.1967C60.2775 21.3714 60.4151 20.6655 60.6902 20.0788C60.9686 19.4922 61.3497 19.0431 61.8336 18.7315C62.3175 18.42 62.8661 18.2642 63.4792 18.2642C63.9532 18.2642 64.3343 18.3438 64.6227 18.5028C64.9144 18.6586 65.1397 18.8409 65.2988 19.0497C65.4612 19.2585 65.5872 19.4425 65.6767 19.6016H65.7662V15.8182H67.2527V26H65.801V24.8118H65.6767C65.5872 24.9742 65.4579 25.1598 65.2889 25.3686C65.1232 25.5774 64.8945 25.7597 64.6028 25.9155C64.3111 26.0713 63.9333 26.1491 63.4693 26.1491ZM63.7974 24.8814C64.225 24.8814 64.5862 24.7687 64.8812 24.5433C65.1795 24.3146 65.4049 23.9981 65.5574 23.5938C65.7131 23.1894 65.791 22.7187 65.791 22.1818C65.791 21.6515 65.7148 21.1875 65.5623 20.7898C65.4099 20.392 65.1861 20.0821 64.8912 19.8601C64.5962 19.638 64.2316 19.527 63.7974 19.527C63.35 19.527 62.9771 19.643 62.6788 19.875C62.3805 20.107 62.1551 20.4235 62.0027 20.8246C61.8535 21.2256 61.7789 21.678 61.7789 22.1818C61.7789 22.6922 61.8552 23.1513 62.0076 23.5589C62.1601 23.9666 62.3855 24.2898 62.6838 24.5284C62.9854 24.7637 63.3566 24.8814 63.7974 24.8814ZM69.3743 26V18.3636H70.8608V26H69.3743ZM70.125 17.1854C69.8665 17.1854 69.6444 17.0992 69.4588 16.9268C69.2765 16.7512 69.1854 16.5424 69.1854 16.3004C69.1854 16.0552 69.2765 15.8464 69.4588 15.674C69.6444 15.4983 69.8665 15.4105 70.125 15.4105C70.3835 15.4105 70.6039 15.4983 70.7862 15.674C70.9718 15.8464 71.0646 16.0552 71.0646 16.3004C71.0646 16.5424 70.9718 16.7512 70.7862 16.9268C70.6039 17.0992 70.3835 17.1854 70.125 17.1854ZM76.4252 18.3636V19.5568H72.2541V18.3636H76.4252ZM73.3727 16.5341H74.8592V23.7578C74.8592 24.0462 74.9023 24.2633 74.9885 24.4091C75.0746 24.5516 75.1857 24.6494 75.3216 24.7024C75.4608 24.7521 75.6116 24.777 75.774 24.777C75.8933 24.777 75.9977 24.7687 76.0872 24.7521C76.1767 24.7356 76.2463 24.7223 76.296 24.7124L76.5645 25.9403C76.4783 25.9735 76.3556 26.0066 76.1966 26.0398C76.0375 26.0762 75.8386 26.0961 75.6 26.0994C75.2089 26.1061 74.8443 26.0365 74.5062 25.8906C74.1681 25.7448 73.8947 25.5194 73.6859 25.2145C73.4771 24.9096 73.3727 24.5268 73.3727 24.0661V16.5341ZM83.6689 20.228L82.3216 20.4666C82.2652 20.2943 82.1757 20.1302 82.0531 19.9744C81.9338 19.8187 81.7714 19.6911 81.5659 19.5916C81.3604 19.4922 81.1035 19.4425 80.7953 19.4425C80.3743 19.4425 80.023 19.5369 79.7413 19.7259C79.4596 19.9115 79.3187 20.1518 79.3187 20.4467C79.3187 20.7019 79.4132 20.9074 79.6021 21.0632C79.791 21.219 80.0959 21.3466 80.5169 21.446L81.7299 21.7244C82.4326 21.8868 82.9563 22.1371 83.301 22.4751C83.6457 22.8132 83.818 23.2524 83.818 23.7926C83.818 24.25 83.6854 24.6577 83.4203 25.0156C83.1584 25.3703 82.7922 25.6487 82.3216 25.8509C81.8542 26.053 81.3123 26.1541 80.6958 26.1541C79.8407 26.1541 79.1431 25.9718 78.6028 25.6072C78.0626 25.2393 77.7311 24.7173 77.6085 24.0412L79.0453 23.8224C79.1348 24.197 79.3187 24.4804 79.5971 24.6726C79.8755 24.8615 80.2385 24.956 80.6859 24.956C81.1731 24.956 81.5626 24.8549 81.8542 24.6527C82.1459 24.4472 82.2917 24.197 82.2917 23.902C82.2917 23.6634 82.2022 23.4628 82.0233 23.3004C81.8476 23.138 81.5775 23.0154 81.2129 22.9325L79.9203 22.6491C79.2077 22.4867 78.6807 22.2282 78.3393 21.8736C78.0012 21.5189 77.8322 21.0698 77.8322 20.5263C77.8322 20.0755 77.9582 19.6811 78.21 19.343C78.4619 19.005 78.81 18.7415 79.2541 18.5526C79.6982 18.3603 80.207 18.2642 80.7804 18.2642C81.6056 18.2642 82.2553 18.4432 82.7292 18.8011C83.2032 19.1558 83.5164 19.6314 83.6689 20.228ZM86.4318 26.0945C86.16 26.0945 85.9264 25.9983 85.7308 25.8061C85.5353 25.6106 85.4375 25.3752 85.4375 25.1001C85.4375 24.8284 85.5353 24.5964 85.7308 24.4041C85.9264 24.2086 86.16 24.1108 86.4318 24.1108C86.7036 24.1108 86.9373 24.2086 87.1328 24.4041C87.3284 24.5964 87.4261 24.8284 87.4261 25.1001C87.4261 25.2824 87.3797 25.4498 87.2869 25.6023C87.1974 25.7514 87.0781 25.8707 86.929 25.9602C86.7798 26.0497 86.6141 26.0945 86.4318 26.0945ZM86.4318 20.5362C86.16 20.5362 85.9264 20.4384 85.7308 20.2429C85.5353 20.0473 85.4375 19.8137 85.4375 19.5419C85.4375 19.2701 85.5353 19.0381 85.7308 18.8459C85.9264 18.6503 86.16 18.5526 86.4318 18.5526C86.7036 18.5526 86.9373 18.6503 87.1328 18.8459C87.3284 19.0381 87.4261 19.2701 87.4261 19.5419C87.4261 19.7242 87.3797 19.8916 87.2869 20.044C87.1974 20.1932 87.0781 20.3125 86.929 20.402C86.7798 20.4915 86.6141 20.5362 86.4318 20.5362Z" fill="white"/>
<path d="M96.3352 26.1392C95.6723 26.1392 95.0791 26.0149 94.5554 25.7663C94.0317 25.5144 93.6158 25.1697 93.3075 24.7322C93.0026 24.2947 92.8402 23.7943 92.8203 23.2308H94.6101C94.6432 23.6484 94.8239 23.9898 95.152 24.255C95.4801 24.5168 95.8745 24.6477 96.3352 24.6477C96.6965 24.6477 97.018 24.5649 97.2997 24.3991C97.5814 24.2334 97.8035 24.0031 97.9659 23.7081C98.1283 23.4131 98.2079 23.0767 98.2045 22.6989C98.2079 22.3144 98.1267 21.973 97.9609 21.6747C97.7952 21.3764 97.5682 21.1428 97.2798 20.9737C96.9915 20.8014 96.66 20.7152 96.2855 20.7152C95.9806 20.7119 95.6806 20.7682 95.3857 20.8842C95.0907 21.0002 94.857 21.1527 94.6847 21.3416L93.0192 21.0682L93.5511 15.8182H99.4574V17.3594H95.0774L94.7841 20.0589H94.8438C95.0327 19.8369 95.2995 19.6529 95.6442 19.5071C95.9889 19.358 96.3667 19.2834 96.7777 19.2834C97.3942 19.2834 97.9444 19.4292 98.4283 19.7209C98.9122 20.0092 99.2933 20.407 99.5717 20.9141C99.8501 21.4212 99.9893 22.0012 99.9893 22.6541C99.9893 23.3269 99.8336 23.9268 99.522 24.4538C99.2138 24.9775 98.7846 25.3902 98.2344 25.6918C97.6875 25.9901 97.0545 26.1392 96.3352 26.1392ZM111.645 15.8182H113.49V22.4702C113.49 23.1993 113.317 23.8407 112.973 24.3942C112.631 24.9477 112.151 25.3802 111.531 25.6918C110.911 26 110.187 26.1541 109.358 26.1541C108.526 26.1541 107.801 26 107.181 25.6918C106.561 25.3802 106.08 24.9477 105.739 24.3942C105.398 23.8407 105.227 23.1993 105.227 22.4702V15.8182H107.071V22.3161C107.071 22.7403 107.164 23.1181 107.35 23.4496C107.539 23.781 107.804 24.0412 108.145 24.2301C108.487 24.4157 108.891 24.5085 109.358 24.5085C109.826 24.5085 110.23 24.4157 110.571 24.2301C110.916 24.0412 111.181 23.781 111.367 23.4496C111.552 23.1181 111.645 22.7403 111.645 22.3161V15.8182ZM121.028 18.6172C120.981 18.183 120.786 17.8449 120.441 17.603C120.1 17.361 119.656 17.2401 119.109 17.2401C118.724 17.2401 118.395 17.2981 118.119 17.4141C117.844 17.5301 117.634 17.6875 117.488 17.8864C117.342 18.0852 117.268 18.3123 117.264 18.5675C117.264 18.7796 117.312 18.9635 117.409 19.1193C117.508 19.2751 117.642 19.4077 117.811 19.517C117.98 19.6231 118.168 19.7126 118.373 19.7855C118.579 19.8584 118.786 19.9197 118.994 19.9695L119.949 20.2081C120.334 20.2976 120.703 20.4186 121.058 20.571C121.416 20.7235 121.735 20.9157 122.017 21.1477C122.302 21.3797 122.528 21.6598 122.693 21.9879C122.859 22.3161 122.942 22.7005 122.942 23.1413C122.942 23.7379 122.789 24.2633 122.485 24.7173C122.18 25.1681 121.739 25.5211 121.162 25.7763C120.589 26.0282 119.894 26.1541 119.079 26.1541C118.287 26.1541 117.599 26.0315 117.016 25.7862C116.436 25.541 115.982 25.183 115.654 24.7124C115.329 24.2417 115.153 23.6683 115.127 22.9922H116.941C116.968 23.3468 117.077 23.6418 117.269 23.8771C117.462 24.1125 117.712 24.2881 118.02 24.4041C118.332 24.5201 118.68 24.5781 119.064 24.5781C119.465 24.5781 119.816 24.5185 120.118 24.3991C120.423 24.2765 120.662 24.1075 120.834 23.892C121.006 23.6733 121.094 23.4181 121.097 23.1264C121.094 22.8613 121.016 22.6425 120.864 22.4702C120.711 22.2945 120.498 22.1487 120.222 22.0327C119.951 21.9134 119.633 21.8073 119.268 21.7145L118.11 21.4162C117.271 21.2008 116.608 20.8743 116.121 20.4368C115.637 19.996 115.395 19.411 115.395 18.6818C115.395 18.0819 115.557 17.5566 115.882 17.1058C116.21 16.6551 116.656 16.3054 117.22 16.0568C117.783 15.8049 118.421 15.679 119.134 15.679C119.856 15.679 120.489 15.8049 121.033 16.0568C121.58 16.3054 122.009 16.6518 122.32 17.0959C122.632 17.5367 122.793 18.0438 122.803 18.6172H121.028ZM128.037 26H124.586V15.8182H128.106C129.117 15.8182 129.985 16.022 130.711 16.4297C131.44 16.834 132.001 17.4157 132.392 18.1747C132.783 18.9337 132.978 19.8419 132.978 20.8991C132.978 21.9598 132.781 22.8712 132.387 23.6335C131.996 24.3958 131.431 24.9808 130.691 25.3885C129.956 25.7962 129.071 26 128.037 26ZM126.431 24.4041H127.947C128.656 24.4041 129.248 24.2749 129.722 24.0163C130.196 23.7545 130.552 23.3651 130.791 22.848C131.029 22.3277 131.149 21.678 131.149 20.8991C131.149 20.1203 131.029 19.474 130.791 18.9602C130.552 18.4432 130.199 18.0571 129.732 17.8018C129.268 17.5433 128.691 17.4141 128.002 17.4141H126.431V24.4041Z" fill="#19FB9B"/>
<path d="M147.5 20.49C147.5 20.3574 147.553 20.2302 147.646 20.1364C147.74 20.0427 147.867 19.99 148 19.99C148.133 19.99 148.26 20.0427 148.354 20.1364C148.447 20.2302 148.5 20.3574 148.5 20.49V23.49C148.5 23.6226 148.447 23.7498 148.354 23.8436C148.26 23.9373 148.133 23.99 148 23.99C147.867 23.99 147.74 23.9373 147.646 23.8436C147.553 23.7498 147.5 23.6226 147.5 23.49V20.49ZM148 18.0255C147.867 18.0255 147.74 18.0782 147.646 18.1719C147.553 18.2657 147.5 18.3929 147.5 18.5255C147.5 18.6581 147.553 18.7853 147.646 18.8791C147.74 18.9728 147.867 19.0255 148 19.0255C148.133 19.0255 148.26 18.9728 148.354 18.8791C148.447 18.7853 148.5 18.6581 148.5 18.5255C148.5 18.3929 148.447 18.2657 148.354 18.1719C148.26 18.0782 148.133 18.0255 148 18.0255Z" fill="#F8F8F8"/>
<path fill-rule="evenodd" clip-rule="evenodd" d="M148 16C145.239 16 143 18.2385 143 21C143 23.7615 145.239 26 148 26C150.761 26 153 23.7615 153 21C153 18.2385 150.761 16 148 16ZM144 21C144 22.0609 144.421 23.0783 145.172 23.8284C145.922 24.5786 146.939 25 148 25C149.061 25 150.078 24.5786 150.828 23.8284C151.579 23.0783 152 22.0609 152 21C152 19.9391 151.579 18.9217 150.828 18.1716C150.078 17.4214 149.061 17 148 17C146.939 17 145.922 17.4214 145.172 18.1716C144.421 18.9217 144 19.9391 144 21Z" fill="#F8F8F8"/>
</g>
<defs>
<filter id="filter0_d_1_8086" x="0" y="0" width="172" height="44" filterUnits="userSpaceOnUse" color-interpolation-filters="sRGB">
<feFlood flood-opacity="0" result="BackgroundImageFix"/>
<feColorMatrix in="SourceAlpha" type="matrix" values="0 0 0 0 0 0 0 0 0 0 0 0 0 0 0 0 0 0 127 0" result="hardAlpha"/>
<feOffset dy="1"/>
<feGaussianBlur stdDeviation="1"/>
<feColorMatrix type="matrix" values="0 0 0 0 0.0627451 0 0 0 0 0.0941176 0 0 0 0 0.156863 0 0 0 0.05 0"/>
<feBlend mode="normal" in2="BackgroundImageFix" result="effect1_dropShadow_1_8086"/>
<feBlend mode="normal" in="SourceGraphic" in2="effect1_dropShadow_1_8086" result="shape"/>
</filter>
</defs>
</svg>
