<svg width="275" height="231" viewBox="0 0 275 231" fill="none" xmlns="http://www.w3.org/2000/svg">
<rect x="0.5" y="0.5" width="47" height="47" rx="23.5" stroke="#63C174"/>
<rect x="4" y="4" width="40" height="40" rx="20" fill="url(#paint0_linear_1_8139)"/>
<path d="M17.75 24.8665L20.3399 28.4138C21.1517 29.5256 22.8179 29.504 23.6006 28.3715L30.25 18.75" stroke="#63C174" stroke-width="1.5" stroke-linecap="round" stroke-linejoin="round"/>
<path d="M72.3111 22.1662H70.3168C70.2401 21.7401 70.0973 21.3651 69.8885 21.0412C69.6797 20.7173 69.424 20.4425 69.1214 20.2166C68.8189 19.9908 68.4801 19.8203 68.1051 19.7053C67.7344 19.5902 67.3402 19.5327 66.9226 19.5327C66.1683 19.5327 65.4929 19.7223 64.8963 20.1016C64.304 20.4808 63.8352 21.0369 63.4901 21.7699C63.1491 22.5028 62.9787 23.3977 62.9787 24.4545C62.9787 25.5199 63.1491 26.419 63.4901 27.152C63.8352 27.8849 64.3061 28.4389 64.9027 28.8139C65.4993 29.1889 66.1705 29.3764 66.9162 29.3764C67.3295 29.3764 67.7216 29.321 68.0923 29.2102C68.4673 29.0952 68.8061 28.9268 69.1087 28.7053C69.4112 28.4837 69.6669 28.2131 69.8757 27.8935C70.0888 27.5696 70.2358 27.1989 70.3168 26.7812L72.3111 26.7876C72.2045 27.4311 71.9979 28.0234 71.6911 28.5646C71.3885 29.1016 70.9986 29.5661 70.5213 29.9581C70.0483 30.3459 69.5071 30.6463 68.8977 30.8594C68.2884 31.0724 67.6236 31.179 66.9034 31.179C65.7699 31.179 64.7599 30.9105 63.8736 30.3736C62.9872 29.8324 62.2884 29.0589 61.777 28.0533C61.2699 27.0476 61.0163 25.848 61.0163 24.4545C61.0163 23.0568 61.272 21.8572 61.7834 20.8558C62.2947 19.8501 62.9936 19.0788 63.88 18.5419C64.7663 18.0007 65.7741 17.7301 66.9034 17.7301C67.598 17.7301 68.2457 17.8303 68.8466 18.0305C69.4517 18.2266 69.995 18.5163 70.4766 18.8999C70.9581 19.2791 71.3565 19.7436 71.6719 20.2933C71.9872 20.8388 72.2003 21.4631 72.3111 22.1662ZM78.1568 31.1982C77.2363 31.1982 76.4331 30.9872 75.747 30.5653C75.0609 30.1435 74.5282 29.5533 74.149 28.7947C73.7697 28.0362 73.5801 27.1499 73.5801 26.1357C73.5801 25.1172 73.7697 24.2266 74.149 23.4638C74.5282 22.701 75.0609 22.1087 75.747 21.6868C76.4331 21.2649 77.2363 21.054 78.1568 21.054C79.0772 21.054 79.8805 21.2649 80.5666 21.6868C81.2527 22.1087 81.7853 22.701 82.1646 23.4638C82.5439 24.2266 82.7335 25.1172 82.7335 26.1357C82.7335 27.1499 82.5439 28.0362 82.1646 28.7947C81.7853 29.5533 81.2527 30.1435 80.5666 30.5653C79.8805 30.9872 79.0772 31.1982 78.1568 31.1982ZM78.1632 29.5938C78.7598 29.5938 79.2541 29.4361 79.6461 29.1207C80.0382 28.8054 80.3279 28.3857 80.5154 27.8615C80.7072 27.3374 80.8031 26.7599 80.8031 26.1293C80.8031 25.5028 80.7072 24.9276 80.5154 24.4034C80.3279 23.875 80.0382 23.451 79.6461 23.1314C79.2541 22.8118 78.7598 22.652 78.1632 22.652C77.5623 22.652 77.0637 22.8118 76.6674 23.1314C76.2754 23.451 75.9835 23.875 75.7917 24.4034C75.6042 24.9276 75.5105 25.5028 75.5105 26.1293C75.5105 26.7599 75.6042 27.3374 75.7917 27.8615C75.9835 28.3857 76.2754 28.8054 76.6674 29.1207C77.0637 29.4361 77.5623 29.5938 78.1632 29.5938ZM86.2781 25.1705V31H84.3668V21.1818H86.2013V22.7798H86.3228C86.5487 22.2599 86.9023 21.8423 87.3839 21.527C87.8697 21.2116 88.4812 21.054 89.2184 21.054C89.8874 21.054 90.4734 21.1946 90.9762 21.4759C91.479 21.7528 91.869 22.1662 92.146 22.7159C92.4229 23.2656 92.5614 23.9453 92.5614 24.755V31H90.6502V24.9851C90.6502 24.2734 90.4648 23.7173 90.0941 23.3168C89.7234 22.9119 89.2141 22.7095 88.5664 22.7095C88.1232 22.7095 87.729 22.8054 87.3839 22.9972C87.043 23.1889 86.7724 23.4702 86.5721 23.8409C86.3761 24.2074 86.2781 24.6506 86.2781 25.1705ZM99.2972 21.1818V22.7159H93.7489V21.1818H99.2972ZM95.2702 31V20.044C95.2702 19.4304 95.4045 18.9212 95.6729 18.5163C95.9414 18.1072 96.2972 17.8026 96.7404 17.6023C97.1836 17.3977 97.6651 17.2955 98.185 17.2955C98.5685 17.2955 98.8967 17.3274 99.1694 17.3913C99.4421 17.451 99.6445 17.5064 99.7766 17.5575L99.3292 19.1044C99.2397 19.0788 99.1246 19.049 98.984 19.0149C98.8434 18.9766 98.6729 18.9574 98.4727 18.9574C98.0082 18.9574 97.6758 19.0724 97.4755 19.3026C97.2795 19.5327 97.1815 19.8651 97.1815 20.2997V31H95.2702ZM100.769 31V21.1818H102.68V31H100.769ZM101.734 19.6669C101.402 19.6669 101.116 19.5561 100.878 19.3345C100.643 19.1087 100.526 18.8402 100.526 18.5291C100.526 18.2138 100.643 17.9453 100.878 17.7237C101.116 17.4979 101.402 17.3849 101.734 17.3849C102.067 17.3849 102.35 17.4979 102.585 17.7237C102.823 17.9453 102.942 18.2138 102.942 18.5291C102.942 18.8402 102.823 19.1087 102.585 19.3345C102.35 19.5561 102.067 19.6669 101.734 19.6669ZM108.868 34.8864C108.088 34.8864 107.417 34.7841 106.855 34.5795C106.296 34.375 105.84 34.1044 105.487 33.7678C105.133 33.4311 104.869 33.0625 104.694 32.6619L106.337 31.9844C106.452 32.1719 106.605 32.37 106.797 32.5788C106.993 32.7919 107.257 32.973 107.59 33.1222C107.926 33.2713 108.359 33.3459 108.887 33.3459C109.612 33.3459 110.21 33.169 110.683 32.8153C111.156 32.4659 111.393 31.9077 111.393 31.1406V29.2102H111.271C111.156 29.419 110.99 29.6513 110.773 29.907C110.56 30.1626 110.266 30.3842 109.891 30.5717C109.516 30.7592 109.028 30.853 108.427 30.853C107.651 30.853 106.953 30.6719 106.33 30.3097C105.713 29.9432 105.222 29.4041 104.86 28.6925C104.502 27.9766 104.323 27.0966 104.323 26.0526C104.323 25.0085 104.5 24.1136 104.854 23.3679C105.212 22.6222 105.702 22.0511 106.324 21.6548C106.946 21.2543 107.651 21.054 108.44 21.054C109.049 21.054 109.541 21.1562 109.916 21.3608C110.291 21.5611 110.583 21.7955 110.792 22.0639C111.005 22.3324 111.169 22.5689 111.284 22.7734H111.425V21.1818H113.298V31.2173C113.298 32.0611 113.102 32.7536 112.71 33.2947C112.318 33.8359 111.787 34.2365 111.118 34.4964C110.453 34.7564 109.703 34.8864 108.868 34.8864ZM108.849 29.2678C109.399 29.2678 109.863 29.1399 110.242 28.8842C110.626 28.6243 110.916 28.2536 111.112 27.772C111.312 27.2862 111.412 26.7045 111.412 26.027C111.412 25.3665 111.314 24.7848 111.118 24.282C110.922 23.7791 110.634 23.3871 110.255 23.1058C109.876 22.8203 109.407 22.6776 108.849 22.6776C108.274 22.6776 107.794 22.8267 107.411 23.125C107.027 23.419 106.737 23.8196 106.541 24.3267C106.35 24.8338 106.254 25.4006 106.254 26.027C106.254 26.6705 106.352 27.2351 106.548 27.7209C106.744 28.2067 107.034 28.5859 107.417 28.8587C107.805 29.1314 108.282 29.2678 108.849 29.2678ZM121.58 26.9283V21.1818H123.498V31H121.619V29.2997H121.517C121.291 29.8239 120.928 30.2607 120.43 30.6101C119.936 30.9553 119.32 31.1278 118.583 31.1278C117.952 31.1278 117.394 30.9893 116.908 30.7124C116.426 30.4311 116.047 30.0156 115.77 29.4659C115.497 28.9162 115.361 28.2365 115.361 27.4268V21.1818H117.272V27.1967C117.272 27.8658 117.458 28.3984 117.828 28.7947C118.199 29.1911 118.681 29.3892 119.273 29.3892C119.631 29.3892 119.987 29.2997 120.34 29.1207C120.698 28.9418 120.994 28.6712 121.229 28.3089C121.468 27.9467 121.585 27.4865 121.58 26.9283ZM125.566 31V21.1818H127.413V22.7415H127.516C127.695 22.2131 128.01 21.7976 128.462 21.495C128.918 21.1882 129.433 21.0348 130.009 21.0348C130.128 21.0348 130.268 21.0391 130.43 21.0476C130.597 21.0561 130.727 21.0668 130.82 21.0795V22.9077C130.744 22.8864 130.607 22.8629 130.411 22.8374C130.215 22.8075 130.019 22.7926 129.823 22.7926C129.371 22.7926 128.969 22.8885 128.615 23.0803C128.266 23.2678 127.989 23.5298 127.784 23.8665C127.58 24.1989 127.477 24.5781 127.477 25.0043V31H125.566ZM135.854 31.1982C134.887 31.1982 134.054 30.9915 133.355 30.5781C132.66 30.1605 132.123 29.5746 131.744 28.8203C131.369 28.0618 131.182 27.1733 131.182 26.1548C131.182 25.1491 131.369 24.2628 131.744 23.4957C132.123 22.7287 132.652 22.13 133.329 21.6996C134.011 21.2692 134.808 21.054 135.72 21.054C136.274 21.054 136.811 21.1456 137.331 21.3288C137.851 21.5121 138.317 21.7997 138.731 22.1918C139.144 22.5838 139.47 23.093 139.709 23.7195C139.947 24.3416 140.067 25.098 140.067 25.9886V26.6662H132.262V25.2344H138.194C138.194 24.7315 138.091 24.2862 137.887 23.8984C137.682 23.5064 137.395 23.1974 137.024 22.9716C136.657 22.7457 136.227 22.6328 135.733 22.6328C135.196 22.6328 134.727 22.7649 134.327 23.0291C133.93 23.2891 133.623 23.63 133.406 24.0518C133.193 24.4695 133.086 24.9233 133.086 25.4134V26.532C133.086 27.1882 133.202 27.7464 133.432 28.2067C133.666 28.6669 133.992 29.0185 134.41 29.2614C134.827 29.5 135.315 29.6193 135.873 29.6193C136.236 29.6193 136.566 29.5682 136.864 29.4659C137.162 29.3594 137.42 29.2017 137.638 28.9929C137.855 28.7841 138.021 28.5263 138.136 28.2195L139.945 28.5455C139.8 29.0781 139.54 29.5447 139.165 29.9453C138.795 30.3416 138.328 30.6506 137.765 30.8722C137.207 31.0895 136.57 31.1982 135.854 31.1982ZM154.964 22.0447C154.84 21.657 154.674 21.3097 154.465 21.0028C154.26 20.6918 154.015 20.4276 153.73 20.2102C153.444 19.9886 153.118 19.8203 152.752 19.7053C152.39 19.5902 151.991 19.5327 151.557 19.5327C150.819 19.5327 150.155 19.7223 149.562 20.1016C148.97 20.4808 148.501 21.0369 148.156 21.7699C147.815 22.4986 147.645 23.3913 147.645 24.4482C147.645 25.5092 147.817 26.4062 148.162 27.1392C148.508 27.8722 148.981 28.4283 149.581 28.8075C150.182 29.1868 150.866 29.3764 151.633 29.3764C152.345 29.3764 152.965 29.2315 153.493 28.9418C154.026 28.652 154.437 28.2429 154.727 27.7145C155.021 27.1818 155.168 26.5554 155.168 25.8352L155.68 25.9311H151.934V24.3011H157.079V25.7905C157.079 26.8899 156.845 27.8445 156.376 28.6541C155.912 29.4595 155.268 30.0817 154.446 30.5206C153.628 30.9595 152.69 31.179 151.633 31.179C150.449 31.179 149.409 30.9062 148.514 30.3608C147.623 29.8153 146.929 29.0419 146.43 28.0405C145.932 27.0348 145.682 25.8416 145.682 24.4609C145.682 23.4169 145.827 22.4794 146.117 21.6484C146.407 20.8175 146.814 20.1122 147.338 19.5327C147.866 18.9489 148.486 18.5036 149.198 18.1967C149.914 17.8857 150.696 17.7301 151.544 17.7301C152.251 17.7301 152.91 17.8345 153.519 18.0433C154.133 18.2521 154.678 18.5483 155.155 18.9318C155.637 19.3153 156.035 19.7713 156.351 20.2997C156.666 20.8239 156.879 21.4055 156.99 22.0447H154.964ZM159.548 31V21.1818H161.46V31H159.548ZM160.514 19.6669C160.181 19.6669 159.896 19.5561 159.657 19.3345C159.423 19.1087 159.306 18.8402 159.306 18.5291C159.306 18.2138 159.423 17.9453 159.657 17.7237C159.896 17.4979 160.181 17.3849 160.514 17.3849C160.846 17.3849 161.129 17.4979 161.364 17.7237C161.602 17.9453 161.722 18.2138 161.722 18.5291C161.722 18.8402 161.602 19.1087 161.364 19.3345C161.129 19.5561 160.846 19.6669 160.514 19.6669ZM168.114 21.1818V22.7159H162.751V21.1818H168.114ZM164.189 18.8295H166.1V28.1172C166.1 28.4879 166.156 28.767 166.267 28.9545C166.377 29.1378 166.52 29.2635 166.695 29.3317C166.874 29.3956 167.068 29.4276 167.277 29.4276C167.43 29.4276 167.564 29.4169 167.679 29.3956C167.794 29.3743 167.884 29.3572 167.948 29.3445L168.293 30.9233C168.182 30.9659 168.025 31.0085 167.82 31.0511C167.615 31.098 167.36 31.1236 167.053 31.1278C166.55 31.1364 166.081 31.0469 165.647 30.8594C165.212 30.6719 164.86 30.3821 164.592 29.9901C164.324 29.598 164.189 29.1058 164.189 28.5135V18.8295ZM170.093 31V17.9091H172.068V23.598H178.594V17.9091H180.575V31H178.594V25.2919H172.068V31H170.093ZM189.018 26.9283V21.1818H190.936V31H189.056V29.2997H188.954C188.728 29.8239 188.366 30.2607 187.867 30.6101C187.373 30.9553 186.757 31.1278 186.02 31.1278C185.389 31.1278 184.831 30.9893 184.345 30.7124C183.864 30.4311 183.485 30.0156 183.208 29.4659C182.935 28.9162 182.798 28.2365 182.798 27.4268V21.1818H184.71V27.1967C184.71 27.8658 184.895 28.3984 185.266 28.7947C185.637 29.1911 186.118 29.3892 186.71 29.3892C187.068 29.3892 187.424 29.2997 187.778 29.1207C188.136 28.9418 188.432 28.6712 188.666 28.3089C188.905 27.9467 189.022 27.4865 189.018 26.9283ZM193.157 31V17.9091H195.068V22.7734H195.183C195.294 22.5689 195.454 22.3324 195.663 22.0639C195.871 21.7955 196.161 21.5611 196.532 21.3608C196.903 21.1562 197.393 21.054 198.002 21.054C198.795 21.054 199.502 21.2543 200.124 21.6548C200.746 22.0554 201.234 22.6328 201.588 23.3871C201.946 24.1413 202.125 25.049 202.125 26.1101C202.125 27.1712 201.948 28.081 201.594 28.8395C201.241 29.5937 200.755 30.1754 200.137 30.5845C199.519 30.9893 198.814 31.1918 198.021 31.1918C197.425 31.1918 196.937 31.0916 196.558 30.8913C196.183 30.6911 195.888 30.4567 195.675 30.1882C195.462 29.9197 195.298 29.6811 195.183 29.4723H195.023V31H193.157ZM195.03 26.0909C195.03 26.7812 195.13 27.3864 195.33 27.9062C195.531 28.4261 195.82 28.8331 196.2 29.1271C196.579 29.4169 197.043 29.5618 197.593 29.5618C198.164 29.5618 198.641 29.4105 199.025 29.108C199.408 28.8011 199.698 28.3857 199.894 27.8615C200.094 27.3374 200.195 26.7472 200.195 26.0909C200.195 25.4432 200.097 24.8615 199.901 24.3459C199.709 23.8303 199.419 23.4233 199.031 23.125C198.648 22.8267 198.168 22.6776 197.593 22.6776C197.039 22.6776 196.57 22.8203 196.187 23.1058C195.808 23.3913 195.52 23.7898 195.324 24.3011C195.128 24.8125 195.03 25.4091 195.03 26.0909Z" fill="white" fill-opacity="0.4"/>
<circle cx="24" cy="57.5" r="1.5" fill="#1A73E8"/>
<circle cx="24" cy="62.5" r="1.5" fill="#1A73E8" fill-opacity="0.89"/>
<circle cx="24" cy="67.5" r="1.5" fill="#1A73E8" fill-opacity="0.6"/>
<circle cx="24" cy="72.5" r="1.5" fill="#1A73E8" fill-opacity="0.4"/>
<circle cx="24" cy="77.5" r="1.5" fill="#1A73E8" fill-opacity="0.2"/>
<circle cx="24" cy="82.5" r="1.5" fill="#1A73E8" fill-opacity="0.1"/>
<rect x="0.5" y="92.5" width="47" height="47" rx="23.5" stroke="url(#paint1_linear_1_8139)"/>
<rect x="4" y="96" width="40" height="40" rx="20" fill="url(#paint2_linear_1_8139)"/>
<path d="M18.5391 124V122.25L23.9531 116.641C24.5313 116.031 25.0078 115.497 25.3828 115.039C25.763 114.576 26.0469 114.135 26.2344 113.719C26.4219 113.302 26.5156 112.859 26.5156 112.391C26.5156 111.859 26.3906 111.401 26.1406 111.016C25.8906 110.625 25.5495 110.326 25.1172 110.117C24.6849 109.904 24.1979 109.797 23.6562 109.797C23.0833 109.797 22.5833 109.914 22.1562 110.148C21.7292 110.383 21.401 110.714 21.1719 111.141C20.9427 111.568 20.8281 112.068 20.8281 112.641H18.5234C18.5234 111.667 18.7474 110.815 19.1953 110.086C19.6432 109.357 20.2578 108.792 21.0391 108.391C21.8203 107.984 22.7083 107.781 23.7031 107.781C24.7083 107.781 25.5938 107.982 26.3594 108.383C27.1302 108.779 27.7318 109.32 28.1641 110.008C28.5964 110.69 28.8125 111.461 28.8125 112.32C28.8125 112.914 28.7005 113.495 28.4766 114.062C28.2578 114.63 27.875 115.263 27.3281 115.961C26.7813 116.654 26.0208 117.495 25.0469 118.484L21.8672 121.812V121.93H29.0703V124H18.5391Z" fill="white"/>
<path d="M72.3111 105.166H70.3168C70.2401 104.74 70.0973 104.365 69.8885 104.041C69.6797 103.717 69.424 103.442 69.1214 103.217C68.8189 102.991 68.4801 102.82 68.1051 102.705C67.7344 102.59 67.3402 102.533 66.9226 102.533C66.1683 102.533 65.4929 102.722 64.8963 103.102C64.304 103.481 63.8352 104.037 63.4901 104.77C63.1491 105.503 62.9787 106.398 62.9787 107.455C62.9787 108.52 63.1491 109.419 63.4901 110.152C63.8352 110.885 64.3061 111.439 64.9027 111.814C65.4993 112.189 66.1705 112.376 66.9162 112.376C67.3295 112.376 67.7216 112.321 68.0923 112.21C68.4673 112.095 68.8061 111.927 69.1087 111.705C69.4112 111.484 69.6669 111.213 69.8757 110.893C70.0888 110.57 70.2358 110.199 70.3168 109.781L72.3111 109.788C72.2045 110.431 71.9979 111.023 71.6911 111.565C71.3885 112.102 70.9986 112.566 70.5213 112.958C70.0483 113.346 69.5071 113.646 68.8977 113.859C68.2884 114.072 67.6236 114.179 66.9034 114.179C65.7699 114.179 64.7599 113.911 63.8736 113.374C62.9872 112.832 62.2884 112.059 61.777 111.053C61.2699 110.048 61.0163 108.848 61.0163 107.455C61.0163 106.057 61.272 104.857 61.7834 103.856C62.2947 102.85 62.9936 102.079 63.88 101.542C64.7663 101.001 65.7741 100.73 66.9034 100.73C67.598 100.73 68.2457 100.83 68.8466 101.031C69.4517 101.227 69.995 101.516 70.4766 101.9C70.9581 102.279 71.3565 102.744 71.6719 103.293C71.9872 103.839 72.2003 104.463 72.3111 105.166ZM78.1568 114.198C77.2363 114.198 76.4331 113.987 75.747 113.565C75.0609 113.143 74.5282 112.553 74.149 111.795C73.7697 111.036 73.5801 110.15 73.5801 109.136C73.5801 108.117 73.7697 107.227 74.149 106.464C74.5282 105.701 75.0609 105.109 75.747 104.687C76.4331 104.265 77.2363 104.054 78.1568 104.054C79.0772 104.054 79.8805 104.265 80.5666 104.687C81.2527 105.109 81.7853 105.701 82.1646 106.464C82.5439 107.227 82.7335 108.117 82.7335 109.136C82.7335 110.15 82.5439 111.036 82.1646 111.795C81.7853 112.553 81.2527 113.143 80.5666 113.565C79.8805 113.987 79.0772 114.198 78.1568 114.198ZM78.1632 112.594C78.7598 112.594 79.2541 112.436 79.6461 112.121C80.0382 111.805 80.3279 111.386 80.5154 110.862C80.7072 110.337 80.8031 109.76 80.8031 109.129C80.8031 108.503 80.7072 107.928 80.5154 107.403C80.3279 106.875 80.0382 106.451 79.6461 106.131C79.2541 105.812 78.7598 105.652 78.1632 105.652C77.5623 105.652 77.0637 105.812 76.6674 106.131C76.2754 106.451 75.9835 106.875 75.7917 107.403C75.6042 107.928 75.5105 108.503 75.5105 109.129C75.5105 109.76 75.6042 110.337 75.7917 110.862C75.9835 111.386 76.2754 111.805 76.6674 112.121C77.0637 112.436 77.5623 112.594 78.1632 112.594ZM86.2781 108.17V114H84.3668V104.182H86.2013V105.78H86.3228C86.5487 105.26 86.9023 104.842 87.3839 104.527C87.8697 104.212 88.4812 104.054 89.2184 104.054C89.8874 104.054 90.4734 104.195 90.9762 104.476C91.479 104.753 91.869 105.166 92.146 105.716C92.4229 106.266 92.5614 106.945 92.5614 107.755V114H90.6502V107.985C90.6502 107.273 90.4648 106.717 90.0941 106.317C89.7234 105.912 89.2141 105.71 88.5664 105.71C88.1232 105.71 87.729 105.805 87.3839 105.997C87.043 106.189 86.7724 106.47 86.5721 106.841C86.3761 107.207 86.2781 107.651 86.2781 108.17ZM99.2972 104.182V105.716H93.7489V104.182H99.2972ZM95.2702 114V103.044C95.2702 102.43 95.4045 101.921 95.6729 101.516C95.9414 101.107 96.2972 100.803 96.7404 100.602C97.1836 100.398 97.6651 100.295 98.185 100.295C98.5685 100.295 98.8967 100.327 99.1694 100.391C99.4421 100.451 99.6445 100.506 99.7766 100.558L99.3292 102.104C99.2397 102.079 99.1246 102.049 98.984 102.015C98.8434 101.977 98.6729 101.957 98.4727 101.957C98.0082 101.957 97.6758 102.072 97.4755 102.303C97.2795 102.533 97.1815 102.865 97.1815 103.3V114H95.2702ZM100.769 114V104.182H102.68V114H100.769ZM101.734 102.667C101.402 102.667 101.116 102.556 100.878 102.335C100.643 102.109 100.526 101.84 100.526 101.529C100.526 101.214 100.643 100.945 100.878 100.724C101.116 100.498 101.402 100.385 101.734 100.385C102.067 100.385 102.35 100.498 102.585 100.724C102.823 100.945 102.942 101.214 102.942 101.529C102.942 101.84 102.823 102.109 102.585 102.335C102.35 102.556 102.067 102.667 101.734 102.667ZM108.868 117.886C108.088 117.886 107.417 117.784 106.855 117.58C106.296 117.375 105.84 117.104 105.487 116.768C105.133 116.431 104.869 116.063 104.694 115.662L106.337 114.984C106.452 115.172 106.605 115.37 106.797 115.579C106.993 115.792 107.257 115.973 107.59 116.122C107.926 116.271 108.359 116.346 108.887 116.346C109.612 116.346 110.21 116.169 110.683 115.815C111.156 115.466 111.393 114.908 111.393 114.141V112.21H111.271C111.156 112.419 110.99 112.651 110.773 112.907C110.56 113.163 110.266 113.384 109.891 113.572C109.516 113.759 109.028 113.853 108.427 113.853C107.651 113.853 106.953 113.672 106.33 113.31C105.713 112.943 105.222 112.404 104.86 111.692C104.502 110.977 104.323 110.097 104.323 109.053C104.323 108.009 104.5 107.114 104.854 106.368C105.212 105.622 105.702 105.051 106.324 104.655C106.946 104.254 107.651 104.054 108.44 104.054C109.049 104.054 109.541 104.156 109.916 104.361C110.291 104.561 110.583 104.795 110.792 105.064C111.005 105.332 111.169 105.569 111.284 105.773H111.425V104.182H113.298V114.217C113.298 115.061 113.102 115.754 112.71 116.295C112.318 116.836 111.787 117.237 111.118 117.496C110.453 117.756 109.703 117.886 108.868 117.886ZM108.849 112.268C109.399 112.268 109.863 112.14 110.242 111.884C110.626 111.624 110.916 111.254 111.112 110.772C111.312 110.286 111.412 109.705 111.412 109.027C111.412 108.366 111.314 107.785 111.118 107.282C110.922 106.779 110.634 106.387 110.255 106.106C109.876 105.82 109.407 105.678 108.849 105.678C108.274 105.678 107.794 105.827 107.411 106.125C107.027 106.419 106.737 106.82 106.541 107.327C106.35 107.834 106.254 108.401 106.254 109.027C106.254 109.67 106.352 110.235 106.548 110.721C106.744 111.207 107.034 111.586 107.417 111.859C107.805 112.131 108.282 112.268 108.849 112.268ZM121.58 109.928V104.182H123.498V114H121.619V112.3H121.517C121.291 112.824 120.928 113.261 120.43 113.61C119.936 113.955 119.32 114.128 118.583 114.128C117.952 114.128 117.394 113.989 116.908 113.712C116.426 113.431 116.047 113.016 115.77 112.466C115.497 111.916 115.361 111.237 115.361 110.427V104.182H117.272V110.197C117.272 110.866 117.458 111.398 117.828 111.795C118.199 112.191 118.681 112.389 119.273 112.389C119.631 112.389 119.987 112.3 120.34 112.121C120.698 111.942 120.994 111.671 121.229 111.309C121.468 110.947 121.585 110.487 121.58 109.928ZM125.566 114V104.182H127.413V105.741H127.516C127.695 105.213 128.01 104.798 128.462 104.495C128.918 104.188 129.433 104.035 130.009 104.035C130.128 104.035 130.268 104.039 130.43 104.048C130.597 104.056 130.727 104.067 130.82 104.08V105.908C130.744 105.886 130.607 105.863 130.411 105.837C130.215 105.808 130.019 105.793 129.823 105.793C129.371 105.793 128.969 105.888 128.615 106.08C128.266 106.268 127.989 106.53 127.784 106.866C127.58 107.199 127.477 107.578 127.477 108.004V114H125.566ZM135.854 114.198C134.887 114.198 134.054 113.991 133.355 113.578C132.66 113.161 132.123 112.575 131.744 111.82C131.369 111.062 131.182 110.173 131.182 109.155C131.182 108.149 131.369 107.263 131.744 106.496C132.123 105.729 132.652 105.13 133.329 104.7C134.011 104.269 134.808 104.054 135.72 104.054C136.274 104.054 136.811 104.146 137.331 104.329C137.851 104.512 138.317 104.8 138.731 105.192C139.144 105.584 139.47 106.093 139.709 106.719C139.947 107.342 140.067 108.098 140.067 108.989V109.666H132.262V108.234H138.194C138.194 107.732 138.091 107.286 137.887 106.898C137.682 106.506 137.395 106.197 137.024 105.972C136.657 105.746 136.227 105.633 135.733 105.633C135.196 105.633 134.727 105.765 134.327 106.029C133.93 106.289 133.623 106.63 133.406 107.052C133.193 107.469 133.086 107.923 133.086 108.413V109.532C133.086 110.188 133.202 110.746 133.432 111.207C133.666 111.667 133.992 112.018 134.41 112.261C134.827 112.5 135.315 112.619 135.873 112.619C136.236 112.619 136.566 112.568 136.864 112.466C137.162 112.359 137.42 112.202 137.638 111.993C137.855 111.784 138.021 111.526 138.136 111.219L139.945 111.545C139.8 112.078 139.54 112.545 139.165 112.945C138.795 113.342 138.328 113.651 137.765 113.872C137.207 114.089 136.57 114.198 135.854 114.198ZM150.342 114H146.104V100.909H150.476C151.759 100.909 152.861 101.171 153.781 101.695C154.702 102.215 155.407 102.963 155.897 103.939C156.391 104.911 156.638 106.076 156.638 107.435C156.638 108.799 156.389 109.971 155.89 110.951C155.396 111.931 154.68 112.685 153.743 113.214C152.805 113.738 151.672 114 150.342 114ZM148.079 112.274H150.233C151.231 112.274 152.059 112.087 152.72 111.712C153.381 111.332 153.875 110.785 154.203 110.069C154.531 109.349 154.695 108.471 154.695 107.435C154.695 106.408 154.531 105.537 154.203 104.821C153.879 104.105 153.395 103.562 152.752 103.191C152.108 102.82 151.309 102.635 150.355 102.635H148.079V112.274ZM162.673 114.198C161.705 114.198 160.872 113.991 160.173 113.578C159.479 113.161 158.942 112.575 158.562 111.82C158.188 111.062 158 110.173 158 109.155C158 108.149 158.188 107.263 158.562 106.496C158.942 105.729 159.47 105.13 160.148 104.7C160.83 104.269 161.626 104.054 162.538 104.054C163.092 104.054 163.629 104.146 164.149 104.329C164.669 104.512 165.136 104.8 165.549 105.192C165.962 105.584 166.288 106.093 166.527 106.719C166.766 107.342 166.885 108.098 166.885 108.989V109.666H159.08V108.234H165.012C165.012 107.732 164.91 107.286 164.705 106.898C164.501 106.506 164.213 106.197 163.842 105.972C163.476 105.746 163.045 105.633 162.551 105.633C162.014 105.633 161.545 105.765 161.145 106.029C160.749 106.289 160.442 106.63 160.224 107.052C160.011 107.469 159.905 107.923 159.905 108.413V109.532C159.905 110.188 160.02 110.746 160.25 111.207C160.484 111.667 160.81 112.018 161.228 112.261C161.646 112.5 162.134 112.619 162.692 112.619C163.054 112.619 163.384 112.568 163.683 112.466C163.981 112.359 164.239 112.202 164.456 111.993C164.673 111.784 164.839 111.526 164.955 111.219L166.763 111.545C166.619 112.078 166.359 112.545 165.984 112.945C165.613 113.342 165.146 113.651 164.584 113.872C164.026 114.089 163.388 114.198 162.673 114.198ZM168.506 117.682V104.182H170.372V105.773H170.532C170.643 105.569 170.802 105.332 171.011 105.064C171.22 104.795 171.51 104.561 171.881 104.361C172.251 104.156 172.741 104.054 173.351 104.054C174.143 104.054 174.851 104.254 175.473 104.655C176.095 105.055 176.583 105.633 176.937 106.387C177.295 107.141 177.474 108.049 177.474 109.11C177.474 110.171 177.297 111.081 176.943 111.839C176.589 112.594 176.104 113.175 175.486 113.585C174.868 113.989 174.162 114.192 173.37 114.192C172.773 114.192 172.285 114.092 171.906 113.891C171.531 113.691 171.237 113.457 171.024 113.188C170.811 112.92 170.647 112.681 170.532 112.472H170.417V117.682H168.506ZM170.378 109.091C170.378 109.781 170.479 110.386 170.679 110.906C170.879 111.426 171.169 111.833 171.548 112.127C171.927 112.417 172.392 112.562 172.942 112.562C173.513 112.562 173.99 112.411 174.373 112.108C174.757 111.801 175.047 111.386 175.243 110.862C175.443 110.337 175.543 109.747 175.543 109.091C175.543 108.443 175.445 107.862 175.249 107.346C175.057 106.83 174.768 106.423 174.38 106.125C173.996 105.827 173.517 105.678 172.942 105.678C172.388 105.678 171.919 105.82 171.535 106.106C171.156 106.391 170.868 106.79 170.672 107.301C170.476 107.812 170.378 108.409 170.378 109.091ZM181.026 100.909V114H179.115V100.909H181.026ZM187.233 114.198C186.313 114.198 185.509 113.987 184.823 113.565C184.137 113.143 183.604 112.553 183.225 111.795C182.846 111.036 182.656 110.15 182.656 109.136C182.656 108.117 182.846 107.227 183.225 106.464C183.604 105.701 184.137 105.109 184.823 104.687C185.509 104.265 186.313 104.054 187.233 104.054C188.153 104.054 188.957 104.265 189.643 104.687C190.329 105.109 190.862 105.701 191.241 106.464C191.62 107.227 191.81 108.117 191.81 109.136C191.81 110.15 191.62 111.036 191.241 111.795C190.862 112.553 190.329 113.143 189.643 113.565C188.957 113.987 188.153 114.198 187.233 114.198ZM187.239 112.594C187.836 112.594 188.33 112.436 188.722 112.121C189.114 111.805 189.404 111.386 189.592 110.862C189.783 110.337 189.879 109.76 189.879 109.129C189.879 108.503 189.783 107.928 189.592 107.403C189.404 106.875 189.114 106.451 188.722 106.131C188.33 105.812 187.836 105.652 187.239 105.652C186.638 105.652 186.14 105.812 185.744 106.131C185.352 106.451 185.06 106.875 184.868 107.403C184.68 107.928 184.587 108.503 184.587 109.129C184.587 109.76 184.68 110.337 184.868 110.862C185.06 111.386 185.352 111.805 185.744 112.121C186.14 112.436 186.638 112.594 187.239 112.594ZM194.317 117.682C194.032 117.682 193.772 117.658 193.537 117.612C193.303 117.569 193.128 117.522 193.013 117.471L193.473 115.905C193.823 115.999 194.134 116.039 194.407 116.026C194.679 116.013 194.92 115.911 195.129 115.719C195.342 115.528 195.529 115.214 195.691 114.78L195.928 114.128L192.336 104.182H194.381L196.868 111.801H196.97L199.456 104.182H201.508L197.462 115.31C197.275 115.822 197.036 116.254 196.746 116.608C196.456 116.966 196.111 117.234 195.711 117.413C195.31 117.592 194.846 117.682 194.317 117.682ZM202.804 114V104.182H204.639V105.78H204.76C204.965 105.239 205.299 104.817 205.764 104.514C206.228 104.207 206.784 104.054 207.432 104.054C208.088 104.054 208.638 104.207 209.081 104.514C209.529 104.821 209.859 105.243 210.072 105.78H210.174C210.409 105.256 210.782 104.838 211.293 104.527C211.804 104.212 212.414 104.054 213.121 104.054C214.012 104.054 214.738 104.333 215.301 104.891C215.868 105.45 216.151 106.291 216.151 107.416V114H214.24V107.595C214.24 106.93 214.059 106.449 213.696 106.151C213.334 105.852 212.902 105.703 212.399 105.703C211.777 105.703 211.293 105.895 210.948 106.278C210.603 106.658 210.43 107.146 210.43 107.742V114H208.525V107.474C208.525 106.941 208.359 106.513 208.027 106.189C207.694 105.865 207.262 105.703 206.729 105.703C206.367 105.703 206.032 105.799 205.725 105.991C205.423 106.178 205.178 106.44 204.99 106.777C204.807 107.114 204.716 107.504 204.716 107.947V114H202.804ZM222.444 114.198C221.477 114.198 220.644 113.991 219.945 113.578C219.25 113.161 218.713 112.575 218.334 111.82C217.959 111.062 217.771 110.173 217.771 109.155C217.771 108.149 217.959 107.263 218.334 106.496C218.713 105.729 219.242 105.13 219.919 104.7C220.601 104.269 221.398 104.054 222.31 104.054C222.864 104.054 223.401 104.146 223.921 104.329C224.441 104.512 224.907 104.8 225.32 105.192C225.734 105.584 226.06 106.093 226.298 106.719C226.537 107.342 226.656 108.098 226.656 108.989V109.666H218.852V108.234H224.784C224.784 107.732 224.681 107.286 224.477 106.898C224.272 106.506 223.985 106.197 223.614 105.972C223.247 105.746 222.817 105.633 222.323 105.633C221.786 105.633 221.317 105.765 220.916 106.029C220.52 106.289 220.213 106.63 219.996 107.052C219.783 107.469 219.676 107.923 219.676 108.413V109.532C219.676 110.188 219.791 110.746 220.021 111.207C220.256 111.667 220.582 112.018 220.999 112.261C221.417 112.5 221.905 112.619 222.463 112.619C222.825 112.619 223.156 112.568 223.454 112.466C223.752 112.359 224.01 112.202 224.227 111.993C224.445 111.784 224.611 111.526 224.726 111.219L226.535 111.545C226.39 112.078 226.13 112.545 225.755 112.945C225.384 113.342 224.918 113.651 224.355 113.872C223.797 114.089 223.16 114.198 222.444 114.198ZM230.188 108.17V114H228.277V104.182H230.112V105.78H230.233C230.459 105.26 230.813 104.842 231.294 104.527C231.78 104.212 232.391 104.054 233.129 104.054C233.798 104.054 234.384 104.195 234.886 104.476C235.389 104.753 235.779 105.166 236.056 105.716C236.333 106.266 236.472 106.945 236.472 107.755V114H234.56V107.985C234.56 107.273 234.375 106.717 234.004 106.317C233.634 105.912 233.124 105.71 232.477 105.71C232.033 105.71 231.639 105.805 231.294 105.997C230.953 106.189 230.683 106.47 230.482 106.841C230.286 107.207 230.188 107.651 230.188 108.17ZM243.118 104.182V105.716H237.755V104.182H243.118ZM239.193 101.83H241.104V111.117C241.104 111.488 241.16 111.767 241.271 111.955C241.381 112.138 241.524 112.263 241.699 112.332C241.878 112.396 242.072 112.428 242.281 112.428C242.434 112.428 242.568 112.417 242.683 112.396C242.798 112.374 242.888 112.357 242.952 112.344L243.297 113.923C243.186 113.966 243.028 114.009 242.824 114.051C242.619 114.098 242.364 114.124 242.057 114.128C241.554 114.136 241.085 114.047 240.651 113.859C240.216 113.672 239.864 113.382 239.596 112.99C239.327 112.598 239.193 112.106 239.193 111.513V101.83Z" fill="#F1F1FF"/>
<path d="M65.8295 126.455C65.7784 126.023 65.571 125.688 65.2074 125.449C64.8438 125.21 64.3977 125.091 63.8693 125.091C63.483 125.091 63.1449 125.153 62.8551 125.278C62.5682 125.403 62.3438 125.575 62.1818 125.794C62.0227 126.013 61.9432 126.261 61.9432 126.54C61.9432 126.773 61.9986 126.973 62.1094 127.141C62.223 127.305 62.3679 127.443 62.544 127.554C62.7202 127.662 62.9048 127.751 63.098 127.822C63.2912 127.891 63.4688 127.946 63.6307 127.989L64.517 128.227C64.7443 128.287 64.9972 128.369 65.2756 128.474C65.5568 128.58 65.8253 128.723 66.081 128.905C66.3395 129.084 66.5526 129.314 66.7202 129.595C66.8878 129.876 66.9716 130.222 66.9716 130.631C66.9716 131.102 66.848 131.528 66.6009 131.909C66.3565 132.29 65.9986 132.592 65.527 132.817C65.0582 133.041 64.4886 133.153 63.8182 133.153C63.1932 133.153 62.652 133.053 62.1946 132.851C61.7401 132.649 61.3821 132.368 61.1207 132.007C60.8622 131.646 60.7159 131.227 60.6818 130.75H61.7727C61.8011 131.08 61.9119 131.352 62.1051 131.568C62.3011 131.781 62.5483 131.94 62.8466 132.045C63.1477 132.148 63.4716 132.199 63.8182 132.199C64.2216 132.199 64.5838 132.134 64.9048 132.003C65.2259 131.869 65.4801 131.685 65.6676 131.449C65.8551 131.21 65.9489 130.932 65.9489 130.614C65.9489 130.324 65.8679 130.088 65.706 129.906C65.544 129.724 65.331 129.577 65.0668 129.463C64.8026 129.349 64.517 129.25 64.2102 129.165L63.1364 128.858C62.4545 128.662 61.9148 128.382 61.517 128.018C61.1193 127.655 60.9205 127.179 60.9205 126.591C60.9205 126.102 61.0526 125.676 61.3168 125.312C61.5838 124.946 61.9418 124.662 62.3906 124.46C62.8423 124.256 63.3466 124.153 63.9034 124.153C64.4659 124.153 64.9659 124.254 65.4034 124.456C65.8409 124.655 66.1875 124.928 66.4432 125.274C66.7017 125.621 66.8381 126.014 66.8523 126.455H65.8295ZM68.0728 135.455V126.455H69.0444V127.494H69.1637C69.2376 127.381 69.3398 127.236 69.4705 127.06C69.604 126.881 69.7944 126.722 70.0415 126.582C70.2915 126.44 70.6296 126.369 71.0558 126.369C71.6069 126.369 72.0927 126.507 72.5131 126.783C72.9336 127.058 73.2617 127.449 73.4975 127.955C73.7333 128.46 73.8512 129.057 73.8512 129.744C73.8512 130.438 73.7333 131.038 73.4975 131.547C73.2617 132.053 72.935 132.445 72.5174 132.723C72.0998 132.999 71.6183 133.136 71.0728 133.136C70.6523 133.136 70.3157 133.067 70.0629 132.928C69.81 132.786 69.6154 132.625 69.479 132.446C69.3427 132.264 69.2376 132.114 69.1637 131.994H69.0785V135.455H68.0728ZM69.0614 129.727C69.0614 130.222 69.1339 130.658 69.2788 131.036C69.4237 131.411 69.6353 131.705 69.9137 131.918C70.1921 132.128 70.533 132.233 70.9364 132.233C71.3569 132.233 71.7077 132.122 71.989 131.901C72.2731 131.676 72.4862 131.375 72.6282 130.997C72.7731 130.616 72.8455 130.193 72.8455 129.727C72.8455 129.267 72.7745 128.852 72.6325 128.483C72.4933 128.111 72.2816 127.817 71.9975 127.601C71.7163 127.382 71.3626 127.273 70.9364 127.273C70.5273 127.273 70.1836 127.376 69.9052 127.584C69.6268 127.788 69.4165 128.075 69.2745 128.445C69.1325 128.811 69.0614 129.239 69.0614 129.727ZM77.6296 133.136C76.9989 133.136 76.4549 132.997 75.9975 132.719C75.543 132.438 75.1921 132.045 74.945 131.543C74.7006 131.037 74.5785 130.449 74.5785 129.778C74.5785 129.108 74.7006 128.517 74.945 128.006C75.1921 127.491 75.5359 127.091 75.9762 126.804C76.4194 126.514 76.9364 126.369 77.5273 126.369C77.8683 126.369 78.2049 126.426 78.5373 126.54C78.8697 126.653 79.1722 126.838 79.445 127.094C79.7177 127.347 79.935 127.682 80.0969 128.099C80.2589 128.517 80.3398 129.031 80.3398 129.642V130.068H75.2944V129.199H79.3171C79.3171 128.83 79.2433 128.5 79.0955 128.21C78.9506 127.92 78.7433 127.692 78.4734 127.524C78.2063 127.357 77.891 127.273 77.5273 127.273C77.1268 127.273 76.7802 127.372 76.4876 127.571C76.1978 127.767 75.9748 128.023 75.8185 128.338C75.6623 128.653 75.5842 128.991 75.5842 129.352V129.932C75.5842 130.426 75.6694 130.845 75.8398 131.189C76.0131 131.53 76.2532 131.79 76.56 131.969C76.8668 132.145 77.2234 132.233 77.6296 132.233C77.8938 132.233 78.1325 132.196 78.3455 132.122C78.5614 132.045 78.7475 131.932 78.9038 131.781C79.06 131.628 79.1808 131.437 79.266 131.21L80.2376 131.483C80.1353 131.812 79.9634 132.102 79.7219 132.352C79.4805 132.599 79.1822 132.793 78.8271 132.932C78.4719 133.068 78.0728 133.136 77.6296 133.136ZM84.0288 133.136C83.4151 133.136 82.8867 132.991 82.4435 132.702C82.0004 132.412 81.6594 132.013 81.4208 131.504C81.1822 130.996 81.0629 130.415 81.0629 129.761C81.0629 129.097 81.185 128.51 81.4293 128.001C81.6765 127.49 82.0202 127.091 82.4606 126.804C82.9038 126.514 83.4208 126.369 84.0117 126.369C84.4719 126.369 84.8867 126.455 85.256 126.625C85.6254 126.795 85.9279 127.034 86.1637 127.341C86.3995 127.648 86.5458 128.006 86.6026 128.415H85.5969C85.5202 128.116 85.3498 127.852 85.0856 127.622C84.8242 127.389 84.4719 127.273 84.0288 127.273C83.6367 127.273 83.293 127.375 82.9975 127.58C82.7049 127.781 82.4762 128.067 82.3114 128.436C82.1495 128.803 82.0685 129.233 82.0685 129.727C82.0685 130.233 82.1481 130.673 82.3072 131.048C82.4691 131.423 82.6964 131.714 82.989 131.922C83.2844 132.129 83.631 132.233 84.0288 132.233C84.2901 132.233 84.5273 132.188 84.7404 132.097C84.9535 132.006 85.1339 131.875 85.2816 131.705C85.4293 131.534 85.5344 131.33 85.5969 131.091H86.6026C86.5458 131.477 86.4052 131.825 86.1808 132.135C85.9592 132.442 85.6651 132.686 85.2987 132.868C84.935 133.047 84.5117 133.136 84.0288 133.136ZM87.5728 133V126.455H88.5785V133H87.5728ZM88.0842 125.364C87.8881 125.364 87.7191 125.297 87.5771 125.163C87.4379 125.03 87.3683 124.869 87.3683 124.682C87.3683 124.494 87.4379 124.334 87.5771 124.2C87.7191 124.067 87.8881 124 88.0842 124C88.2802 124 88.4478 124.067 88.587 124.2C88.729 124.334 88.8001 124.494 88.8001 124.682C88.8001 124.869 88.729 125.03 88.587 125.163C88.4478 125.297 88.2802 125.364 88.0842 125.364ZM92.8352 126.455V127.307H89.3068V126.455H92.8352ZM90.3636 133V125.551C90.3636 125.176 90.4517 124.864 90.6278 124.614C90.804 124.364 91.0327 124.176 91.3139 124.051C91.5952 123.926 91.892 123.864 92.2045 123.864C92.4517 123.864 92.6534 123.884 92.8097 123.923C92.9659 123.963 93.0824 124 93.1591 124.034L92.8693 124.903C92.8182 124.886 92.7472 124.865 92.6562 124.839C92.5682 124.814 92.4517 124.801 92.3068 124.801C91.9744 124.801 91.7344 124.885 91.5866 125.053C91.4418 125.22 91.3693 125.466 91.3693 125.79V133H90.3636ZM94.3924 135.455C94.2219 135.455 94.07 135.44 93.9364 135.412C93.8029 135.386 93.7106 135.361 93.6594 135.335L93.9151 134.449C94.1594 134.511 94.3754 134.534 94.5629 134.517C94.7504 134.5 94.9165 134.416 95.0614 134.266C95.2092 134.118 95.3441 133.878 95.4663 133.545L95.6538 133.034L93.2333 126.455H94.3242L96.131 131.67H96.1992L98.006 126.455H99.0969L96.3185 133.955C96.1935 134.293 96.0387 134.572 95.854 134.794C95.6694 135.018 95.4549 135.185 95.2106 135.293C94.9691 135.401 94.6964 135.455 94.3924 135.455ZM103.805 129.062V133H102.799V124.273H103.805V127.477H103.89C104.044 127.139 104.274 126.871 104.581 126.672C104.89 126.47 105.302 126.369 105.816 126.369C106.262 126.369 106.653 126.459 106.988 126.638C107.324 126.814 107.583 127.085 107.768 127.452C107.956 127.815 108.049 128.278 108.049 128.841V133H107.044V128.909C107.044 128.389 106.909 127.987 106.639 127.703C106.372 127.416 106.001 127.273 105.527 127.273C105.197 127.273 104.902 127.342 104.64 127.482C104.382 127.621 104.177 127.824 104.027 128.091C103.879 128.358 103.805 128.682 103.805 129.062ZM112.048 133.136C111.457 133.136 110.939 132.996 110.493 132.714C110.05 132.433 109.703 132.04 109.453 131.534C109.206 131.028 109.082 130.437 109.082 129.761C109.082 129.08 109.206 128.484 109.453 127.976C109.703 127.467 110.05 127.072 110.493 126.791C110.939 126.51 111.457 126.369 112.048 126.369C112.639 126.369 113.156 126.51 113.599 126.791C114.045 127.072 114.392 127.467 114.639 127.976C114.889 128.484 115.014 129.08 115.014 129.761C115.014 130.437 114.889 131.028 114.639 131.534C114.392 132.04 114.045 132.433 113.599 132.714C113.156 132.996 112.639 133.136 112.048 133.136ZM112.048 132.233C112.497 132.233 112.866 132.118 113.156 131.888C113.446 131.658 113.661 131.355 113.8 130.98C113.939 130.605 114.009 130.199 114.009 129.761C114.009 129.324 113.939 128.916 113.8 128.538C113.661 128.161 113.446 127.855 113.156 127.622C112.866 127.389 112.497 127.273 112.048 127.273C111.599 127.273 111.23 127.389 110.94 127.622C110.651 127.855 110.436 128.161 110.297 128.538C110.158 128.916 110.088 129.324 110.088 129.761C110.088 130.199 110.158 130.605 110.297 130.98C110.436 131.355 110.651 131.658 110.94 131.888C111.23 132.118 111.599 132.233 112.048 132.233ZM117.31 133L115.315 126.455H116.372L117.787 131.466H117.855L119.253 126.455H120.327L121.707 131.449H121.776L123.19 126.455H124.247L122.253 133H121.264L119.832 127.972H119.73L118.298 133H117.31ZM128.088 133V124.273H133.355V125.21H129.145V128.159H133.082V129.097H129.145V132.062H133.423V133H128.088ZM135.374 126.455L136.942 129.131L138.51 126.455H139.669L137.555 129.727L139.669 133H138.51L136.942 130.46L135.374 133H134.214L136.294 129.727L134.214 126.455H135.374ZM142.994 133.136C142.403 133.136 141.884 132.996 141.438 132.714C140.995 132.433 140.648 132.04 140.398 131.534C140.151 131.028 140.028 130.437 140.028 129.761C140.028 129.08 140.151 128.484 140.398 127.976C140.648 127.467 140.995 127.072 141.438 126.791C141.884 126.51 142.403 126.369 142.994 126.369C143.585 126.369 144.102 126.51 144.545 126.791C144.991 127.072 145.337 127.467 145.585 127.976C145.835 128.484 145.96 129.08 145.96 129.761C145.96 130.437 145.835 131.028 145.585 131.534C145.337 132.04 144.991 132.433 144.545 132.714C144.102 132.996 143.585 133.136 142.994 133.136ZM142.994 132.233C143.442 132.233 143.812 132.118 144.102 131.888C144.391 131.658 144.606 131.355 144.745 130.98C144.884 130.605 144.954 130.199 144.954 129.761C144.954 129.324 144.884 128.916 144.745 128.538C144.606 128.161 144.391 127.855 144.102 127.622C143.812 127.389 143.442 127.273 142.994 127.273C142.545 127.273 142.175 127.389 141.886 127.622C141.596 127.855 141.381 128.161 141.242 128.538C141.103 128.916 141.033 129.324 141.033 129.761C141.033 130.199 141.103 130.605 141.242 130.98C141.381 131.355 141.596 131.658 141.886 131.888C142.175 132.118 142.545 132.233 142.994 132.233ZM146.995 135.455V126.455H147.966V127.494H148.086C148.159 127.381 148.262 127.236 148.392 127.06C148.526 126.881 148.716 126.722 148.963 126.582C149.213 126.44 149.551 126.369 149.978 126.369C150.529 126.369 151.015 126.507 151.435 126.783C151.855 127.058 152.184 127.449 152.419 127.955C152.655 128.46 152.773 129.057 152.773 129.744C152.773 130.438 152.655 131.038 152.419 131.547C152.184 132.053 151.857 132.445 151.439 132.723C151.022 132.999 150.54 133.136 149.995 133.136C149.574 133.136 149.238 133.067 148.985 132.928C148.732 132.786 148.537 132.625 148.401 132.446C148.265 132.264 148.159 132.114 148.086 131.994H148V135.455H146.995ZM147.983 129.727C147.983 130.222 148.056 130.658 148.201 131.036C148.346 131.411 148.557 131.705 148.836 131.918C149.114 132.128 149.455 132.233 149.858 132.233C150.279 132.233 150.63 132.122 150.911 131.901C151.195 131.676 151.408 131.375 151.55 130.997C151.695 130.616 151.767 130.193 151.767 129.727C151.767 129.267 151.696 128.852 151.554 128.483C151.415 128.111 151.203 127.817 150.919 127.601C150.638 127.382 150.284 127.273 149.858 127.273C149.449 127.273 149.105 127.376 148.827 127.584C148.549 127.788 148.338 128.075 148.196 128.445C148.054 128.811 147.983 129.239 147.983 129.727ZM156.466 133.136C155.875 133.136 155.357 132.996 154.911 132.714C154.468 132.433 154.121 132.04 153.871 131.534C153.624 131.028 153.5 130.437 153.5 129.761C153.5 129.08 153.624 128.484 153.871 127.976C154.121 127.467 154.468 127.072 154.911 126.791C155.357 126.51 155.875 126.369 156.466 126.369C157.057 126.369 157.574 126.51 158.017 126.791C158.463 127.072 158.81 127.467 159.057 127.976C159.307 128.484 159.432 129.08 159.432 129.761C159.432 130.437 159.307 131.028 159.057 131.534C158.81 132.04 158.463 132.433 158.017 132.714C157.574 132.996 157.057 133.136 156.466 133.136ZM156.466 132.233C156.915 132.233 157.284 132.118 157.574 131.888C157.864 131.658 158.078 131.355 158.218 130.98C158.357 130.605 158.426 130.199 158.426 129.761C158.426 129.324 158.357 128.916 158.218 128.538C158.078 128.161 157.864 127.855 157.574 127.622C157.284 127.389 156.915 127.273 156.466 127.273C156.017 127.273 155.648 127.389 155.358 127.622C155.069 127.855 154.854 128.161 154.715 128.538C154.576 128.916 154.506 129.324 154.506 129.761C154.506 130.199 154.576 130.605 154.715 130.98C154.854 131.355 155.069 131.658 155.358 131.888C155.648 132.118 156.017 132.233 156.466 132.233ZM162.939 133.136C162.393 133.136 161.912 132.999 161.494 132.723C161.077 132.445 160.75 132.053 160.514 131.547C160.278 131.038 160.161 130.438 160.161 129.744C160.161 129.057 160.278 128.46 160.514 127.955C160.75 127.449 161.078 127.058 161.499 126.783C161.919 126.507 162.405 126.369 162.956 126.369C163.382 126.369 163.719 126.44 163.966 126.582C164.216 126.722 164.406 126.881 164.537 127.06C164.67 127.236 164.774 127.381 164.848 127.494H164.933V124.273H165.939V133H164.967V131.994H164.848C164.774 132.114 164.669 132.264 164.533 132.446C164.396 132.625 164.202 132.786 163.949 132.928C163.696 133.067 163.359 133.136 162.939 133.136ZM163.075 132.233C163.479 132.233 163.82 132.128 164.098 131.918C164.376 131.705 164.588 131.411 164.733 131.036C164.878 130.658 164.95 130.222 164.95 129.727C164.95 129.239 164.879 128.811 164.737 128.445C164.595 128.075 164.385 127.788 164.107 127.584C163.828 127.376 163.484 127.273 163.075 127.273C162.649 127.273 162.294 127.382 162.01 127.601C161.729 127.817 161.517 128.111 161.375 128.483C161.236 128.852 161.166 129.267 161.166 129.727C161.166 130.193 161.237 130.616 161.379 130.997C161.524 131.375 161.737 131.676 162.018 131.901C162.303 132.122 162.655 132.233 163.075 132.233ZM172.057 127.92L171.153 128.176C171.097 128.026 171.013 127.879 170.902 127.737C170.794 127.592 170.646 127.473 170.459 127.379C170.271 127.286 170.031 127.239 169.739 127.239C169.338 127.239 169.004 127.331 168.737 127.516C168.473 127.697 168.341 127.929 168.341 128.21C168.341 128.46 168.432 128.658 168.614 128.803C168.795 128.947 169.08 129.068 169.466 129.165L170.438 129.403C171.023 129.545 171.459 129.763 171.746 130.055C172.033 130.345 172.176 130.719 172.176 131.176C172.176 131.551 172.068 131.886 171.852 132.182C171.639 132.477 171.341 132.71 170.957 132.881C170.574 133.051 170.128 133.136 169.619 133.136C168.952 133.136 168.399 132.991 167.962 132.702C167.524 132.412 167.247 131.989 167.131 131.432L168.085 131.193C168.176 131.545 168.348 131.81 168.601 131.986C168.857 132.162 169.19 132.25 169.602 132.25C170.071 132.25 170.443 132.151 170.719 131.952C170.997 131.75 171.136 131.509 171.136 131.227C171.136 131 171.057 130.81 170.898 130.656C170.739 130.5 170.494 130.384 170.165 130.307L169.074 130.051C168.474 129.909 168.034 129.689 167.753 129.391C167.474 129.089 167.335 128.713 167.335 128.261C167.335 127.892 167.439 127.565 167.646 127.281C167.857 126.997 168.142 126.774 168.503 126.612C168.866 126.45 169.278 126.369 169.739 126.369C170.386 126.369 170.895 126.511 171.264 126.795C171.636 127.08 171.901 127.455 172.057 127.92ZM177.548 133L175.554 126.455H176.61L178.025 131.466H178.093L179.491 126.455H180.565L181.946 131.449H182.014L183.429 126.455H184.485L182.491 133H181.502L180.071 127.972H179.968L178.537 133H177.548ZM185.315 133V126.455H186.321V133H185.315ZM185.826 125.364C185.63 125.364 185.461 125.297 185.319 125.163C185.18 125.03 185.11 124.869 185.11 124.682C185.11 124.494 185.18 124.334 185.319 124.2C185.461 124.067 185.63 124 185.826 124C186.022 124 186.19 124.067 186.329 124.2C186.471 124.334 186.542 124.494 186.542 124.682C186.542 124.869 186.471 125.03 186.329 125.163C186.19 125.297 186.022 125.364 185.826 125.364ZM188.668 124.273V133H187.663V124.273H188.668ZM191.016 124.273V133H190.01V124.273H191.016ZM195.369 133V124.273H196.375V127.494H196.46C196.534 127.381 196.636 127.236 196.767 127.06C196.901 126.881 197.091 126.722 197.338 126.582C197.588 126.44 197.926 126.369 198.352 126.369C198.903 126.369 199.389 126.507 199.81 126.783C200.23 127.058 200.558 127.449 200.794 127.955C201.03 128.46 201.148 129.057 201.148 129.744C201.148 130.438 201.03 131.038 200.794 131.547C200.558 132.053 200.232 132.445 199.814 132.723C199.396 132.999 198.915 133.136 198.369 133.136C197.949 133.136 197.612 133.067 197.359 132.928C197.107 132.786 196.912 132.625 196.776 132.446C196.639 132.264 196.534 132.114 196.46 131.994H196.341V133H195.369ZM196.358 129.727C196.358 130.222 196.43 130.658 196.575 131.036C196.72 131.411 196.932 131.705 197.21 131.918C197.489 132.128 197.83 132.233 198.233 132.233C198.653 132.233 199.004 132.122 199.286 131.901C199.57 131.676 199.783 131.375 199.925 130.997C200.07 130.616 200.142 130.193 200.142 129.727C200.142 129.267 200.071 128.852 199.929 128.483C199.79 128.111 199.578 127.817 199.294 127.601C199.013 127.382 198.659 127.273 198.233 127.273C197.824 127.273 197.48 127.376 197.202 127.584C196.923 127.788 196.713 128.075 196.571 128.445C196.429 128.811 196.358 129.239 196.358 129.727ZM206.311 130.324V126.455H207.317V133H206.311V131.892H206.243C206.089 132.224 205.851 132.507 205.527 132.74C205.203 132.97 204.794 133.085 204.3 133.085C203.891 133.085 203.527 132.996 203.209 132.817C202.891 132.635 202.641 132.362 202.459 131.999C202.277 131.632 202.186 131.17 202.186 130.614V126.455H203.192V130.545C203.192 131.023 203.325 131.403 203.592 131.688C203.862 131.972 204.206 132.114 204.624 132.114C204.874 132.114 205.128 132.05 205.386 131.922C205.648 131.794 205.866 131.598 206.043 131.334C206.222 131.07 206.311 130.733 206.311 130.324ZM208.659 133V126.455H209.664V133H208.659ZM209.17 125.364C208.974 125.364 208.805 125.297 208.663 125.163C208.524 125.03 208.454 124.869 208.454 124.682C208.454 124.494 208.524 124.334 208.663 124.2C208.805 124.067 208.974 124 209.17 124C209.366 124 209.534 124.067 209.673 124.2C209.815 124.334 209.886 124.494 209.886 124.682C209.886 124.869 209.815 125.03 209.673 125.163C209.534 125.297 209.366 125.364 209.17 125.364ZM212.012 124.273V133H211.006V124.273H212.012ZM215.826 133.136C215.28 133.136 214.799 132.999 214.381 132.723C213.963 132.445 213.637 132.053 213.401 131.547C213.165 131.038 213.047 130.438 213.047 129.744C213.047 129.057 213.165 128.46 213.401 127.955C213.637 127.449 213.965 127.058 214.385 126.783C214.806 126.507 215.292 126.369 215.843 126.369C216.269 126.369 216.605 126.44 216.853 126.582C217.103 126.722 217.293 126.881 217.424 127.06C217.557 127.236 217.661 127.381 217.735 127.494H217.82V124.273H218.826V133H217.854V131.994H217.735C217.661 132.114 217.556 132.264 217.419 132.446C217.283 132.625 217.088 132.786 216.836 132.928C216.583 133.067 216.246 133.136 215.826 133.136ZM215.962 132.233C216.365 132.233 216.706 132.128 216.985 131.918C217.263 131.705 217.475 131.411 217.62 131.036C217.765 130.658 217.837 130.222 217.837 129.727C217.837 129.239 217.766 128.811 217.624 128.445C217.482 128.075 217.272 127.788 216.993 127.584C216.715 127.376 216.371 127.273 215.962 127.273C215.536 127.273 215.181 127.382 214.897 127.601C214.615 127.817 214.404 128.111 214.262 128.483C214.123 128.852 214.053 129.267 214.053 129.727C214.053 130.193 214.124 130.616 214.266 130.997C214.411 131.375 214.624 131.676 214.905 131.901C215.189 132.122 215.542 132.233 215.962 132.233ZM223.83 135.455C223.659 135.455 223.507 135.44 223.374 135.412C223.24 135.386 223.148 135.361 223.097 135.335L223.353 134.449C223.597 134.511 223.813 134.534 224 134.517C224.188 134.5 224.354 134.416 224.499 134.266C224.647 134.118 224.782 133.878 224.904 133.545L225.091 133.034L222.671 126.455H223.762L225.569 131.67H225.637L227.444 126.455H228.534L225.756 133.955C225.631 134.293 225.476 134.572 225.292 134.794C225.107 135.018 224.892 135.185 224.648 135.293C224.407 135.401 224.134 135.455 223.83 135.455ZM231.787 133.136C231.196 133.136 230.677 132.996 230.231 132.714C229.788 132.433 229.441 132.04 229.191 131.534C228.944 131.028 228.821 130.437 228.821 129.761C228.821 129.08 228.944 128.484 229.191 127.976C229.441 127.467 229.788 127.072 230.231 126.791C230.677 126.51 231.196 126.369 231.787 126.369C232.377 126.369 232.895 126.51 233.338 126.791C233.784 127.072 234.13 127.467 234.377 127.976C234.627 128.484 234.752 129.08 234.752 129.761C234.752 130.437 234.627 131.028 234.377 131.534C234.13 132.04 233.784 132.433 233.338 132.714C232.895 132.996 232.377 133.136 231.787 133.136ZM231.787 132.233C232.235 132.233 232.605 132.118 232.895 131.888C233.184 131.658 233.399 131.355 233.538 130.98C233.677 130.605 233.747 130.199 233.747 129.761C233.747 129.324 233.677 128.916 233.538 128.538C233.399 128.161 233.184 127.855 232.895 127.622C232.605 127.389 232.235 127.273 231.787 127.273C231.338 127.273 230.968 127.389 230.679 127.622C230.389 127.855 230.174 128.161 230.035 128.538C229.896 128.916 229.826 129.324 229.826 129.761C229.826 130.199 229.896 130.605 230.035 130.98C230.174 131.355 230.389 131.658 230.679 131.888C230.968 132.118 231.338 132.233 231.787 132.233ZM239.913 130.324V126.455H240.918V133H239.913V131.892H239.844C239.691 132.224 239.452 132.507 239.129 132.74C238.805 132.97 238.396 133.085 237.901 133.085C237.492 133.085 237.129 132.996 236.81 132.817C236.492 132.635 236.242 132.362 236.06 131.999C235.879 131.632 235.788 131.17 235.788 130.614V126.455H236.793V130.545C236.793 131.023 236.927 131.403 237.194 131.688C237.464 131.972 237.808 132.114 238.225 132.114C238.475 132.114 238.729 132.05 238.988 131.922C239.249 131.794 239.468 131.598 239.644 131.334C239.823 131.07 239.913 130.733 239.913 130.324ZM242.26 133V126.455H243.232V127.443H243.3C243.419 127.119 243.635 126.857 243.948 126.655C244.26 126.453 244.613 126.352 245.005 126.352C245.078 126.352 245.171 126.354 245.282 126.357C245.392 126.359 245.476 126.364 245.533 126.369V127.392C245.499 127.384 245.421 127.371 245.299 127.354C245.179 127.334 245.053 127.324 244.919 127.324C244.601 127.324 244.317 127.391 244.067 127.524C243.82 127.655 243.624 127.837 243.479 128.07C243.337 128.3 243.266 128.562 243.266 128.858V133H242.26ZM253.737 127.92L252.833 128.176C252.776 128.026 252.692 127.879 252.582 127.737C252.474 127.592 252.326 127.473 252.138 127.379C251.951 127.286 251.711 127.239 251.418 127.239C251.018 127.239 250.684 127.331 250.417 127.516C250.153 127.697 250.021 127.929 250.021 128.21C250.021 128.46 250.112 128.658 250.293 128.803C250.475 128.947 250.759 129.068 251.146 129.165L252.117 129.403C252.702 129.545 253.138 129.763 253.425 130.055C253.712 130.345 253.856 130.719 253.856 131.176C253.856 131.551 253.748 131.886 253.532 132.182C253.319 132.477 253.021 132.71 252.637 132.881C252.254 133.051 251.808 133.136 251.299 133.136C250.631 133.136 250.079 132.991 249.641 132.702C249.204 132.412 248.927 131.989 248.81 131.432L249.765 131.193C249.856 131.545 250.028 131.81 250.281 131.986C250.536 132.162 250.87 132.25 251.282 132.25C251.751 132.25 252.123 132.151 252.398 131.952C252.677 131.75 252.816 131.509 252.816 131.227C252.816 131 252.737 130.81 252.577 130.656C252.418 130.5 252.174 130.384 251.844 130.307L250.754 130.051C250.154 129.909 249.714 129.689 249.433 129.391C249.154 129.089 249.015 128.713 249.015 128.261C249.015 127.892 249.119 127.565 249.326 127.281C249.536 126.997 249.822 126.774 250.183 126.612C250.546 126.45 250.958 126.369 251.418 126.369C252.066 126.369 252.575 126.511 252.944 126.795C253.316 127.08 253.58 127.455 253.737 127.92ZM254.87 133V126.455H255.875V133H254.87ZM255.381 125.364C255.185 125.364 255.016 125.297 254.874 125.163C254.735 125.03 254.665 124.869 254.665 124.682C254.665 124.494 254.735 124.334 254.874 124.2C255.016 124.067 255.185 124 255.381 124C255.577 124 255.745 124.067 255.884 124.2C256.026 124.334 256.097 124.494 256.097 124.682C256.097 124.869 256.026 125.03 255.884 125.163C255.745 125.297 255.577 125.364 255.381 125.364ZM260.064 126.455V127.307H256.672V126.455H260.064ZM257.661 124.886H258.666V131.125C258.666 131.409 258.707 131.622 258.79 131.764C258.875 131.903 258.983 131.997 259.114 132.045C259.247 132.091 259.388 132.114 259.536 132.114C259.646 132.114 259.737 132.108 259.808 132.097C259.879 132.082 259.936 132.071 259.979 132.062L260.183 132.966C260.115 132.991 260.02 133.017 259.898 133.043C259.776 133.071 259.621 133.085 259.433 133.085C259.149 133.085 258.871 133.024 258.598 132.902C258.328 132.78 258.104 132.594 257.925 132.344C257.749 132.094 257.661 131.778 257.661 131.398V124.886ZM263.751 133.136C263.12 133.136 262.576 132.997 262.119 132.719C261.664 132.438 261.313 132.045 261.066 131.543C260.822 131.037 260.7 130.449 260.7 129.778C260.7 129.108 260.822 128.517 261.066 128.006C261.313 127.491 261.657 127.091 262.097 126.804C262.54 126.514 263.058 126.369 263.648 126.369C263.989 126.369 264.326 126.426 264.658 126.54C264.991 126.653 265.293 126.838 265.566 127.094C265.839 127.347 266.056 127.682 266.218 128.099C266.38 128.517 266.461 129.031 266.461 129.642V130.068H261.415V129.199H265.438C265.438 128.83 265.364 128.5 265.217 128.21C265.072 127.92 264.864 127.692 264.594 127.524C264.327 127.357 264.012 127.273 263.648 127.273C263.248 127.273 262.901 127.372 262.609 127.571C262.319 127.767 262.096 128.023 261.94 128.338C261.783 128.653 261.705 128.991 261.705 129.352V129.932C261.705 130.426 261.79 130.845 261.961 131.189C262.134 131.53 262.374 131.79 262.681 131.969C262.988 132.145 263.344 132.233 263.751 132.233C264.015 132.233 264.254 132.196 264.467 132.122C264.683 132.045 264.869 131.932 265.025 131.781C265.181 131.628 265.302 131.437 265.387 131.21L266.359 131.483C266.256 131.812 266.085 132.102 265.843 132.352C265.602 132.599 265.303 132.793 264.948 132.932C264.593 133.068 264.194 133.136 263.751 133.136ZM268.224 133.068C268.013 133.068 267.833 132.993 267.683 132.842C267.532 132.692 267.457 132.511 267.457 132.301C267.457 132.091 267.532 131.911 267.683 131.76C267.833 131.609 268.013 131.534 268.224 131.534C268.434 131.534 268.614 131.609 268.765 131.76C268.915 131.911 268.991 132.091 268.991 132.301C268.991 132.44 268.955 132.568 268.884 132.685C268.816 132.801 268.724 132.895 268.607 132.966C268.494 133.034 268.366 133.068 268.224 133.068Z" fill="white" fill-opacity="0.5"/>
<circle cx="24" cy="149.5" r="1.5" fill="#1A73E8"/>
<circle cx="24" cy="154.5" r="1.5" fill="#1A73E8" fill-opacity="0.89"/>
<circle cx="24" cy="159.5" r="1.5" fill="#1A73E8" fill-opacity="0.6"/>
<circle cx="24" cy="164.5" r="1.5" fill="#1A73E8" fill-opacity="0.4"/>
<circle cx="24" cy="169.5" r="1.5" fill="#1A73E8" fill-opacity="0.2"/>
<circle cx="24" cy="174.5" r="1.5" fill="#1A73E8" fill-opacity="0.1"/>
<rect x="4" y="188" width="40" height="40" rx="20" fill="url(#paint3_linear_1_8139)"/>
<path d="M23.6094 216.219C22.5365 216.219 21.5781 216.034 20.7344 215.664C19.8958 215.294 19.2318 214.781 18.7422 214.125C18.2578 213.464 17.9974 212.698 17.9609 211.828H20.4141C20.4453 212.302 20.6042 212.714 20.8906 213.062C21.1823 213.406 21.5625 213.672 22.0313 213.859C22.5 214.047 23.0208 214.141 23.5938 214.141C24.224 214.141 24.7813 214.031 25.2656 213.812C25.7552 213.594 26.138 213.289 26.4141 212.898C26.6901 212.503 26.8281 212.047 26.8281 211.531C26.8281 210.995 26.6901 210.523 26.4141 210.117C26.1432 209.706 25.7448 209.383 25.2188 209.148C24.6979 208.914 24.0677 208.797 23.3281 208.797H21.9766V206.828H23.3281C23.9219 206.828 24.4427 206.721 24.8906 206.508C25.3438 206.294 25.6979 205.997 25.9531 205.617C26.2083 205.232 26.3359 204.781 26.3359 204.266C26.3359 203.771 26.224 203.341 26 202.977C25.7813 202.607 25.4688 202.318 25.0625 202.109C24.6615 201.901 24.1875 201.797 23.6406 201.797C23.1198 201.797 22.6328 201.893 22.1797 202.086C21.7318 202.273 21.3672 202.544 21.0859 202.898C20.8047 203.247 20.6536 203.667 20.6328 204.156H18.2969C18.3229 203.292 18.5781 202.531 19.0625 201.875C19.5521 201.219 20.1979 200.706 21 200.336C21.8021 199.966 22.6927 199.781 23.6719 199.781C24.6979 199.781 25.5833 199.982 26.3281 200.383C27.0781 200.779 27.6563 201.307 28.0625 201.969C28.474 202.63 28.6771 203.354 28.6719 204.141C28.6771 205.036 28.4271 205.797 27.9219 206.422C27.4219 207.047 26.7552 207.466 25.9219 207.68V207.805C26.9844 207.966 27.8073 208.388 28.3906 209.07C28.9792 209.753 29.2708 210.599 29.2656 211.609C29.2708 212.49 29.026 213.279 28.5312 213.977C28.0417 214.674 27.3724 215.224 26.5234 215.625C25.6745 216.021 24.7031 216.219 23.6094 216.219Z" fill="white" fill-opacity="0.6"/>
<path d="M70.2976 206.045C70.174 205.657 70.0078 205.31 69.799 205.003C69.5945 204.692 69.3494 204.428 69.0639 204.21C68.7784 203.989 68.4524 203.82 68.0859 203.705C67.7237 203.59 67.3253 203.533 66.8906 203.533C66.1534 203.533 65.4886 203.722 64.8963 204.102C64.304 204.481 63.8352 205.037 63.4901 205.77C63.1491 206.499 62.9787 207.391 62.9787 208.448C62.9787 209.509 63.1513 210.406 63.4964 211.139C63.8416 211.872 64.3146 212.428 64.9155 212.808C65.5163 213.187 66.2003 213.376 66.9673 213.376C67.679 213.376 68.299 213.232 68.8274 212.942C69.3601 212.652 69.7713 212.243 70.0611 211.714C70.3551 211.182 70.5021 210.555 70.5021 209.835L71.0135 209.931H67.2678V208.301H72.4134V209.79C72.4134 210.89 72.179 211.844 71.7102 212.654C71.2457 213.46 70.6023 214.082 69.7798 214.521C68.9616 214.96 68.0241 215.179 66.9673 215.179C65.7827 215.179 64.7429 214.906 63.848 214.361C62.9574 213.815 62.2628 213.042 61.7642 212.04C61.2656 211.035 61.0163 209.842 61.0163 208.461C61.0163 207.417 61.1612 206.479 61.451 205.648C61.7408 204.817 62.1477 204.112 62.6719 203.533C63.2003 202.949 63.8203 202.504 64.532 202.197C65.2479 201.886 66.0298 201.73 66.8778 201.73C67.5852 201.73 68.2436 201.835 68.853 202.043C69.4666 202.252 70.0121 202.548 70.4893 202.932C70.9709 203.315 71.3693 203.771 71.6847 204.3C72 204.824 72.2131 205.406 72.3239 206.045H70.2976ZM78.4029 215.198C77.4824 215.198 76.6792 214.987 75.9931 214.565C75.307 214.143 74.7743 213.553 74.3951 212.795C74.0158 212.036 73.8262 211.15 73.8262 210.136C73.8262 209.117 74.0158 208.227 74.3951 207.464C74.7743 206.701 75.307 206.109 75.9931 205.687C76.6792 205.265 77.4824 205.054 78.4029 205.054C79.3233 205.054 80.1266 205.265 80.8127 205.687C81.4988 206.109 82.0314 206.701 82.4107 207.464C82.79 208.227 82.9796 209.117 82.9796 210.136C82.9796 211.15 82.79 212.036 82.4107 212.795C82.0314 213.553 81.4988 214.143 80.8127 214.565C80.1266 214.987 79.3233 215.198 78.4029 215.198ZM78.4093 213.594C79.0059 213.594 79.5002 213.436 79.8922 213.121C80.2843 212.805 80.574 212.386 80.7615 211.862C80.9533 211.337 81.0492 210.76 81.0492 210.129C81.0492 209.503 80.9533 208.928 80.7615 208.403C80.574 207.875 80.2843 207.451 79.8922 207.131C79.5002 206.812 79.0059 206.652 78.4093 206.652C77.8084 206.652 77.3098 206.812 76.9135 207.131C76.5215 207.451 76.2296 207.875 76.0378 208.403C75.8503 208.928 75.7566 209.503 75.7566 210.129C75.7566 210.76 75.8503 211.337 76.0378 211.862C76.2296 212.386 76.5215 212.805 76.9135 213.121C77.3098 213.436 77.8084 213.594 78.4093 213.594ZM89.03 215V201.909H91.0051V213.3H96.937V215H89.03ZM98.5368 215V205.182H100.448V215H98.5368ZM99.502 203.667C99.1696 203.667 98.8841 203.556 98.6454 203.335C98.411 203.109 98.2939 202.84 98.2939 202.529C98.2939 202.214 98.411 201.945 98.6454 201.724C98.8841 201.498 99.1696 201.385 99.502 201.385C99.8343 201.385 100.118 201.498 100.352 201.724C100.591 201.945 100.71 202.214 100.71 202.529C100.71 202.84 100.591 203.109 100.352 203.335C100.118 203.556 99.8343 203.667 99.502 203.667ZM110.918 205.182L107.358 215H105.312L101.746 205.182H103.798L106.284 212.737H106.386L108.866 205.182H110.918ZM116.112 215.198C115.145 215.198 114.312 214.991 113.613 214.578C112.918 214.161 112.381 213.575 112.002 212.82C111.627 212.062 111.439 211.173 111.439 210.155C111.439 209.149 111.627 208.263 112.002 207.496C112.381 206.729 112.91 206.13 113.587 205.7C114.269 205.269 115.066 205.054 115.978 205.054C116.532 205.054 117.069 205.146 117.589 205.329C118.108 205.512 118.575 205.8 118.988 206.192C119.402 206.584 119.728 207.093 119.966 207.719C120.205 208.342 120.324 209.098 120.324 209.989V210.666H112.52V209.234H118.452C118.452 208.732 118.349 208.286 118.145 207.898C117.94 207.506 117.653 207.197 117.282 206.972C116.915 206.746 116.485 206.633 115.991 206.633C115.454 206.633 114.985 206.765 114.584 207.029C114.188 207.289 113.881 207.63 113.664 208.052C113.451 208.469 113.344 208.923 113.344 209.413V210.532C113.344 211.188 113.459 211.746 113.689 212.207C113.924 212.667 114.25 213.018 114.667 213.261C115.085 213.5 115.573 213.619 116.131 213.619C116.493 213.619 116.824 213.568 117.122 213.466C117.42 213.359 117.678 213.202 117.895 212.993C118.113 212.784 118.279 212.526 118.394 212.219L120.203 212.545C120.058 213.078 119.798 213.545 119.423 213.945C119.052 214.342 118.586 214.651 118.023 214.872C117.465 215.089 116.828 215.198 116.112 215.198Z" fill="#F1F1FF" fill-opacity="0.4"/>
<defs>
<linearGradient id="paint0_linear_1_8139" x1="14.0117" y1="23.6201" x2="24.0117" y2="64.1201" gradientUnits="userSpaceOnUse">
<stop stop-color="#63C174" stop-opacity="0.1"/>
<stop offset="1" stop-color="#63C174" stop-opacity="0"/>
</linearGradient>
<linearGradient id="paint1_linear_1_8139" x1="24" y1="93" x2="24" y2="139" gradientUnits="userSpaceOnUse">
<stop stop-color="#1A73E8"/>
<stop offset="0.663" stop-color="#0C1015"/>
<stop offset="1" stop-color="#853BCE"/>
</linearGradient>
<linearGradient id="paint2_linear_1_8139" x1="14.0117" y1="115.62" x2="24.0117" y2="156.12" gradientUnits="userSpaceOnUse">
<stop stop-color="white" stop-opacity="0.1"/>
<stop offset="1" stop-color="#999999" stop-opacity="0"/>
</linearGradient>
<linearGradient id="paint3_linear_1_8139" x1="14.0117" y1="207.62" x2="24.0117" y2="248.12" gradientUnits="userSpaceOnUse">
<stop stop-color="white" stop-opacity="0.1"/>
<stop offset="1" stop-color="#999999" stop-opacity="0"/>
</linearGradient>
</defs>
</svg>
