<svg width="49" height="104" viewBox="0 0 49 104" fill="none" xmlns="http://www.w3.org/2000/svg">
<path d="M21.1363 21.1363L16.9289 16.929M16.9289 31.0711L21.168 26.8321M26.8611 26.8638L31.0684 31.0711M31.0684 16.929L26.8287 21.1686M34 24C34 29.5228 29.5228 34 24 34C18.4772 34 14 29.5228 14 24C14 18.4772 18.4772 14 24 14C29.5228 14 34 18.4772 34 24ZM28 24C28 26.2091 26.2091 28 24 28C21.7909 28 20 26.2091 20 24C20 21.7909 21.7909 20 24 20C26.2091 20 28 21.7909 28 24Z" stroke="#667085" stroke-width="2" stroke-linecap="round" stroke-linejoin="round"/>
<path d="M24 83C25.6569 83 27 81.6569 27 80C27 78.3431 25.6569 77 24 77C22.3431 77 21 78.3431 21 80C21 81.6569 22.3431 83 24 83Z" stroke="#667085" stroke-width="2" stroke-linecap="round" stroke-linejoin="round"/>
<path d="M30.7273 82.7273C30.6063 83.0015 30.5702 83.3056 30.6236 83.6005C30.6771 83.8954 30.8177 84.1676 31.0273 84.3818L31.0818 84.4364C31.2509 84.6052 31.385 84.8057 31.4765 85.0265C31.568 85.2472 31.6151 85.4838 31.6151 85.7227C31.6151 85.9617 31.568 86.1983 31.4765 86.419C31.385 86.6397 31.2509 86.8402 31.0818 87.0091C30.913 87.1781 30.7124 87.3122 30.4917 87.4037C30.271 87.4952 30.0344 87.5423 29.7955 87.5423C29.5565 87.5423 29.3199 87.4952 29.0992 87.4037C28.8785 87.3122 28.678 87.1781 28.5091 87.0091L28.4545 86.9545C28.2403 86.745 27.9682 86.6044 27.6733 86.5509C27.3784 86.4974 27.0742 86.5335 26.8 86.6545C26.5311 86.7698 26.3018 86.9611 26.1403 87.205C25.9788 87.4489 25.8921 87.7347 25.8909 88.0273V88.1818C25.8909 88.664 25.6994 89.1265 25.3584 89.4675C25.0174 89.8084 24.5549 90 24.0727 90C23.5905 90 23.1281 89.8084 22.7871 89.4675C22.4461 89.1265 22.2545 88.664 22.2545 88.1818V88.1C22.2475 87.7991 22.1501 87.5073 21.975 87.2625C21.7999 87.0176 21.5552 86.8312 21.2727 86.7273C20.9985 86.6063 20.6944 86.5702 20.3995 86.6236C20.1046 86.6771 19.8324 86.8177 19.6182 87.0273L19.5636 87.0818C19.3948 87.2509 19.1943 87.385 18.9735 87.4765C18.7528 87.568 18.5162 87.6151 18.2773 87.6151C18.0383 87.6151 17.8017 87.568 17.581 87.4765C17.3603 87.385 17.1598 87.2509 16.9909 87.0818C16.8219 86.913 16.6878 86.7124 16.5963 86.4917C16.5048 86.271 16.4577 86.0344 16.4577 85.7955C16.4577 85.5565 16.5048 85.3199 16.5963 85.0992C16.6878 84.8785 16.8219 84.678 16.9909 84.5091L17.0455 84.4545C17.255 84.2403 17.3956 83.9682 17.4491 83.6733C17.5026 83.3784 17.4665 83.0742 17.3455 82.8C17.2302 82.5311 17.0389 82.3018 16.795 82.1403C16.5511 81.9788 16.2653 81.8921 15.9727 81.8909H15.8182C15.336 81.8909 14.8735 81.6994 14.5325 81.3584C14.1916 81.0174 14 80.5549 14 80.0727C14 79.5905 14.1916 79.1281 14.5325 78.7871C14.8735 78.4461 15.336 78.2545 15.8182 78.2545H15.9C16.2009 78.2475 16.4927 78.1501 16.7375 77.975C16.9824 77.7999 17.1688 77.5552 17.2727 77.2727C17.3937 76.9985 17.4298 76.6944 17.3764 76.3995C17.3229 76.1046 17.1823 75.8324 16.9727 75.6182L16.9182 75.5636C16.7491 75.3948 16.615 75.1943 16.5235 74.9735C16.432 74.7528 16.3849 74.5162 16.3849 74.2773C16.3849 74.0383 16.432 73.8017 16.5235 73.581C16.615 73.3603 16.7491 73.1598 16.9182 72.9909C17.087 72.8219 17.2876 72.6878 17.5083 72.5963C17.729 72.5048 17.9656 72.4577 18.2045 72.4577C18.4435 72.4577 18.6801 72.5048 18.9008 72.5963C19.1215 72.6878 19.322 72.8219 19.4909 72.9909L19.5455 73.0455C19.7597 73.255 20.0318 73.3956 20.3267 73.4491C20.6216 73.5026 20.9258 73.4665 21.2 73.3455H21.2727C21.5416 73.2302 21.7709 73.0389 21.9324 72.795C22.094 72.5511 22.1807 72.2653 22.1818 71.9727V71.8182C22.1818 71.336 22.3734 70.8735 22.7144 70.5325C23.0553 70.1916 23.5178 70 24 70C24.4822 70 24.9447 70.1916 25.2856 70.5325C25.6266 70.8735 25.8182 71.336 25.8182 71.8182V71.9C25.8193 72.1925 25.906 72.4783 26.0676 72.7222C26.2291 72.9661 26.4584 73.1575 26.7273 73.2727C27.0015 73.3937 27.3056 73.4298 27.6005 73.3764C27.8954 73.3229 28.1676 73.1823 28.3818 72.9727L28.4364 72.9182C28.6052 72.7491 28.8057 72.615 29.0265 72.5235C29.2472 72.432 29.4838 72.3849 29.7227 72.3849C29.9617 72.3849 30.1983 72.432 30.419 72.5235C30.6397 72.615 30.8402 72.7491 31.0091 72.9182C31.1781 73.087 31.3122 73.2876 31.4037 73.5083C31.4952 73.729 31.5423 73.9656 31.5423 74.2045C31.5423 74.4435 31.4952 74.6801 31.4037 74.9008C31.3122 75.1215 31.1781 75.322 31.0091 75.4909L30.9545 75.5455C30.745 75.7597 30.6044 76.0318 30.5509 76.3267C30.4974 76.6216 30.5335 76.9258 30.6545 77.2V77.2727C30.7698 77.5416 30.9611 77.7709 31.205 77.9324C31.4489 78.094 31.7347 78.1807 32.0273 78.1818H32.1818C32.664 78.1818 33.1265 78.3734 33.4675 78.7144C33.8084 79.0553 34 79.5178 34 80C34 80.4822 33.8084 80.9447 33.4675 81.2856C33.1265 81.6266 32.664 81.8182 32.1818 81.8182H32.1C31.8075 81.8193 31.5217 81.906 31.2778 82.0676C31.0339 82.2291 30.8425 82.4584 30.7273 82.7273Z" stroke="#667085" stroke-width="2" stroke-linecap="round" stroke-linejoin="round"/>
</svg>
