<svg width="58" height="58" viewBox="0 0 58 58" fill="none" xmlns="http://www.w3.org/2000/svg">
<rect x="0.5" y="0.5" width="57" height="57" rx="28.5" fill="#63497D" fill-opacity="0.22"/>
<rect x="0.5" y="0.5" width="57" height="57" rx="28.5" stroke="#853BCE"/>
<path d="M29 11.5C26.6362 11.5 24.2956 11.9639 22.1117 12.8652C19.9278 13.7665 17.9435 15.0875 16.2721 16.7529C12.8964 20.1163 11 24.678 11 29.4345C11 37.3615 16.166 44.0869 23.312 46.4722C24.212 46.6157 24.5 46.0597 24.5 45.5755V42.5446C19.514 43.6206 18.452 40.1413 18.452 40.1413C17.624 38.061 16.454 37.505 16.454 37.505C14.816 36.393 16.58 36.4289 16.58 36.4289C18.38 36.5545 19.334 38.2762 19.334 38.2762C20.9 41.0022 23.546 40.1952 24.572 39.7647C24.734 38.599 25.202 37.8099 25.706 37.3615C21.71 36.9131 17.516 35.3708 17.516 28.5377C17.516 26.547 18.2 24.9509 19.37 23.6775C19.19 23.2291 18.56 21.364 19.55 18.9428C19.55 18.9428 21.062 18.4586 24.5 20.7721C25.922 20.3776 27.47 20.1803 29 20.1803C30.53 20.1803 32.078 20.3776 33.5 20.7721C36.938 18.4586 38.45 18.9428 38.45 18.9428C39.44 21.364 38.81 23.2291 38.63 23.6775C39.8 24.9509 40.484 26.547 40.484 28.5377C40.484 35.3887 36.272 36.8952 32.258 37.3436C32.906 37.8995 33.5 38.9935 33.5 40.6615V45.5755C33.5 46.0597 33.788 46.6336 34.706 46.4722C41.852 44.069 47 37.3615 47 29.4345C47 27.0793 46.5344 24.7472 45.6298 22.5712C44.7252 20.3953 43.3994 18.4183 41.7279 16.7529C40.0565 15.0875 38.0722 13.7665 35.8883 12.8652C33.7044 11.9639 31.3638 11.5 29 11.5Z" fill="#853BCE"/>
</svg>
