<svg width="81" height="328" viewBox="0 0 81 328" fill="none" xmlns="http://www.w3.org/2000/svg">
<rect x="16" width="48" height="48" rx="6" fill="#0C1015"/>
<path d="M36 29H44M39.0177 14.764L32.2354 20.0391C31.782 20.3918 31.5553 20.5681 31.392 20.7889C31.2474 20.9845 31.1396 21.2048 31.074 21.4391C31 21.7035 31 21.9907 31 22.5651V29.8C31 30.9201 31 31.4802 31.218 31.908C31.4097 32.2843 31.7157 32.5903 32.092 32.782C32.5198 33 33.0799 33 34.2 33H45.8C46.9201 33 47.4802 33 47.908 32.782C48.2843 32.5903 48.5903 32.2843 48.782 31.908C49 31.4802 49 30.9201 49 29.8V22.5651C49 21.9907 49 21.7035 48.926 21.4391C48.8604 21.2048 48.7526 20.9845 48.608 20.7889C48.4447 20.5681 48.218 20.3918 47.7646 20.0391L40.9823 14.764C40.631 14.4908 40.4553 14.3541 40.2613 14.3016C40.0902 14.2553 39.9098 14.2553 39.7387 14.3016C39.5447 14.3541 39.369 14.4908 39.0177 14.764Z" stroke="white" stroke-width="2" stroke-linecap="round" stroke-linejoin="round"/>
<path d="M36 83V85M40 79V85M44 75V85M35.8 89H44.2C45.8802 89 46.7202 89 47.362 88.673C47.9265 88.3854 48.3854 87.9265 48.673 87.362C49 86.7202 49 85.8802 49 84.2V75.8C49 74.1198 49 73.2798 48.673 72.638C48.3854 72.0735 47.9265 71.6146 47.362 71.327C46.7202 71 45.8802 71 44.2 71H35.8C34.1198 71 33.2798 71 32.638 71.327C32.0735 71.6146 31.6146 72.0735 31.327 72.638C31 73.2798 31 74.1198 31 75.8V84.2C31 85.8802 31 86.7202 31.327 87.362C31.6146 87.9265 32.0735 88.3854 32.638 88.673C33.2798 89 34.1198 89 35.8 89Z" stroke="#A1A1AA" stroke-width="2" stroke-linecap="round" stroke-linejoin="round"/>
<path d="M30 136L39.6422 140.821C39.7734 140.887 39.839 140.919 39.9078 140.932C39.9687 140.944 40.0313 140.944 40.0922 140.932C40.161 140.919 40.2266 140.887 40.3578 140.821L50 136M30 141L39.6422 145.821C39.7734 145.887 39.839 145.919 39.9078 145.932C39.9687 145.944 40.0313 145.944 40.0922 145.932C40.161 145.919 40.2266 145.887 40.3578 145.821L50 141M30 131L39.6422 126.179C39.7734 126.113 39.839 126.08 39.9078 126.068C39.9687 126.056 40.0313 126.056 40.0922 126.068C40.161 126.08 40.2266 126.113 40.3578 126.179L50 131L40.3578 135.821C40.2266 135.887 40.161 135.919 40.0922 135.932C40.0313 135.944 39.9687 135.944 39.9078 135.932C39.839 135.919 39.7734 135.887 39.6422 135.821L30 131Z" stroke="#A1A1AA" stroke-width="2" stroke-linecap="round" stroke-linejoin="round"/>
<path d="M34 195L36 197L40.5 192.5M36 188V185.2C36 184.08 36 183.52 36.218 183.092C36.4097 182.716 36.7157 182.41 37.092 182.218C37.5198 182 38.0799 182 39.2 182H46.8C47.9201 182 48.4802 182 48.908 182.218C49.2843 182.41 49.5903 182.716 49.782 183.092C50 183.52 50 184.08 50 185.2V192.8C50 193.92 50 194.48 49.782 194.908C49.5903 195.284 49.2843 195.59 48.908 195.782C48.4802 196 47.9201 196 46.8 196H44M33.2 202H40.8C41.9201 202 42.4802 202 42.908 201.782C43.2843 201.59 43.5903 201.284 43.782 200.908C44 200.48 44 199.92 44 198.8V191.2C44 190.08 44 189.52 43.782 189.092C43.5903 188.716 43.2843 188.41 42.908 188.218C42.4802 188 41.9201 188 40.8 188H33.2C32.0799 188 31.5198 188 31.092 188.218C30.7157 188.41 30.4097 188.716 30.218 189.092C30 189.52 30 190.08 30 191.2V198.8C30 199.92 30 200.48 30.218 200.908C30.4097 201.284 30.7157 201.59 31.092 201.782C31.5198 202 32.0799 202 33.2 202Z" stroke="#A1A1AA" stroke-width="2" stroke-linecap="round" stroke-linejoin="round"/>
<path d="M40 238C41.3132 238 42.6136 238.259 43.8268 238.761C45.0401 239.264 46.1425 240 47.0711 240.929C47.9997 241.858 48.7363 242.96 49.2388 244.173C49.7413 245.386 50 246.687 50 248M40 238V248M40 238C34.4772 238 30 242.477 30 248C30 253.523 34.4772 258 40 258C45.5228 258 50 253.523 50 248M40 238C45.5228 238 50 242.477 50 248M50 248L40 248M50 248C50 249.578 49.6265 251.134 48.9101 252.54C48.1936 253.946 47.1546 255.163 45.8779 256.09L40 248" stroke="#A1A1AA" stroke-width="2" stroke-linecap="round" stroke-linejoin="round"/>
<path d="M50 313V311C50 309.136 48.7252 307.57 47 307.126M43.5 295.291C44.9659 295.884 46 297.321 46 299C46 300.679 44.9659 302.116 43.5 302.709M45 313C45 311.136 45 310.204 44.6955 309.469C44.2895 308.489 43.5108 307.71 42.5307 307.304C41.7956 307 40.8638 307 39 307H36C34.1362 307 33.2044 307 32.4693 307.304C31.4892 307.71 30.7105 308.489 30.3045 309.469C30 310.204 30 311.136 30 313M41.5 299C41.5 301.209 39.7091 303 37.5 303C35.2909 303 33.5 301.209 33.5 299C33.5 296.791 35.2909 295 37.5 295C39.7091 295 41.5 296.791 41.5 299Z" stroke="#A1A1AA" stroke-width="2" stroke-linecap="round" stroke-linejoin="round"/>
</svg>
