<svg width="246" height="129" viewBox="0 0 246 129" fill="none" xmlns="http://www.w3.org/2000/svg">
<rect x="0.5" y="0.5" width="244.32" height="127.2" rx="5.5" stroke="#1A73E8"/>
<rect x="17.5" y="17.5" width="48" height="23" rx="5.5" fill="#3C1403"/>
<rect x="17.5" y="17.5" width="48" height="23" rx="5.5" stroke="#962D00"/>
<path d="M25.9588 24.2727H27.5568L30.3352 31.0568H30.4375L33.2159 24.2727H34.8139V33H33.5611V26.6847H33.4801L30.9062 32.9872H29.8665L27.2926 26.6804H27.2116V33H25.9588V24.2727ZM36.6261 33V26.4545H37.9002V33H36.6261ZM37.2695 25.4446C37.0479 25.4446 36.8576 25.3707 36.6985 25.223C36.5423 25.0724 36.4641 24.8935 36.4641 24.6861C36.4641 24.4759 36.5423 24.2969 36.6985 24.1491C36.8576 23.9986 37.0479 23.9233 37.2695 23.9233C37.4911 23.9233 37.68 23.9986 37.8363 24.1491C37.9954 24.2969 38.0749 24.4759 38.0749 24.6861C38.0749 24.8935 37.9954 25.0724 37.8363 25.223C37.68 25.3707 37.4911 25.4446 37.2695 25.4446ZM42.3714 33.1321C41.7379 33.1321 41.1925 32.9886 40.7351 32.7017C40.2805 32.4119 39.9311 32.0128 39.6868 31.5043C39.4425 30.9957 39.3203 30.4134 39.3203 29.7571C39.3203 29.0923 39.4453 28.5057 39.6953 27.9972C39.9453 27.4858 40.2976 27.0866 40.7521 26.7997C41.2067 26.5128 41.7422 26.3693 42.3587 26.3693C42.8558 26.3693 43.299 26.4616 43.6882 26.6463C44.0774 26.8281 44.3913 27.0838 44.63 27.4134C44.8714 27.7429 45.0149 28.1278 45.0604 28.5682H43.8203C43.7521 28.2614 43.5959 27.9972 43.3516 27.7756C43.1101 27.554 42.7862 27.4432 42.38 27.4432C42.0249 27.4432 41.7138 27.5369 41.4467 27.7244C41.1825 27.9091 40.9766 28.1733 40.8288 28.517C40.6811 28.858 40.6072 29.2614 40.6072 29.7273C40.6072 30.2045 40.6797 30.6165 40.8246 30.9631C40.9695 31.3097 41.174 31.5781 41.4382 31.7685C41.7053 31.9588 42.0192 32.054 42.38 32.054C42.6214 32.054 42.8402 32.0099 43.0362 31.9219C43.2351 31.831 43.4013 31.7017 43.5348 31.5341C43.6712 31.3665 43.7663 31.1648 43.8203 30.929H45.0604C45.0149 31.3523 44.8771 31.7301 44.647 32.0625C44.4169 32.3949 44.1087 32.6562 43.7223 32.8466C43.3388 33.0369 42.8885 33.1321 42.3714 33.1321ZM46.4229 33V26.4545H47.6545V27.4943H47.7227C47.842 27.142 48.0522 26.8651 48.3533 26.6634C48.6573 26.4588 49.0011 26.3565 49.3846 26.3565C49.4641 26.3565 49.5579 26.3594 49.6658 26.3651C49.7766 26.3707 49.8633 26.3778 49.9258 26.3864V27.6051C49.8746 27.5909 49.7837 27.5753 49.6531 27.5582C49.5224 27.5384 49.3917 27.5284 49.261 27.5284C48.9599 27.5284 48.6914 27.5923 48.4556 27.7202C48.2227 27.8452 48.038 28.0199 47.9016 28.2443C47.7653 28.4659 47.6971 28.7187 47.6971 29.0028V33H46.4229ZM53.5511 33.1321C52.9375 33.1321 52.402 32.9915 51.9446 32.7102C51.4872 32.429 51.1321 32.0355 50.8793 31.5298C50.6264 31.0241 50.5 30.4332 50.5 29.7571C50.5 29.0781 50.6264 28.4844 50.8793 27.9759C51.1321 27.4673 51.4872 27.0724 51.9446 26.7912C52.402 26.5099 52.9375 26.3693 53.5511 26.3693C54.1648 26.3693 54.7003 26.5099 55.1577 26.7912C55.6151 27.0724 55.9702 27.4673 56.223 27.9759C56.4759 28.4844 56.6023 29.0781 56.6023 29.7571C56.6023 30.4332 56.4759 31.0241 56.223 31.5298C55.9702 32.0355 55.6151 32.429 55.1577 32.7102C54.7003 32.9915 54.1648 33.1321 53.5511 33.1321ZM53.5554 32.0625C53.9531 32.0625 54.2827 31.9574 54.544 31.7472C54.8054 31.5369 54.9986 31.2571 55.1236 30.9077C55.2514 30.5582 55.3153 30.1733 55.3153 29.7528C55.3153 29.3352 55.2514 28.9517 55.1236 28.6023C54.9986 28.25 54.8054 27.9673 54.544 27.7543C54.2827 27.5412 53.9531 27.4347 53.5554 27.4347C53.1548 27.4347 52.8224 27.5412 52.5582 27.7543C52.2969 27.9673 52.1023 28.25 51.9744 28.6023C51.8494 28.9517 51.7869 29.3352 51.7869 29.7528C51.7869 30.1733 51.8494 30.5582 51.9744 30.9077C52.1023 31.2571 52.2969 31.5369 52.5582 31.7472C52.8224 31.9574 53.1548 32.0625 53.5554 32.0625Z" fill="#FC9C66"/>
<path d="M21.4343 49.7181V59.8999H20.2013V51.0107H20.1417L17.6559 52.6613V51.4084L20.2013 49.7181H21.4343ZM34.5643 52.2635L31.7404 59.8999H30.5472L27.7234 52.2635H28.9961L31.104 58.3488H31.1836L33.2915 52.2635H34.5643ZM44.4652 52.8999H43.2322C43.1593 52.5453 43.0317 52.2337 42.8494 51.9652C42.6705 51.6968 42.4517 51.4714 42.1932 51.2891C41.938 51.1035 41.6546 50.9643 41.343 50.8715C41.0315 50.7787 40.7067 50.7323 40.3686 50.7323C39.7521 50.7323 39.1937 50.8881 38.6932 51.1996C38.196 51.5112 37.8 51.9702 37.505 52.5767C37.2133 53.1833 37.0675 53.9274 37.0675 54.809C37.0675 55.6906 37.2133 56.4347 37.505 57.0412C37.8 57.6478 38.196 58.1068 38.6932 58.4184C39.1937 58.7299 39.7521 58.8857 40.3686 58.8857C40.7067 58.8857 41.0315 58.8393 41.343 58.7465C41.6546 58.6537 41.938 58.5161 42.1932 58.3339C42.4517 58.1482 42.6705 57.9212 42.8494 57.6527C43.0317 57.381 43.1593 57.0694 43.2322 56.7181H44.4652C44.3724 57.2384 44.2034 57.7041 43.9581 58.1151C43.7128 58.5261 43.4079 58.8758 43.0433 59.1641C42.6787 59.4491 42.2694 59.6662 41.8153 59.8154C41.3646 59.9645 40.8823 60.0391 40.3686 60.0391C39.5002 60.0391 38.728 59.827 38.0518 59.4027C37.3757 58.9785 36.8438 58.3753 36.456 57.5931C36.0682 56.8109 35.8743 55.8829 35.8743 54.809C35.8743 53.7351 36.0682 52.8071 36.456 52.0249C36.8438 51.2427 37.3757 50.6395 38.0518 50.2152C38.728 49.791 39.5002 49.5789 40.3686 49.5789C40.8823 49.5789 41.3646 49.6535 41.8153 49.8026C42.2694 49.9517 42.6787 50.1705 43.0433 50.4589C43.4079 50.7439 43.7128 51.0919 43.9581 51.5029C44.2034 51.9106 44.3724 52.3762 44.4652 52.8999ZM46.4576 59.8999V49.7181H49.8979C50.6967 49.7181 51.3496 49.8623 51.8567 50.1506C52.3671 50.4357 52.745 50.8218 52.9902 51.309C53.2355 51.7962 53.3581 52.3398 53.3581 52.9397C53.3581 53.5396 53.2355 54.0848 52.9902 54.5753C52.7483 55.0659 52.3738 55.457 51.8667 55.7486C51.3596 56.037 50.7099 56.1812 49.9178 56.1812H47.4519V55.0874H49.878C50.4249 55.0874 50.8641 54.9929 51.1955 54.804C51.5269 54.6151 51.7672 54.3599 51.9164 54.0384C52.0688 53.7136 52.1451 53.3473 52.1451 52.9397C52.1451 52.532 52.0688 52.1674 51.9164 51.8459C51.7672 51.5244 51.5253 51.2725 51.1905 51.0902C50.8558 50.9046 50.4116 50.8118 49.8581 50.8118H47.6905V59.8999H46.4576ZM62.0261 49.7181H63.2591V56.4596C63.2591 57.1556 63.095 57.777 62.7669 58.3239C62.4421 58.8675 61.983 59.2967 61.3897 59.6116C60.7965 59.9231 60.1004 60.0789 59.3017 60.0789C58.5029 60.0789 57.8069 59.9231 57.2136 59.6116C56.6203 59.2967 56.1596 58.8675 55.8315 58.3239C55.5067 57.777 55.3443 57.1556 55.3443 56.4596V49.7181H56.5772V56.3601C56.5772 56.8573 56.6866 57.2998 56.9054 57.6875C57.1241 58.072 57.4357 58.3753 57.84 58.5973C58.2477 58.8161 58.7349 58.9255 59.3017 58.9255C59.8684 58.9255 60.3556 58.8161 60.7633 58.5973C61.171 58.3753 61.4825 58.072 61.698 57.6875C61.9167 57.2998 62.0261 56.8573 62.0261 56.3601V49.7181Z" fill="#A1A1A1"/>
<path d="M21.4343 70.7181V80.8999H20.2013V72.0107H20.1417L17.6559 73.6613V72.4084L20.2013 70.7181H21.4343ZM35.4393 73.8999C35.3299 73.5651 35.1857 73.2652 35.0067 73C34.8311 72.7316 34.6206 72.5029 34.3754 72.314C34.1334 72.125 33.8583 71.9809 33.5501 71.8814C33.2418 71.782 32.9038 71.7323 32.5359 71.7323C31.9326 71.7323 31.3841 71.8881 30.8903 72.1996C30.3964 72.5112 30.0037 72.9702 29.712 73.5767C29.4203 74.1833 29.2745 74.9274 29.2745 75.809C29.2745 76.6906 29.422 77.4347 29.717 78.0412C30.012 78.6478 30.4113 79.1068 30.9151 79.4184C31.4189 79.7299 31.9857 79.8857 32.6154 79.8857C33.1987 79.8857 33.7125 79.7614 34.1566 79.5128C34.604 79.2609 34.9521 78.9063 35.2006 78.4489C35.4525 77.9882 35.5785 77.4463 35.5785 76.8232L35.9563 76.9027H32.8938V75.809H36.7717V76.9027C36.7717 77.7413 36.5927 78.4705 36.2347 79.0902C35.8801 79.71 35.3896 80.1906 34.7631 80.532C34.14 80.8701 33.4241 81.0391 32.6154 81.0391C31.7139 81.0391 30.9218 80.827 30.239 80.4027C29.5595 79.9785 29.0292 79.3753 28.6481 78.5931C28.2702 77.8109 28.0813 76.8829 28.0813 75.809C28.0813 75.0036 28.189 74.2794 28.4045 73.6364C28.6232 72.9901 28.9315 72.4399 29.3292 71.9858C29.7269 71.5318 30.1976 71.1838 30.7411 70.9418C31.2847 70.6999 31.8829 70.5789 32.5359 70.5789C33.0728 70.5789 33.5733 70.6601 34.0373 70.8225C34.5046 70.9816 34.9206 71.2086 35.2852 71.5036C35.6531 71.7953 35.9596 72.1449 36.2049 72.5526C36.4502 72.957 36.6192 73.4061 36.712 73.8999H35.4393ZM38.8833 80.8999V70.7181H42.443C43.1523 70.7181 43.7373 70.8407 44.198 71.086C44.6587 71.3279 45.0017 71.6544 45.2271 72.0654C45.4525 72.4731 45.5652 72.9255 45.5652 73.4226C45.5652 73.8601 45.4873 74.2214 45.3315 74.5064C45.179 74.7915 44.9769 75.0169 44.725 75.1826C44.4764 75.3483 44.2063 75.4709 43.9146 75.5505V75.6499C44.2261 75.6698 44.5394 75.7792 44.8542 75.978C45.1691 76.1769 45.4326 76.4619 45.6447 76.8331C45.8568 77.2044 45.9629 77.6584 45.9629 78.1954C45.9629 78.7058 45.8469 79.1648 45.6149 79.5725C45.3829 79.9802 45.0166 80.3033 44.5162 80.5419C44.0157 80.7806 43.3644 80.8999 42.5623 80.8999H38.8833ZM40.1163 79.8062H42.5623C43.3677 79.8062 43.9395 79.6504 44.2775 79.3388C44.6189 79.024 44.7896 78.6428 44.7896 78.1954C44.7896 77.8507 44.7018 77.5325 44.5261 77.2408C44.3504 76.9458 44.1002 76.7105 43.7754 76.5348C43.4506 76.3559 43.0661 76.2664 42.622 76.2664H40.1163V79.8062ZM40.1163 75.1925H42.4032C42.7744 75.1925 43.1092 75.1196 43.4075 74.9738C43.7091 74.8279 43.9477 74.6224 44.1234 74.3573C44.3024 74.0921 44.3919 73.7806 44.3919 73.4226C44.3919 72.9752 44.2361 72.5957 43.9245 72.2841C43.613 71.9693 43.1191 71.8118 42.443 71.8118H40.1163V75.1925ZM51.9263 80.8999V70.7181H55.3667C56.1621 70.7181 56.815 70.854 57.3255 71.1258C57.8359 71.3942 58.2137 71.7638 58.459 72.2344C58.7042 72.7051 58.8269 73.2403 58.8269 73.8402C58.8269 74.4401 58.7042 74.9721 58.459 75.4361C58.2137 75.9001 57.8375 76.2647 57.3304 76.5299C56.8233 76.7917 56.1754 76.9226 55.3865 76.9226H52.6025V75.809H55.3468C55.8903 75.809 56.3278 75.7294 56.6593 75.5704C56.994 75.4113 57.236 75.1859 57.3851 74.8942C57.5376 74.5992 57.6138 74.2479 57.6138 73.8402C57.6138 73.4326 57.5376 73.0763 57.3851 72.7714C57.2327 72.4664 56.9891 72.2311 56.6543 72.0654C56.3195 71.8964 55.8771 71.8118 55.3269 71.8118H53.1593V80.8999H51.9263ZM56.7189 76.326L59.2246 80.8999H57.7928L55.3269 76.326H56.7189ZM61.299 80.8999H60.0064L63.745 70.7181H65.0178L68.7564 80.8999H67.4638L64.4212 72.3289H64.3416L61.299 80.8999ZM61.7763 76.9226H66.9865V78.0164H61.7763V76.9226ZM70.3423 70.7181H71.8139L75.2741 79.1698H75.3935L78.8537 70.7181H80.3253V80.8999H79.1719V73.1641H79.0724L75.8906 80.8999H74.777L71.5952 73.1641H71.4957V80.8999H70.3423V70.7181Z" fill="#A1A1A1"/>
<path d="M21.1861 107.273V94.5455H22.0014V107.273H21.1861ZM23.5376 98.6172C23.4912 98.183 23.2957 97.8449 22.951 97.603C22.6096 97.361 22.1655 97.2401 21.6186 97.2401C21.2341 97.2401 20.9044 97.2981 20.6293 97.4141C20.3542 97.5301 20.1437 97.6875 19.9979 97.8864C19.852 98.0852 19.7775 98.3123 19.7741 98.5675C19.7741 98.7796 19.8222 98.9635 19.9183 99.1193C20.0178 99.2751 20.152 99.4077 20.321 99.517C20.4901 99.6231 20.6773 99.7126 20.8828 99.7855C21.0883 99.8584 21.2955 99.9197 21.5043 99.9695L22.4588 100.208C22.8433 100.298 23.2128 100.419 23.5675 100.571C23.9254 100.723 24.2453 100.916 24.527 101.148C24.812 101.38 25.0374 101.66 25.2031 101.988C25.3688 102.316 25.4517 102.701 25.4517 103.141C25.4517 103.738 25.2992 104.263 24.9943 104.717C24.6894 105.168 24.2486 105.521 23.6719 105.776C23.0985 106.028 22.4041 106.154 21.5888 106.154C20.7966 106.154 20.1089 106.031 19.5256 105.786C18.9455 105.541 18.4915 105.183 18.1634 104.712C17.8385 104.242 17.6629 103.668 17.6364 102.992H19.451C19.4775 103.347 19.5869 103.642 19.7791 103.877C19.9714 104.112 20.2216 104.288 20.5298 104.404C20.8414 104.52 21.1894 104.578 21.5739 104.578C21.9749 104.578 22.3262 104.518 22.6278 104.399C22.9328 104.277 23.1714 104.107 23.3438 103.892C23.5161 103.673 23.6039 103.418 23.6072 103.126C23.6039 102.861 23.526 102.643 23.3736 102.47C23.2211 102.295 23.0073 102.149 22.7322 102.033C22.4605 101.913 22.1423 101.807 21.7777 101.714L20.6193 101.416C19.7808 101.201 19.1179 100.874 18.6307 100.437C18.1468 99.996 17.9048 99.411 17.9048 98.6818C17.9048 98.0819 18.0672 97.5566 18.392 97.1058C18.7202 96.6551 19.166 96.3054 19.7294 96.0568C20.2929 95.8049 20.9309 95.679 21.6435 95.679C22.366 95.679 22.9991 95.8049 23.5426 96.0568C24.0895 96.3054 24.5187 96.6518 24.8303 97.0959C25.1418 97.5367 25.3026 98.0438 25.3125 98.6172H23.5376ZM30.7601 106.194C29.9415 106.194 29.2388 105.987 28.6522 105.572C28.0688 105.155 27.6197 104.553 27.3049 103.768C26.9933 102.979 26.8375 102.029 26.8375 100.919C26.8408 99.8087 26.9983 98.8641 27.3098 98.0852C27.6247 97.303 28.0738 96.7064 28.6571 96.2955C29.2438 95.8845 29.9448 95.679 30.7601 95.679C31.5755 95.679 32.2765 95.8845 32.8631 96.2955C33.4498 96.7064 33.8989 97.303 34.2104 98.0852C34.5253 98.8674 34.6827 99.812 34.6827 100.919C34.6827 102.033 34.5253 102.984 34.2104 103.773C33.8989 104.558 33.4498 105.158 32.8631 105.572C32.2798 105.987 31.5788 106.194 30.7601 106.194ZM30.7601 104.638C31.3965 104.638 31.8986 104.325 32.2665 103.698C32.6377 103.068 32.8233 102.142 32.8233 100.919C32.8233 100.11 32.7388 99.4309 32.5698 98.8807C32.4007 98.3305 32.1621 97.9162 31.8539 97.6378C31.5456 97.3561 31.181 97.2152 30.7601 97.2152C30.1271 97.2152 29.6266 97.5301 29.2587 98.1598C28.8908 98.7862 28.7052 99.706 28.7019 100.919C28.6986 101.731 28.7798 102.414 28.9455 102.967C29.1145 103.521 29.3532 103.938 29.6614 104.22C29.9696 104.499 30.3359 104.638 30.7601 104.638ZM37.0666 106.109C36.765 106.109 36.5065 106.003 36.291 105.791C36.0756 105.579 35.9695 105.321 35.9728 105.016C35.9695 104.717 36.0756 104.462 36.291 104.25C36.5065 104.038 36.765 103.932 37.0666 103.932C37.3583 103.932 37.6118 104.038 37.8272 104.25C38.046 104.462 38.157 104.717 38.1603 105.016C38.157 105.218 38.104 105.402 38.0012 105.567C37.9018 105.733 37.7692 105.866 37.6035 105.965C37.4411 106.061 37.2621 106.109 37.0666 106.109ZM43.3656 106.194C42.5469 106.194 41.8443 105.987 41.2576 105.572C40.6743 105.155 40.2252 104.553 39.9103 103.768C39.5988 102.979 39.443 102.029 39.443 100.919C39.4463 99.8087 39.6038 98.8641 39.9153 98.0852C40.2302 97.303 40.6793 96.7064 41.2626 96.2955C41.8493 95.8845 42.5502 95.679 43.3656 95.679C44.1809 95.679 44.8819 95.8845 45.4686 96.2955C46.0552 96.7064 46.5043 97.303 46.8159 98.0852C47.1307 98.8674 47.2882 99.812 47.2882 100.919C47.2882 102.033 47.1307 102.984 46.8159 103.773C46.5043 104.558 46.0552 105.158 45.4686 105.572C44.8852 105.987 44.1842 106.194 43.3656 106.194ZM43.3656 104.638C44.002 104.638 44.5041 104.325 44.872 103.698C45.2432 103.068 45.4288 102.142 45.4288 100.919C45.4288 100.11 45.3443 99.4309 45.1752 98.8807C45.0062 98.3305 44.7676 97.9162 44.4593 97.6378C44.1511 97.3561 43.7865 97.2152 43.3656 97.2152C42.7325 97.2152 42.2321 97.5301 41.8642 98.1598C41.4963 98.7862 41.3107 99.706 41.3074 100.919C41.304 101.731 41.3852 102.414 41.551 102.967C41.72 103.521 41.9586 103.938 42.2669 104.22C42.5751 104.499 42.9413 104.638 43.3656 104.638ZM48.94 106V104.668L52.4748 101.202C52.8129 100.861 53.0946 100.558 53.32 100.293C53.5453 100.027 53.7144 99.7706 53.8271 99.522C53.9397 99.2734 53.9961 99.0083 53.9961 98.7266C53.9961 98.4051 53.9232 98.13 53.7773 97.9013C53.6315 97.6693 53.431 97.4903 53.1758 97.3643C52.9206 97.2384 52.6306 97.1754 52.3058 97.1754C51.971 97.1754 51.6777 97.245 51.4258 97.3842C51.1739 97.5201 50.9783 97.714 50.8391 97.9659C50.7032 98.2178 50.6353 98.5178 50.6353 98.8658H48.8803C48.8803 98.2195 49.0278 97.6577 49.3228 97.1804C49.6178 96.7031 50.0238 96.3336 50.5408 96.0717C51.0612 95.8099 51.6578 95.679 52.3306 95.679C53.0134 95.679 53.6133 95.8066 54.1303 96.0618C54.6474 96.317 55.0484 96.6667 55.3335 97.1108C55.6218 97.5549 55.766 98.062 55.766 98.6321C55.766 99.0133 55.6931 99.3878 55.5472 99.7557C55.4014 100.124 55.1445 100.531 54.7766 100.979C54.4121 101.426 53.9 101.968 53.2404 102.604L51.4854 104.389V104.459H55.9201V106H48.94ZM58.0082 106L62.3384 97.429V97.3594H57.3121V95.8182H64.2475V97.3942L59.9222 106H58.0082ZM66.4984 106L70.8287 97.429V97.3594H65.8024V95.8182H72.7377V97.3942L68.4125 106H66.4984ZM74.9886 106L79.3189 97.429V97.3594H74.2926V95.8182H81.228V97.3942L76.9027 106H74.9886ZM83.4789 106L87.8091 97.429V97.3594H82.7828V95.8182H89.7182V97.3942L85.3929 106H83.4789Z" fill="#27B648"/>
<path d="M98.5639 95.3409L95.2827 107.531H94.2088L97.4901 95.3409H98.5639ZM105.066 101.406V106H103.892V95.8182H105.066V99.5568H105.165C105.344 99.1624 105.612 98.8492 105.97 98.6172C106.332 98.3819 106.812 98.2642 107.412 98.2642C107.932 98.2642 108.388 98.3686 108.779 98.5774C109.17 98.7829 109.474 99.0994 109.689 99.527C109.908 99.9512 110.017 100.491 110.017 101.148V106H108.844V101.227C108.844 100.621 108.686 100.152 108.372 99.8203C108.06 99.4856 107.628 99.3182 107.074 99.3182C106.69 99.3182 106.345 99.3994 106.04 99.5618C105.738 99.7242 105.5 99.9612 105.324 100.273C105.152 100.584 105.066 100.962 105.066 101.406ZM115.266 106.159C114.577 106.159 113.972 105.995 113.451 105.667C112.934 105.339 112.53 104.88 112.238 104.29C111.95 103.7 111.806 103.01 111.806 102.222C111.806 101.426 111.95 100.732 112.238 100.138C112.53 99.5452 112.934 99.0845 113.451 98.7564C113.972 98.4283 114.577 98.2642 115.266 98.2642C115.955 98.2642 116.559 98.4283 117.076 98.7564C117.596 99.0845 118 99.5452 118.289 100.138C118.58 100.732 118.726 101.426 118.726 102.222C118.726 103.01 118.58 103.7 118.289 104.29C118 104.88 117.596 105.339 117.076 105.667C116.559 105.995 115.955 106.159 115.266 106.159ZM115.266 105.105C115.79 105.105 116.221 104.971 116.559 104.702C116.897 104.434 117.147 104.081 117.309 103.643C117.472 103.206 117.553 102.732 117.553 102.222C117.553 101.711 117.472 101.236 117.309 100.795C117.147 100.354 116.897 99.9976 116.559 99.7259C116.221 99.4541 115.79 99.3182 115.266 99.3182C114.742 99.3182 114.311 99.4541 113.973 99.7259C113.635 99.9976 113.385 100.354 113.223 100.795C113.06 101.236 112.979 101.711 112.979 102.222C112.979 102.732 113.06 103.206 113.223 103.643C113.385 104.081 113.635 104.434 113.973 104.702C114.311 104.971 114.742 105.105 115.266 105.105ZM125.33 102.878V98.3636H126.503V106H125.33V104.707H125.25C125.071 105.095 124.793 105.425 124.415 105.697C124.037 105.965 123.56 106.099 122.983 106.099C122.506 106.099 122.082 105.995 121.71 105.786C121.339 105.574 121.048 105.256 120.835 104.832C120.623 104.404 120.517 103.866 120.517 103.216V98.3636H121.691V103.136C121.691 103.693 121.846 104.137 122.158 104.469C122.473 104.8 122.874 104.966 123.361 104.966C123.653 104.966 123.949 104.891 124.251 104.742C124.556 104.593 124.811 104.364 125.017 104.056C125.225 103.748 125.33 103.355 125.33 102.878ZM128.652 106V98.3636H129.786V99.517H129.865C130.004 99.1392 130.256 98.8326 130.621 98.5973C130.985 98.362 131.396 98.2443 131.854 98.2443C131.94 98.2443 132.048 98.246 132.177 98.2493C132.306 98.2526 132.404 98.2576 132.47 98.2642V99.4574C132.43 99.4474 132.339 99.4325 132.197 99.4126C132.058 99.3894 131.91 99.3778 131.754 99.3778C131.383 99.3778 131.052 99.4557 130.76 99.6115C130.472 99.764 130.243 99.9761 130.074 100.248C129.908 100.516 129.825 100.823 129.825 101.168V106H128.652ZM139.27 100.074L138.216 100.372C138.15 100.196 138.052 100.026 137.923 99.8601C137.797 99.6911 137.624 99.5518 137.406 99.4425C137.187 99.3331 136.907 99.2784 136.566 99.2784C136.098 99.2784 135.709 99.3861 135.397 99.6016C135.089 99.8137 134.935 100.084 134.935 100.412C134.935 100.704 135.041 100.934 135.253 101.103C135.465 101.272 135.797 101.413 136.247 101.526L137.381 101.804C138.064 101.97 138.572 102.223 138.907 102.565C139.242 102.903 139.409 103.339 139.409 103.872C139.409 104.31 139.283 104.701 139.031 105.045C138.783 105.39 138.435 105.662 137.987 105.861C137.54 106.06 137.02 106.159 136.426 106.159C135.647 106.159 135.003 105.99 134.492 105.652C133.982 105.314 133.659 104.82 133.523 104.17L134.637 103.892C134.743 104.303 134.943 104.611 135.238 104.817C135.536 105.022 135.926 105.125 136.406 105.125C136.953 105.125 137.387 105.009 137.709 104.777C138.034 104.542 138.196 104.26 138.196 103.932C138.196 103.667 138.103 103.445 137.918 103.266C137.732 103.083 137.447 102.947 137.063 102.858L135.79 102.56C135.091 102.394 134.577 102.137 134.249 101.789C133.924 101.438 133.762 100.999 133.762 100.472C133.762 100.041 133.883 99.6596 134.124 99.3281C134.37 98.9967 134.703 98.7365 135.124 98.5476C135.548 98.3587 136.029 98.2642 136.566 98.2642C137.321 98.2642 137.914 98.4299 138.345 98.7614C138.78 99.0928 139.088 99.5303 139.27 100.074Z" fill="#FAFAFA"/>
</svg>
