<svg width="246" height="129" viewBox="0 0 246 129" fill="none" xmlns="http://www.w3.org/2000/svg">
<rect x="1.14001" y="0.5" width="244.32" height="127.2" rx="5.5" stroke="#BBBBBB" stroke-opacity="0.12"/>
<rect x="17.9408" y="17.2998" width="48" height="23" rx="5.5" fill="#1A73E8" fill-opacity="0.15"/>
<rect x="17.9408" y="17.2998" width="48" height="23" rx="5.5" stroke="#1A73E8"/>
<path d="M26.3996 32.7998V24.0725H27.7164V31.6663H31.6709V32.7998H26.3996ZM34.9756 32.9447C34.5608 32.9447 34.1858 32.868 33.8506 32.7146C33.5154 32.5583 33.2497 32.3325 33.0537 32.037C32.8605 31.7416 32.7639 31.3794 32.7639 30.9504C32.7639 30.5811 32.835 30.2771 32.977 30.0384C33.1191 29.7998 33.3108 29.6109 33.5523 29.4717C33.7938 29.3325 34.0637 29.2274 34.362 29.1563C34.6603 29.0853 34.9642 29.0313 35.2739 28.9944C35.6659 28.949 35.9841 28.912 36.2284 28.8836C36.4728 28.8524 36.6503 28.8026 36.7611 28.7345C36.8719 28.6663 36.9273 28.5555 36.9273 28.4021V28.3722C36.9273 28.0001 36.8222 27.7117 36.612 27.5072C36.4046 27.3026 36.0949 27.2004 35.683 27.2004C35.254 27.2004 34.9159 27.2955 34.6688 27.4859C34.4245 27.6734 34.2554 27.8822 34.1617 28.1123L32.9642 27.8396C33.1063 27.4419 33.3137 27.1208 33.5864 26.8765C33.862 26.6293 34.1787 26.4504 34.5367 26.3396C34.8946 26.2259 35.2711 26.1691 35.6659 26.1691C35.9273 26.1691 36.2043 26.2004 36.4969 26.2629C36.7924 26.3225 37.0679 26.4333 37.3236 26.5953C37.5821 26.7572 37.7938 26.9887 37.9586 27.2899C38.1233 27.5882 38.2057 27.9759 38.2057 28.4532V32.7998H36.9614V31.9049H36.9103C36.8279 32.0697 36.7043 32.2316 36.5395 32.3907C36.3747 32.5498 36.1631 32.6819 35.9046 32.787C35.6461 32.8921 35.3364 32.9447 34.9756 32.9447ZM35.2526 31.922C35.6049 31.922 35.906 31.8524 36.156 31.7132C36.4088 31.574 36.6006 31.3921 36.7313 31.1677C36.8648 30.9404 36.9316 30.6975 36.9316 30.439V29.5953C36.8861 29.6407 36.798 29.6833 36.6674 29.7231C36.5395 29.76 36.3932 29.7927 36.2284 29.8211C36.0637 29.8467 35.9032 29.8708 35.7469 29.8936C35.5907 29.9134 35.46 29.9305 35.3549 29.9447C35.1077 29.9759 34.8818 30.0285 34.6773 30.1024C34.4756 30.1762 34.3137 30.2828 34.1915 30.422C34.0722 30.5583 34.0125 30.7401 34.0125 30.9674C34.0125 31.2828 34.129 31.5214 34.362 31.6833C34.5949 31.8424 34.8918 31.922 35.2526 31.922ZM39.9028 32.7998V26.2543H41.1343V27.2941H41.2025C41.3218 26.9418 41.5321 26.6649 41.8332 26.4632C42.1372 26.2586 42.4809 26.1563 42.8644 26.1563C42.944 26.1563 43.0377 26.1592 43.1457 26.1649C43.2565 26.1705 43.3431 26.1776 43.4056 26.1862V27.4049C43.3545 27.3907 43.2636 27.3751 43.1329 27.358C43.0022 27.3382 42.8715 27.3282 42.7409 27.3282C42.4397 27.3282 42.1713 27.3921 41.9355 27.52C41.7025 27.645 41.5179 27.8197 41.3815 28.0441C41.2451 28.2657 41.1769 28.5186 41.1769 28.8026V32.7998H39.9028ZM47.0182 35.3907C46.4983 35.3907 46.0509 35.3225 45.6759 35.1862C45.3037 35.0498 44.9997 34.8694 44.7639 34.645C44.5282 34.4205 44.352 34.1748 44.2355 33.9078L45.3307 33.4561C45.4074 33.5811 45.5097 33.7132 45.6375 33.8524C45.7682 33.9944 45.9443 34.1151 46.1659 34.2146C46.3904 34.314 46.6787 34.3637 47.031 34.3637C47.5139 34.3637 47.9131 34.2458 48.2284 34.01C48.5438 33.7771 48.7014 33.4049 48.7014 32.8936V31.6066H48.6205C48.5438 31.7458 48.433 31.9007 48.2881 32.0711C48.1461 32.2416 47.95 32.3893 47.7 32.5143C47.45 32.6393 47.1247 32.7018 46.7242 32.7018C46.2071 32.7018 45.7412 32.5811 45.3264 32.3396C44.9145 32.0953 44.5878 31.7359 44.3463 31.2615C44.1077 30.7842 43.9884 30.1975 43.9884 29.5015C43.9884 28.8055 44.1063 28.2089 44.3421 27.7117C44.5807 27.2146 44.9074 26.8339 45.3222 26.5697C45.737 26.3026 46.2071 26.1691 46.7327 26.1691C47.1389 26.1691 47.4671 26.2373 47.7171 26.3737C47.9671 26.5072 48.1617 26.6634 48.3009 26.8424C48.4429 27.0214 48.5523 27.1791 48.629 27.3154H48.7228V26.2543H49.9713V32.9447C49.9713 33.5072 49.8407 33.9688 49.5793 34.3296C49.3179 34.6904 48.9642 34.9575 48.5182 35.1308C48.075 35.3041 47.575 35.3907 47.0182 35.3907ZM47.0054 31.645C47.3719 31.645 47.6816 31.5597 47.9344 31.3893C48.1901 31.216 48.3833 30.9688 48.5139 30.6478C48.6475 30.324 48.7142 29.9362 48.7142 29.4845C48.7142 29.0441 48.6489 28.6563 48.5182 28.3211C48.3875 27.9859 48.1958 27.7245 47.9429 27.537C47.6901 27.3467 47.3776 27.2515 47.0054 27.2515C46.6219 27.2515 46.3023 27.3509 46.0466 27.5498C45.7909 27.7458 45.5978 28.0129 45.4671 28.3509C45.3392 28.689 45.2753 29.0669 45.2753 29.4845C45.2753 29.9134 45.3407 30.2899 45.4713 30.6137C45.602 30.9376 45.7952 31.1904 46.0509 31.3722C46.3094 31.5541 46.6276 31.645 47.0054 31.645ZM54.5012 32.9319C53.8563 32.9319 53.3009 32.7941 52.835 32.5186C52.3719 32.2401 52.0139 31.8495 51.7611 31.3467C51.5111 30.841 51.3861 30.2487 51.3861 29.5697C51.3861 28.8992 51.5111 28.3083 51.7611 27.797C52.0139 27.2856 52.3662 26.8865 52.8179 26.5995C53.2725 26.3126 53.8037 26.1691 54.4117 26.1691C54.781 26.1691 55.1389 26.2302 55.4855 26.3524C55.8321 26.4745 56.1432 26.6663 56.4188 26.9276C56.6943 27.189 56.9117 27.5285 57.0708 27.9461C57.2299 28.3609 57.3094 28.8651 57.3094 29.4589V29.9106H52.1063V28.9561H56.0608C56.0608 28.6208 55.9926 28.324 55.8563 28.0654C55.7199 27.8041 55.5282 27.5981 55.281 27.4475C55.0367 27.297 54.7497 27.2217 54.4202 27.2217C54.0622 27.2217 53.7497 27.3097 53.4827 27.4859C53.2185 27.6592 53.0139 27.8865 52.8691 28.1677C52.727 28.4461 52.656 28.7487 52.656 29.0754V29.8211C52.656 30.2586 52.7327 30.6308 52.8861 30.9376C53.0424 31.2444 53.2597 31.4788 53.5381 31.6407C53.8165 31.7998 54.1418 31.8794 54.5139 31.8794C54.7554 31.8794 54.9756 31.8453 55.1745 31.7771C55.3733 31.7061 55.5452 31.6009 55.6901 31.4617C55.835 31.3225 55.9458 31.1507 56.0225 30.9461L57.2284 31.1634C57.1318 31.5186 56.9586 31.8296 56.7086 32.0967C56.4614 32.3609 56.1503 32.5669 55.7753 32.7146C55.4032 32.8595 54.9784 32.9319 54.5012 32.9319Z" fill="#1A73E8"/>
<path d="M18.2561 57.8118V56.7976L22.7306 49.7181H23.4664V51.2891H22.9692L19.5885 56.6385V56.7181H25.6141V57.8118H18.2561ZM23.0488 59.8999V57.5036V57.0313V49.7181H24.222V59.8999H23.0488ZM37.6789 52.2635L34.855 59.8999H33.6619L30.838 52.2635H32.1107L34.2187 58.3488H34.2982L36.4062 52.2635H37.6789ZM47.5798 52.8999H46.3469C46.274 52.5453 46.1463 52.2337 45.9641 51.9652C45.7851 51.6968 45.5663 51.4714 45.3078 51.2891C45.0526 51.1035 44.7692 50.9643 44.4577 50.8715C44.1461 50.7787 43.8213 50.7323 43.4832 50.7323C42.8668 50.7323 42.3083 50.8881 41.8078 51.1996C41.3106 51.5112 40.9146 51.9702 40.6196 52.5767C40.3279 53.1833 40.1821 53.9274 40.1821 54.809C40.1821 55.6906 40.3279 56.4347 40.6196 57.0412C40.9146 57.6478 41.3106 58.1068 41.8078 58.4184C42.3083 58.7299 42.8668 58.8857 43.4832 58.8857C43.8213 58.8857 44.1461 58.8393 44.4577 58.7465C44.7692 58.6537 45.0526 58.5161 45.3078 58.3339C45.5663 58.1482 45.7851 57.9212 45.9641 57.6527C46.1463 57.381 46.274 57.0694 46.3469 56.7181H47.5798C47.487 57.2384 47.318 57.7041 47.0727 58.1151C46.8275 58.5261 46.5225 58.8758 46.1579 59.1641C45.7934 59.4491 45.384 59.6662 44.93 59.8154C44.4792 59.9645 43.997 60.0391 43.4832 60.0391C42.6149 60.0391 41.8426 59.827 41.1665 59.4027C40.4903 58.9785 39.9584 58.3753 39.5706 57.5931C39.1828 56.8109 38.9889 55.8829 38.9889 54.809C38.9889 53.7351 39.1828 52.8071 39.5706 52.0249C39.9584 51.2427 40.4903 50.6395 41.1665 50.2152C41.8426 49.791 42.6149 49.5789 43.4832 49.5789C43.997 49.5789 44.4792 49.6535 44.93 49.8026C45.384 49.9517 45.7934 50.1705 46.1579 50.4589C46.5225 50.7439 46.8275 51.0919 47.0727 51.5029C47.318 51.9106 47.487 52.3762 47.5798 52.8999ZM49.5722 59.8999V49.7181H53.0125C53.8113 49.7181 54.4642 49.8623 54.9713 50.1506C55.4818 50.4357 55.8596 50.8218 56.1049 51.309C56.3501 51.7962 56.4728 52.3398 56.4728 52.9397C56.4728 53.5396 56.3501 54.0848 56.1049 54.5753C55.8629 55.0659 55.4884 55.457 54.9813 55.7486C54.4742 56.037 53.8246 56.1812 53.0324 56.1812H50.5665V55.0874H52.9926C53.5395 55.0874 53.9787 54.9929 54.3101 54.804C54.6416 54.6151 54.8818 54.3599 55.031 54.0384C55.1835 53.7136 55.2597 53.3473 55.2597 52.9397C55.2597 52.532 55.1835 52.1674 55.031 51.8459C54.8818 51.5244 54.6399 51.2725 54.3051 51.0902C53.9704 50.9046 53.5263 50.8118 52.9728 50.8118H50.8051V59.8999H49.5722ZM65.1407 49.7181H66.3737V56.4596C66.3737 57.1556 66.2096 57.777 65.8815 58.3239C65.5567 58.8675 65.0976 59.2967 64.5044 59.6116C63.9111 59.9231 63.2151 60.0789 62.4163 60.0789C61.6175 60.0789 60.9215 59.9231 60.3282 59.6116C59.7349 59.2967 59.2742 58.8675 58.9461 58.3239C58.6213 57.777 58.4589 57.1556 58.4589 56.4596V49.7181H59.6919V56.3601C59.6919 56.8573 59.8012 57.2998 60.02 57.6875C60.2387 58.072 60.5503 58.3753 60.9546 58.5973C61.3623 58.8161 61.8495 58.9255 62.4163 58.9255C62.9831 58.9255 63.4703 58.8161 63.8779 58.5973C64.2856 58.3753 64.5972 58.072 64.8126 57.6875C65.0314 57.2998 65.1407 56.8573 65.1407 56.3601V49.7181Z" fill="#A1A1A1"/>
<path d="M17.8147 78.9119V77.8977L22.2892 70.8182H23.025V72.3892H22.5278L19.1471 77.7386V77.8182H25.1727V78.9119H17.8147ZM22.6073 81V78.6037V78.1314V70.8182H23.7806V81H22.6073ZM38.1125 74C38.0031 73.6652 37.8589 73.3653 37.68 73.1001C37.5043 72.8317 37.2938 72.603 37.0486 72.4141C36.8066 72.2251 36.5315 72.081 36.2233 71.9815C35.9151 71.8821 35.577 71.8324 35.2091 71.8324C34.6059 71.8324 34.0573 71.9882 33.5635 72.2997C33.0696 72.6113 32.6769 73.0703 32.3852 73.6768C32.0936 74.2834 31.9477 75.0275 31.9477 75.9091C31.9477 76.7907 32.0952 77.5348 32.3902 78.1413C32.6852 78.7479 33.0846 79.2069 33.5883 79.5185C34.0921 79.83 34.6589 79.9858 35.2886 79.9858C35.872 79.9858 36.3857 79.8615 36.8298 79.6129C37.2773 79.361 37.6253 79.0064 37.8739 78.549C38.1258 78.0883 38.2517 77.5464 38.2517 76.9233L38.6295 77.0028H35.567V75.9091H39.4449V77.0028C39.4449 77.8414 39.2659 78.5705 38.9079 79.1903C38.5533 79.8101 38.0628 80.2907 37.4364 80.6321C36.8133 80.9702 36.0973 81.1392 35.2886 81.1392C34.3871 81.1392 33.595 80.9271 32.9122 80.5028C32.2328 80.0786 31.7025 79.4754 31.3213 78.6932C30.9435 77.911 30.7545 76.983 30.7545 75.9091C30.7545 75.1037 30.8623 74.3795 31.0777 73.7365C31.2964 73.0902 31.6047 72.54 32.0024 72.0859C32.4001 71.6319 32.8708 71.2839 33.4143 71.0419C33.9579 70.8 34.5561 70.679 35.2091 70.679C35.746 70.679 36.2465 70.7602 36.7105 70.9226C37.1778 71.0817 37.5938 71.3087 37.9584 71.6037C38.3263 71.8954 38.6329 72.245 38.8781 72.6527C39.1234 73.0571 39.2924 73.5062 39.3852 74H38.1125ZM41.5566 81V70.8182H45.1162C45.8255 70.8182 46.4105 70.9408 46.8712 71.1861C47.3319 71.428 47.6749 71.7545 47.9003 72.1655C48.1257 72.5732 48.2384 73.0256 48.2384 73.5227C48.2384 73.9602 48.1605 74.3215 48.0047 74.6065C47.8523 74.8916 47.6501 75.117 47.3982 75.2827C47.1496 75.4484 46.8795 75.571 46.5878 75.6506V75.75C46.8994 75.7699 47.2126 75.8793 47.5274 76.0781C47.8423 76.277 48.1058 76.562 48.3179 76.9332C48.53 77.3045 48.6361 77.7585 48.6361 78.2955C48.6361 78.8059 48.5201 79.2649 48.2881 79.6726C48.0561 80.0803 47.6898 80.4034 47.1894 80.642C46.6889 80.8807 46.0376 81 45.2355 81H41.5566ZM42.7895 79.9062H45.2355C46.0409 79.9062 46.6127 79.7505 46.9507 79.4389C47.2921 79.1241 47.4628 78.7429 47.4628 78.2955C47.4628 77.9508 47.375 77.6326 47.1993 77.3409C47.0237 77.0459 46.7734 76.8106 46.4486 76.6349C46.1238 76.456 45.7393 76.3665 45.2952 76.3665H42.7895V79.9062ZM42.7895 75.2926H45.0764C45.4477 75.2926 45.7824 75.2197 46.0807 75.0739C46.3823 74.928 46.621 74.7225 46.7966 74.4574C46.9756 74.1922 47.0651 73.8807 47.0651 73.5227C47.0651 73.0753 46.9093 72.6958 46.5978 72.3842C46.2862 72.0694 45.7924 71.9119 45.1162 71.9119H42.7895V75.2926ZM54.5995 81V70.8182H58.0399C58.8353 70.8182 59.4883 70.9541 59.9987 71.2259C60.5091 71.4943 60.8869 71.8639 61.1322 72.3345C61.3775 72.8052 61.5001 73.3404 61.5001 73.9403C61.5001 74.5402 61.3775 75.0722 61.1322 75.5362C60.8869 76.0002 60.5108 76.3648 60.0037 76.63C59.4965 76.8918 58.8486 77.0227 58.0598 77.0227H55.2757V75.9091H58.02C58.5635 75.9091 59.001 75.8295 59.3325 75.6705C59.6672 75.5114 59.9092 75.286 60.0583 74.9943C60.2108 74.6993 60.287 74.348 60.287 73.9403C60.287 73.5327 60.2108 73.1764 60.0583 72.8714C59.9059 72.5665 59.6623 72.3312 59.3275 72.1655C58.9928 71.9964 58.5503 71.9119 58.0001 71.9119H55.8325V81H54.5995ZM59.3921 76.4261L61.8978 81H60.466L58.0001 76.4261H59.3921ZM63.9722 81H62.6796L66.4182 70.8182H67.691L71.4296 81H70.137L67.0944 72.429H67.0148L63.9722 81ZM64.4495 77.0227H69.6597V78.1165H64.4495V77.0227ZM73.0155 70.8182H74.4871L77.9474 79.2699H78.0667L81.5269 70.8182H82.9985V81H81.8451V73.2642H81.7457L78.5638 81H77.4502L74.2684 73.2642H74.169V81H73.0155V70.8182Z" fill="#A1A1A1"/>
<path d="M21.8261 107.273V94.5455H22.6414V107.273H21.8261ZM24.1777 98.6172C24.1313 98.183 23.9357 97.8449 23.591 97.603C23.2496 97.361 22.8055 97.2401 22.2586 97.2401C21.8742 97.2401 21.5444 97.2981 21.2693 97.4141C20.9942 97.5301 20.7837 97.6875 20.6379 97.8864C20.4921 98.0852 20.4175 98.3123 20.4142 98.5675C20.4142 98.7796 20.4622 98.9635 20.5583 99.1193C20.6578 99.2751 20.792 99.4077 20.961 99.517C21.1301 99.6231 21.3173 99.7126 21.5228 99.7855C21.7283 99.8584 21.9355 99.9197 22.1443 99.9695L23.0988 100.208C23.4833 100.298 23.8528 100.419 24.2075 100.571C24.5654 100.723 24.8853 100.916 25.167 101.148C25.452 101.38 25.6774 101.66 25.8431 101.988C26.0089 102.316 26.0917 102.701 26.0917 103.141C26.0917 103.738 25.9393 104.263 25.6343 104.717C25.3294 105.168 24.8886 105.521 24.3119 105.776C23.7385 106.028 23.0441 106.154 22.2288 106.154C21.4367 106.154 20.7489 106.031 20.1656 105.786C19.5856 105.541 19.1315 105.183 18.8034 104.712C18.4786 104.242 18.3029 103.668 18.2764 102.992H20.091C20.1175 103.347 20.2269 103.642 20.4191 103.877C20.6114 104.112 20.8616 104.288 21.1698 104.404C21.4814 104.52 21.8294 104.578 22.2139 104.578C22.6149 104.578 22.9662 104.518 23.2679 104.399C23.5728 104.277 23.8114 104.107 23.9838 103.892C24.1561 103.673 24.2439 103.418 24.2473 103.126C24.2439 102.861 24.1661 102.643 24.0136 102.47C23.8611 102.295 23.6474 102.149 23.3723 102.033C23.1005 101.913 22.7823 101.807 22.4177 101.714L21.2593 101.416C20.4208 101.201 19.7579 100.874 19.2707 100.437C18.7868 99.996 18.5448 99.411 18.5448 98.6818C18.5448 98.0819 18.7072 97.5566 19.0321 97.1058C19.3602 96.6551 19.806 96.3054 20.3694 96.0568C20.9329 95.8049 21.5709 95.679 22.2835 95.679C23.006 95.679 23.6391 95.8049 24.1826 96.0568C24.7295 96.3054 25.1587 96.6518 25.4703 97.0959C25.7818 97.5367 25.9426 98.0438 25.9525 98.6172H24.1777ZM31.4001 106.194C30.5815 106.194 29.8788 105.987 29.2922 105.572C28.7088 105.155 28.2597 104.553 27.9449 103.768C27.6333 102.979 27.4776 102.029 27.4776 100.919C27.4809 99.8087 27.6383 98.8641 27.9499 98.0852C28.2647 97.303 28.7138 96.7064 29.2972 96.2955C29.8838 95.8845 30.5848 95.679 31.4001 95.679C32.2155 95.679 32.9165 95.8845 33.5031 96.2955C34.0898 96.7064 34.5389 97.303 34.8504 98.0852C35.1653 98.8674 35.3227 99.812 35.3227 100.919C35.3227 102.033 35.1653 102.984 34.8504 103.773C34.5389 104.558 34.0898 105.158 33.5031 105.572C32.9198 105.987 32.2188 106.194 31.4001 106.194ZM31.4001 104.638C32.0365 104.638 32.5386 104.325 32.9065 103.698C33.2777 103.068 33.4633 102.142 33.4633 100.919C33.4633 100.11 33.3788 99.4309 33.2098 98.8807C33.0408 98.3305 32.8021 97.9162 32.4939 97.6378C32.1856 97.3561 31.8211 97.2152 31.4001 97.2152C30.7671 97.2152 30.2666 97.5301 29.8987 98.1598C29.5308 98.7862 29.3452 99.706 29.3419 100.919C29.3386 101.731 29.4198 102.414 29.5855 102.967C29.7545 103.521 29.9932 103.938 30.3014 104.22C30.6097 104.499 30.9759 104.638 31.4001 104.638ZM37.7066 106.109C37.405 106.109 37.1465 106.003 36.931 105.791C36.7156 105.579 36.6095 105.321 36.6128 105.016C36.6095 104.717 36.7156 104.462 36.931 104.25C37.1465 104.038 37.405 103.932 37.7066 103.932C37.9983 103.932 38.2518 104.038 38.4673 104.25C38.686 104.462 38.797 104.717 38.8003 105.016C38.797 105.218 38.744 105.402 38.6413 105.567C38.5418 105.733 38.4093 105.866 38.2435 105.965C38.0811 106.061 37.9021 106.109 37.7066 106.109ZM44.0056 106.194C43.1869 106.194 42.4843 105.987 41.8976 105.572C41.3143 105.155 40.8652 104.553 40.5503 103.768C40.2388 102.979 40.083 102.029 40.083 100.919C40.0863 99.8087 40.2438 98.8641 40.5553 98.0852C40.8702 97.303 41.3193 96.7064 41.9026 96.2955C42.4893 95.8845 43.1903 95.679 44.0056 95.679C44.8209 95.679 45.5219 95.8845 46.1086 96.2955C46.6952 96.7064 47.1443 97.303 47.4559 98.0852C47.7708 98.8674 47.9282 99.812 47.9282 100.919C47.9282 102.033 47.7708 102.984 47.4559 103.773C47.1443 104.558 46.6952 105.158 46.1086 105.572C45.5253 105.987 44.8243 106.194 44.0056 106.194ZM44.0056 104.638C44.642 104.638 45.1441 104.325 45.512 103.698C45.8832 103.068 46.0688 102.142 46.0688 100.919C46.0688 100.11 45.9843 99.4309 45.8153 98.8807C45.6462 98.3305 45.4076 97.9162 45.0994 97.6378C44.7911 97.3561 44.4265 97.2152 44.0056 97.2152C43.3726 97.2152 42.8721 97.5301 42.5042 98.1598C42.1363 98.7862 41.9507 99.706 41.9474 100.919C41.9441 101.731 42.0253 102.414 42.191 102.967C42.36 103.521 42.5986 103.938 42.9069 104.22C43.2151 104.499 43.5814 104.638 44.0056 104.638ZM49.58 106V104.668L53.1148 101.202C53.4529 100.861 53.7346 100.558 53.96 100.293C54.1854 100.027 54.3544 99.7706 54.4671 99.522C54.5798 99.2734 54.6361 99.0083 54.6361 98.7266C54.6361 98.4051 54.5632 98.13 54.4174 97.9013C54.2715 97.6693 54.071 97.4903 53.8158 97.3643C53.5606 97.2384 53.2706 97.1754 52.9458 97.1754C52.611 97.1754 52.3177 97.245 52.0658 97.3842C51.8139 97.5201 51.6184 97.714 51.4791 97.9659C51.3433 98.2178 51.2753 98.5178 51.2753 98.8658H49.5203C49.5203 98.2195 49.6678 97.6577 49.9628 97.1804C50.2578 96.7031 50.6638 96.3336 51.1809 96.0717C51.7012 95.8099 52.2978 95.679 52.9706 95.679C53.6534 95.679 54.2533 95.8066 54.7703 96.0618C55.2874 96.317 55.6884 96.6667 55.9735 97.1108C56.2618 97.5549 56.406 98.062 56.406 98.6321C56.406 99.0133 56.3331 99.3878 56.1872 99.7557C56.0414 100.124 55.7845 100.531 55.4166 100.979C55.0521 101.426 54.54 101.968 53.8804 102.604L52.1255 104.389V104.459H56.5601V106H49.58ZM58.6482 106L62.9784 97.429V97.3594H57.9522V95.8182H64.8875V97.3942L60.5622 106H58.6482ZM67.1384 106L71.4687 97.429V97.3594H66.4424V95.8182H73.3778V97.3942L69.0525 106H67.1384ZM75.6287 106L79.9589 97.429V97.3594H74.9326V95.8182H81.868V97.3942L77.5427 106H75.6287ZM84.1189 106L88.4491 97.429V97.3594H83.4229V95.8182H90.3582V97.3942L86.0329 106H84.1189Z" fill="#27B648"/>
<path d="M99.2039 95.3409L95.9227 107.531H94.8488L98.1301 95.3409H99.2039ZM105.706 101.406V106H104.532V95.8182H105.706V99.5568H105.805C105.984 99.1624 106.252 98.8492 106.61 98.6172C106.972 98.3819 107.452 98.2642 108.052 98.2642C108.572 98.2642 109.028 98.3686 109.419 98.5774C109.81 98.7829 110.114 99.0994 110.329 99.527C110.548 99.9512 110.657 100.491 110.657 101.148V106H109.484V101.227C109.484 100.621 109.327 100.152 109.012 99.8203C108.7 99.4856 108.268 99.3182 107.714 99.3182C107.33 99.3182 106.985 99.3994 106.68 99.5618C106.378 99.7242 106.14 99.9612 105.964 100.273C105.792 100.584 105.706 100.962 105.706 101.406ZM115.906 106.159C115.217 106.159 114.612 105.995 114.091 105.667C113.574 105.339 113.17 104.88 112.878 104.29C112.59 103.7 112.446 103.01 112.446 102.222C112.446 101.426 112.59 100.732 112.878 100.138C113.17 99.5452 113.574 99.0845 114.091 98.7564C114.612 98.4283 115.217 98.2642 115.906 98.2642C116.595 98.2642 117.199 98.4283 117.716 98.7564C118.236 99.0845 118.64 99.5452 118.929 100.138C119.22 100.732 119.366 101.426 119.366 102.222C119.366 103.01 119.22 103.7 118.929 104.29C118.64 104.88 118.236 105.339 117.716 105.667C117.199 105.995 116.595 106.159 115.906 106.159ZM115.906 105.105C116.43 105.105 116.861 104.971 117.199 104.702C117.537 104.434 117.787 104.081 117.949 103.643C118.112 103.206 118.193 102.732 118.193 102.222C118.193 101.711 118.112 101.236 117.949 100.795C117.787 100.354 117.537 99.9976 117.199 99.7259C116.861 99.4541 116.43 99.3182 115.906 99.3182C115.382 99.3182 114.951 99.4541 114.613 99.7259C114.275 99.9976 114.025 100.354 113.863 100.795C113.7 101.236 113.619 101.711 113.619 102.222C113.619 102.732 113.7 103.206 113.863 103.643C114.025 104.081 114.275 104.434 114.613 104.702C114.951 104.971 115.382 105.105 115.906 105.105ZM125.97 102.878V98.3636H127.143V106H125.97V104.707H125.89C125.711 105.095 125.433 105.425 125.055 105.697C124.677 105.965 124.2 106.099 123.623 106.099C123.146 106.099 122.722 105.995 122.35 105.786C121.979 105.574 121.688 105.256 121.475 104.832C121.263 104.404 121.157 103.866 121.157 103.216V98.3636H122.331V103.136C122.331 103.693 122.486 104.137 122.798 104.469C123.113 104.8 123.514 104.966 124.001 104.966C124.293 104.966 124.589 104.891 124.891 104.742C125.196 104.593 125.451 104.364 125.657 104.056C125.865 103.748 125.97 103.355 125.97 102.878ZM129.292 106V98.3636H130.426V99.517H130.505C130.644 99.1392 130.896 98.8326 131.261 98.5973C131.625 98.362 132.036 98.2443 132.494 98.2443C132.58 98.2443 132.688 98.246 132.817 98.2493C132.946 98.2526 133.044 98.2576 133.11 98.2642V99.4574C133.07 99.4474 132.979 99.4325 132.837 99.4126C132.698 99.3894 132.55 99.3778 132.394 99.3778C132.023 99.3778 131.692 99.4557 131.4 99.6115C131.112 99.764 130.883 99.9761 130.714 100.248C130.548 100.516 130.465 100.823 130.465 101.168V106H129.292ZM139.91 100.074L138.856 100.372C138.79 100.196 138.692 100.026 138.563 99.8601C138.437 99.6911 138.264 99.5518 138.046 99.4425C137.827 99.3331 137.547 99.2784 137.206 99.2784C136.738 99.2784 136.349 99.3861 136.037 99.6016C135.729 99.8137 135.575 100.084 135.575 100.412C135.575 100.704 135.681 100.934 135.893 101.103C136.105 101.272 136.437 101.413 136.887 101.526L138.021 101.804C138.704 101.97 139.212 102.223 139.547 102.565C139.882 102.903 140.049 103.339 140.049 103.872C140.049 104.31 139.923 104.701 139.671 105.045C139.423 105.39 139.075 105.662 138.627 105.861C138.18 106.06 137.66 106.159 137.066 106.159C136.287 106.159 135.643 105.99 135.132 105.652C134.622 105.314 134.299 104.82 134.163 104.17L135.277 103.892C135.383 104.303 135.583 104.611 135.878 104.817C136.176 105.022 136.566 105.125 137.046 105.125C137.593 105.125 138.028 105.009 138.349 104.777C138.674 104.542 138.836 104.26 138.836 103.932C138.836 103.667 138.743 103.445 138.558 103.266C138.372 103.083 138.087 102.947 137.703 102.858L136.43 102.56C135.731 102.394 135.217 102.137 134.889 101.789C134.564 101.438 134.402 100.999 134.402 100.472C134.402 100.041 134.523 99.6596 134.764 99.3281C135.01 98.9967 135.343 98.7365 135.764 98.5476C136.188 98.3587 136.669 98.2642 137.206 98.2642C137.961 98.2642 138.554 98.4299 138.985 98.7614C139.42 99.0928 139.728 99.5303 139.91 100.074Z" fill="#FAFAFA"/>
</svg>
