<svg width="246" height="129" viewBox="0 0 246 129" fill="none" xmlns="http://www.w3.org/2000/svg">
<rect x="0.820007" y="0.5" width="244.32" height="127.2" rx="5.5" stroke="#BBBBBB" stroke-opacity="0.12"/>
<rect x="17.6208" y="17.2998" width="47" height="23" rx="5.5" fill="#853BCE" fill-opacity="0.15"/>
<rect x="17.6208" y="17.2998" width="47" height="23" rx="5.5" stroke="#853BCE"/>
<path d="M30.8395 26.3651C30.7941 25.9617 30.6066 25.6492 30.277 25.4276C29.9475 25.2032 29.5327 25.091 29.0327 25.091C28.6748 25.091 28.3651 25.1478 28.1037 25.2615C27.8424 25.3722 27.6393 25.5257 27.4944 25.7217C27.3523 25.9149 27.2813 26.135 27.2813 26.3822C27.2813 26.5896 27.3296 26.7686 27.4262 26.9191C27.5256 27.0697 27.6549 27.1961 27.814 27.2984C27.9759 27.3978 28.1492 27.4816 28.3339 27.5498C28.5185 27.6151 28.6961 27.6691 28.8665 27.7117L29.7188 27.9333C29.9972 28.0015 30.2827 28.0938 30.5753 28.2103C30.8679 28.3268 31.1393 28.4802 31.3893 28.6705C31.6393 28.8609 31.841 29.0967 31.9944 29.3779C32.1506 29.6592 32.2287 29.9958 32.2287 30.3879C32.2287 30.8822 32.1009 31.3211 31.8452 31.7046C31.5924 32.0882 31.2245 32.3907 30.7415 32.6123C30.2614 32.8339 29.6804 32.9447 28.9986 32.9447C28.3452 32.9447 27.7799 32.841 27.3026 32.6336C26.8253 32.4262 26.4518 32.1322 26.1819 31.7515C25.912 31.368 25.7628 30.9134 25.7344 30.3879H27.0554C27.081 30.7032 27.1833 30.966 27.3623 31.1762C27.5441 31.3836 27.7756 31.5384 28.0569 31.6407C28.341 31.7401 28.652 31.7899 28.9901 31.7899C29.3623 31.7899 29.6932 31.7316 29.983 31.6151C30.2756 31.4958 30.5057 31.3311 30.6733 31.1208C30.841 30.9078 30.9248 30.6592 30.9248 30.3751C30.9248 30.1166 30.8509 29.9049 30.7032 29.7401C30.5583 29.5754 30.3608 29.439 30.1108 29.3311C29.8637 29.2231 29.5839 29.1279 29.2714 29.0455L28.2401 28.7643C27.5412 28.574 26.9873 28.2941 26.5782 27.9248C26.1719 27.5555 25.9688 27.0668 25.9688 26.4589C25.9688 25.9561 26.1052 25.5171 26.3779 25.1421C26.6506 24.7671 27.0199 24.4759 27.4858 24.2686C27.9518 24.0583 28.4773 23.9532 29.0626 23.9532C29.6535 23.9532 30.1748 24.0569 30.6265 24.2643C31.081 24.4717 31.439 24.7572 31.7003 25.1208C31.9617 25.4816 32.0981 25.8964 32.1094 26.3651H30.8395ZM33.7 32.7998V26.2543H34.923V27.3197H35.004C35.1403 26.9589 35.3633 26.6776 35.673 26.4759C35.9826 26.2714 36.3534 26.1691 36.7852 26.1691C37.2227 26.1691 37.5892 26.2714 37.8846 26.4759C38.1829 26.6805 38.4031 26.9617 38.5451 27.3197H38.6133C38.7696 26.9703 39.0182 26.6918 39.3591 26.4845C39.7 26.2742 40.1062 26.1691 40.5778 26.1691C41.1716 26.1691 41.6559 26.3552 42.0309 26.7274C42.4088 27.0995 42.5977 27.6606 42.5977 28.4106V32.7998H41.3236V28.5299C41.3236 28.0867 41.2028 27.7657 40.9613 27.5668C40.7199 27.368 40.4315 27.2686 40.0963 27.2686C39.6815 27.2686 39.3591 27.3964 39.129 27.6521C38.8988 27.9049 38.7838 28.2302 38.7838 28.6279V32.7998H37.5139V28.449C37.5139 28.0938 37.4031 27.8083 37.1815 27.5924C36.9599 27.3765 36.6716 27.2686 36.3165 27.2686C36.075 27.2686 35.852 27.3325 35.6474 27.4603C35.4457 27.5853 35.2824 27.76 35.1574 27.9845C35.0352 28.2089 34.9741 28.4688 34.9741 28.7643V32.7998H33.7ZM46.2103 32.9447C45.7955 32.9447 45.4205 32.868 45.0853 32.7146C44.75 32.5583 44.4844 32.3325 44.2884 32.037C44.0952 31.7416 43.9986 31.3794 43.9986 30.9504C43.9986 30.5811 44.0697 30.2771 44.2117 30.0384C44.3537 29.7998 44.5455 29.6109 44.787 29.4717C45.0285 29.3325 45.2983 29.2274 45.5966 29.1563C45.8949 29.0853 46.1989 29.0313 46.5086 28.9944C46.9006 28.949 47.2188 28.912 47.4631 28.8836C47.7074 28.8524 47.885 28.8026 47.9958 28.7345C48.1066 28.6663 48.162 28.5555 48.162 28.4021V28.3722C48.162 28.0001 48.0569 27.7117 47.8466 27.5072C47.6393 27.3026 47.3296 27.2004 46.9177 27.2004C46.4887 27.2004 46.1506 27.2955 45.9035 27.4859C45.6591 27.6734 45.4901 27.8822 45.3964 28.1123L44.1989 27.8396C44.341 27.4419 44.5483 27.1208 44.8211 26.8765C45.0966 26.6293 45.4134 26.4504 45.7714 26.3396C46.1293 26.2259 46.5057 26.1691 46.9006 26.1691C47.162 26.1691 47.439 26.2004 47.7316 26.2629C48.027 26.3225 48.3026 26.4333 48.5583 26.5953C48.8168 26.7572 49.0285 26.9887 49.1932 27.2899C49.358 27.5882 49.4404 27.9759 49.4404 28.4532V32.7998H48.1961V31.9049H48.1449C48.0626 32.0697 47.939 32.2316 47.7742 32.3907C47.6094 32.5498 47.3978 32.6819 47.1393 32.787C46.8807 32.8921 46.5711 32.9447 46.2103 32.9447ZM46.4873 31.922C46.8395 31.922 47.1407 31.8524 47.3907 31.7132C47.6435 31.574 47.8353 31.3921 47.966 31.1677C48.0995 30.9404 48.1662 30.6975 48.1662 30.439V29.5953C48.1208 29.6407 48.0327 29.6833 47.902 29.7231C47.7742 29.76 47.6279 29.7927 47.4631 29.8211C47.2983 29.8467 47.1378 29.8708 46.9816 29.8936C46.8253 29.9134 46.6947 29.9305 46.5895 29.9447C46.3424 29.9759 46.1165 30.0285 45.912 30.1024C45.7103 30.1762 45.5483 30.2828 45.4262 30.422C45.3069 30.5583 45.2472 30.7401 45.2472 30.9674C45.2472 31.2828 45.3637 31.5214 45.5966 31.6833C45.8296 31.8424 46.1265 31.922 46.4873 31.922ZM52.4116 24.0725V32.7998H51.1375V24.0725H52.4116ZM55.3999 24.0725V32.7998H54.1258V24.0725H55.3999Z" fill="#853BCE"/>
<path d="M18.1748 59.8999V59.005L21.5356 55.326C21.93 54.8952 22.2548 54.5206 22.51 54.2025C22.7652 53.881 22.9541 53.5794 23.0768 53.2976C23.2027 53.0126 23.2657 52.7143 23.2657 52.4027C23.2657 52.0448 23.1795 51.7349 23.0072 51.4731C22.8381 51.2112 22.6061 51.009 22.3111 50.8665C22.0161 50.724 21.6847 50.6527 21.3168 50.6527C20.9257 50.6527 20.5843 50.7339 20.2927 50.8964C20.0043 51.0554 19.7806 51.2792 19.6215 51.5675C19.4657 51.8559 19.3878 52.1939 19.3878 52.5817H18.2145C18.2145 51.9851 18.3521 51.4615 18.6272 51.0107C18.9023 50.5599 19.2768 50.2086 19.7508 49.9567C20.228 49.7048 20.7633 49.5789 21.3566 49.5789C21.9532 49.5789 22.4818 49.7048 22.9425 49.9567C23.4032 50.2086 23.7645 50.5483 24.0263 50.9759C24.2882 51.4035 24.4191 51.8791 24.4191 52.4027C24.4191 52.7773 24.3511 53.1435 24.2152 53.5015C24.0827 53.8561 23.8507 54.2522 23.5192 54.6897C23.1911 55.1239 22.7354 55.6542 22.152 56.2806L19.8651 58.7266V58.8062H24.5981V59.8999H18.1748ZM36.853 52.2635L34.0292 59.8999H32.836L30.0121 52.2635H31.2849L33.3928 58.3488H33.4724L35.5803 52.2635H36.853ZM46.754 52.8999H45.521C45.4481 52.5453 45.3205 52.2337 45.1382 51.9652C44.9592 51.6968 44.7405 51.4714 44.4819 51.2891C44.2267 51.1035 43.9434 50.9643 43.6318 50.8715C43.3202 50.7787 42.9954 50.7323 42.6574 50.7323C42.0409 50.7323 41.4824 50.8881 40.9819 51.1996C40.4848 51.5112 40.0887 51.9702 39.7937 52.5767C39.5021 53.1833 39.3562 53.9274 39.3562 54.809C39.3562 55.6906 39.5021 56.4347 39.7937 57.0412C40.0887 57.6478 40.4848 58.1068 40.9819 58.4184C41.4824 58.7299 42.0409 58.8857 42.6574 58.8857C42.9954 58.8857 43.3202 58.8393 43.6318 58.7465C43.9434 58.6537 44.2267 58.5161 44.4819 58.3339C44.7405 58.1482 44.9592 57.9212 45.1382 57.6527C45.3205 57.381 45.4481 57.0694 45.521 56.7181H46.754C46.6612 57.2384 46.4921 57.7041 46.2469 58.1151C46.0016 58.5261 45.6967 58.8758 45.3321 59.1641C44.9675 59.4491 44.5582 59.6662 44.1041 59.8154C43.6533 59.9645 43.1711 60.0391 42.6574 60.0391C41.789 60.0391 41.0167 59.827 40.3406 59.4027C39.6645 58.9785 39.1325 58.3753 38.7447 57.5931C38.3569 56.8109 38.163 55.8829 38.163 54.809C38.163 53.7351 38.3569 52.8071 38.7447 52.0249C39.1325 51.2427 39.6645 50.6395 40.3406 50.2152C41.0167 49.791 41.789 49.5789 42.6574 49.5789C43.1711 49.5789 43.6533 49.6535 44.1041 49.8026C44.5582 49.9517 44.9675 50.1705 45.3321 50.4589C45.6967 50.7439 46.0016 51.0919 46.2469 51.5029C46.4921 51.9106 46.6612 52.3762 46.754 52.8999ZM48.7463 59.8999V49.7181H52.1867C52.9854 49.7181 53.6384 49.8623 54.1455 50.1506C54.6559 50.4357 55.0337 50.8218 55.279 51.309C55.5243 51.7962 55.6469 52.3398 55.6469 52.9397C55.6469 53.5396 55.5243 54.0848 55.279 54.5753C55.037 55.0659 54.6625 55.457 54.1554 55.7486C53.6483 56.037 52.9987 56.1812 52.2065 56.1812H49.7406V55.0874H52.1668C52.7137 55.0874 53.1528 54.9929 53.4842 54.804C53.8157 54.6151 54.056 54.3599 54.2051 54.0384C54.3576 53.7136 54.4338 53.3473 54.4338 52.9397C54.4338 52.532 54.3576 52.1674 54.2051 51.8459C54.056 51.5244 53.814 51.2725 53.4793 51.0902C53.1445 50.9046 52.7004 50.8118 52.1469 50.8118H49.9793V59.8999H48.7463ZM64.3149 49.7181H65.5478V56.4596C65.5478 57.1556 65.3838 57.777 65.0556 58.3239C64.7308 58.8675 64.2718 59.2967 63.6785 59.6116C63.0852 59.9231 62.3892 60.0789 61.5904 60.0789C60.7917 60.0789 60.0956 59.9231 59.5024 59.6116C58.9091 59.2967 58.4484 58.8675 58.1203 58.3239C57.7954 57.777 57.633 57.1556 57.633 56.4596V49.7181H58.866V56.3601C58.866 56.8573 58.9754 57.2998 59.1941 57.6875C59.4129 58.072 59.7244 58.3753 60.1288 58.5973C60.5364 58.8161 61.0237 58.9255 61.5904 58.9255C62.1572 58.9255 62.6444 58.8161 63.0521 58.5973C63.4597 58.3753 63.7713 58.072 63.9867 57.6875C64.2055 57.2998 64.3149 56.8573 64.3149 56.3601V49.7181Z" fill="#A1A1A1"/>
<path d="M18.0537 81V80.1051L21.4145 76.4261C21.8089 75.9953 22.1337 75.6207 22.3889 75.3026C22.6441 74.9811 22.833 74.6795 22.9557 74.3977C23.0816 74.1127 23.1446 73.8144 23.1446 73.5028C23.1446 73.1449 23.0584 72.835 22.8861 72.5732C22.717 72.3113 22.485 72.1091 22.19 71.9666C21.8951 71.8241 21.5636 71.7528 21.1957 71.7528C20.8046 71.7528 20.4632 71.834 20.1716 71.9964C19.8832 72.1555 19.6595 72.3793 19.5004 72.6676C19.3446 72.956 19.2667 73.294 19.2667 73.6818H18.0934C18.0934 73.0852 18.231 72.5616 18.5061 72.1108C18.7812 71.66 19.1557 71.3087 19.6297 71.0568C20.1069 70.8049 20.6422 70.679 21.2355 70.679C21.8321 70.679 22.3607 70.8049 22.8214 71.0568C23.2821 71.3087 23.6434 71.6484 23.9052 72.076C24.1671 72.5036 24.298 72.9792 24.298 73.5028C24.298 73.8774 24.23 74.2436 24.0942 74.6016C23.9616 74.9562 23.7296 75.3523 23.3981 75.7898C23.07 76.224 22.6143 76.7543 22.0309 77.3807L19.744 79.8267V79.9062H24.477V81H18.0537ZM37.6069 74C37.4976 73.6652 37.3534 73.3653 37.1744 73.1001C36.9987 72.8317 36.7883 72.603 36.543 72.4141C36.3011 72.2251 36.026 72.081 35.7177 71.9815C35.4095 71.8821 35.0714 71.8324 34.7035 71.8324C34.1003 71.8324 33.5518 71.9882 33.0579 72.2997C32.5641 72.6113 32.1713 73.0703 31.8797 73.6768C31.588 74.2834 31.4422 75.0275 31.4422 75.9091C31.4422 76.7907 31.5897 77.5348 31.8846 78.1413C32.1796 78.7479 32.579 79.2069 33.0828 79.5185C33.5866 79.83 34.1533 79.9858 34.7831 79.9858C35.3664 79.9858 35.8801 79.8615 36.3243 79.6129C36.7717 79.361 37.1197 79.0064 37.3683 78.549C37.6202 78.0883 37.7461 77.5464 37.7461 76.9233L38.124 77.0028H35.0615V75.9091H38.9393V77.0028C38.9393 77.8414 38.7603 78.5705 38.4024 79.1903C38.0478 79.8101 37.5572 80.2907 36.9308 80.6321C36.3077 80.9702 35.5918 81.1392 34.7831 81.1392C33.8816 81.1392 33.0894 80.9271 32.4067 80.5028C31.7272 80.0786 31.1969 79.4754 30.8157 78.6932C30.4379 77.911 30.249 76.983 30.249 75.9091C30.249 75.1037 30.3567 74.3795 30.5721 73.7365C30.7909 73.0902 31.0991 72.54 31.4969 72.0859C31.8946 71.6319 32.3652 71.2839 32.9088 71.0419C33.4523 70.8 34.0506 70.679 34.7035 70.679C35.2405 70.679 35.7409 70.7602 36.205 70.9226C36.6723 71.0817 37.0882 71.3087 37.4528 71.6037C37.8207 71.8954 38.1273 72.245 38.3726 72.6527C38.6178 73.0571 38.7869 73.5062 38.8797 74H37.6069ZM41.051 81V70.8182H44.6107C45.3199 70.8182 45.9049 70.9408 46.3656 71.1861C46.8263 71.428 47.1694 71.7545 47.3948 72.1655C47.6201 72.5732 47.7328 73.0256 47.7328 73.5227C47.7328 73.9602 47.6549 74.3215 47.4992 74.6065C47.3467 74.8916 47.1445 75.117 46.8926 75.2827C46.644 75.4484 46.3739 75.571 46.0823 75.6506V75.75C46.3938 75.7699 46.707 75.8793 47.0219 76.0781C47.3368 76.277 47.6003 76.562 47.8124 76.9332C48.0245 77.3045 48.1306 77.7585 48.1306 78.2955C48.1306 78.8059 48.0146 79.2649 47.7825 79.6726C47.5505 80.0803 47.1843 80.4034 46.6838 80.642C46.1833 80.8807 45.5321 81 44.73 81H41.051ZM42.284 79.9062H44.73C45.5354 79.9062 46.1071 79.7505 46.4452 79.4389C46.7866 79.1241 46.9573 78.7429 46.9573 78.2955C46.9573 77.9508 46.8694 77.6326 46.6938 77.3409C46.5181 77.0459 46.2679 76.8106 45.9431 76.6349C45.6182 76.456 45.2338 76.3665 44.7896 76.3665H42.284V79.9062ZM42.284 75.2926H44.5709C44.9421 75.2926 45.2769 75.2197 45.5752 75.0739C45.8768 74.928 46.1154 74.7225 46.2911 74.4574C46.47 74.1922 46.5595 73.8807 46.5595 73.5227C46.5595 73.0753 46.4038 72.6958 46.0922 72.3842C45.7806 72.0694 45.2868 71.9119 44.6107 71.9119H42.284V75.2926ZM54.094 81V70.8182H57.5343C58.3298 70.8182 58.9827 70.9541 59.4931 71.2259C60.0035 71.4943 60.3814 71.8639 60.6266 72.3345C60.8719 72.8052 60.9945 73.3404 60.9945 73.9403C60.9945 74.5402 60.8719 75.0722 60.6266 75.5362C60.3814 76.0002 60.0052 76.3648 59.4981 76.63C58.991 76.8918 58.343 77.0227 57.5542 77.0227H54.7701V75.9091H57.5144C58.058 75.9091 58.4955 75.8295 58.8269 75.6705C59.1617 75.5114 59.4036 75.286 59.5528 74.9943C59.7052 74.6993 59.7815 74.348 59.7815 73.9403C59.7815 73.5327 59.7052 73.1764 59.5528 72.8714C59.4003 72.5665 59.1567 72.3312 58.822 72.1655C58.4872 71.9964 58.0447 71.9119 57.4945 71.9119H55.3269V81H54.094ZM58.8866 76.4261L61.3923 81H59.9605L57.4945 76.4261H58.8866ZM63.4667 81H62.1741L65.9127 70.8182H67.1854L70.9241 81H69.6314L66.5888 72.429H66.5093L63.4667 81ZM63.9439 77.0227H69.1542V78.1165H63.9439V77.0227ZM72.51 70.8182H73.9816L77.4418 79.2699H77.5611L81.0214 70.8182H82.4929V81H81.3395V73.2642H81.2401L78.0583 81H76.9447L73.7628 73.2642H73.6634V81H72.51V70.8182Z" fill="#A1A1A1"/>
<path d="M21.5061 107.273V94.5455H22.3214V107.273H21.5061ZM23.8576 98.6172C23.8112 98.183 23.6157 97.8449 23.271 97.603C22.9296 97.361 22.4855 97.2401 21.9386 97.2401C21.5541 97.2401 21.2244 97.2981 20.9493 97.4141C20.6742 97.5301 20.4637 97.6875 20.3179 97.8864C20.172 98.0852 20.0975 98.3123 20.0942 98.5675C20.0942 98.7796 20.1422 98.9635 20.2383 99.1193C20.3378 99.2751 20.472 99.4077 20.641 99.517C20.8101 99.6231 20.9973 99.7126 21.2028 99.7855C21.4083 99.8584 21.6155 99.9197 21.8243 99.9695L22.7788 100.208C23.1633 100.298 23.5328 100.419 23.8875 100.571C24.2454 100.723 24.5653 100.916 24.847 101.148C25.132 101.38 25.3574 101.66 25.5231 101.988C25.6889 102.316 25.7717 102.701 25.7717 103.141C25.7717 103.738 25.6192 104.263 25.3143 104.717C25.0094 105.168 24.5686 105.521 23.9919 105.776C23.4185 106.028 22.7241 106.154 21.9088 106.154C21.1166 106.154 20.4289 106.031 19.8456 105.786C19.2656 105.541 18.8115 105.183 18.4834 104.712C18.1585 104.242 17.9829 103.668 17.9564 102.992H19.771C19.7975 103.347 19.9069 103.642 20.0991 103.877C20.2914 104.112 20.5416 104.288 20.8498 104.404C21.1614 104.52 21.5094 104.578 21.8939 104.578C22.2949 104.578 22.6462 104.518 22.9478 104.399C23.2528 104.277 23.4914 104.107 23.6638 103.892C23.8361 103.673 23.9239 103.418 23.9273 103.126C23.9239 102.861 23.846 102.643 23.6936 102.47C23.5411 102.295 23.3273 102.149 23.0523 102.033C22.7805 101.913 22.4623 101.807 22.0977 101.714L20.9393 101.416C20.1008 101.201 19.4379 100.874 18.9507 100.437C18.4668 99.996 18.2248 99.411 18.2248 98.6818C18.2248 98.0819 18.3872 97.5566 18.7121 97.1058C19.0402 96.6551 19.486 96.3054 20.0494 96.0568C20.6129 95.8049 21.2509 95.679 21.9635 95.679C22.686 95.679 23.3191 95.8049 23.8626 96.0568C24.4095 96.3054 24.8387 96.6518 25.1503 97.0959C25.4618 97.5367 25.6226 98.0438 25.6325 98.6172H23.8576ZM31.0801 106.194C30.2615 106.194 29.5588 105.987 28.9722 105.572C28.3888 105.155 27.9397 104.553 27.6249 103.768C27.3133 102.979 27.1575 102.029 27.1575 100.919C27.1609 99.8087 27.3183 98.8641 27.6298 98.0852C27.9447 97.303 28.3938 96.7064 28.9771 96.2955C29.5638 95.8845 30.2648 95.679 31.0801 95.679C31.8955 95.679 32.5965 95.8845 33.1831 96.2955C33.7698 96.7064 34.2189 97.303 34.5304 98.0852C34.8453 98.8674 35.0027 99.812 35.0027 100.919C35.0027 102.033 34.8453 102.984 34.5304 103.773C34.2189 104.558 33.7698 105.158 33.1831 105.572C32.5998 105.987 31.8988 106.194 31.0801 106.194ZM31.0801 104.638C31.7165 104.638 32.2186 104.325 32.5865 103.698C32.9577 103.068 33.1433 102.142 33.1433 100.919C33.1433 100.11 33.0588 99.4309 32.8898 98.8807C32.7208 98.3305 32.4821 97.9162 32.1739 97.6378C31.8656 97.3561 31.5011 97.2152 31.0801 97.2152C30.4471 97.2152 29.9466 97.5301 29.5787 98.1598C29.2108 98.7862 29.0252 99.706 29.0219 100.919C29.0186 101.731 29.0998 102.414 29.2655 102.967C29.4345 103.521 29.6732 103.938 29.9814 104.22C30.2896 104.499 30.6559 104.638 31.0801 104.638ZM37.3866 106.109C37.085 106.109 36.8265 106.003 36.611 105.791C36.3956 105.579 36.2895 105.321 36.2928 105.016C36.2895 104.717 36.3956 104.462 36.611 104.25C36.8265 104.038 37.085 103.932 37.3866 103.932C37.6783 103.932 37.9318 104.038 38.1472 104.25C38.366 104.462 38.477 104.717 38.4803 105.016C38.477 105.218 38.424 105.402 38.3213 105.567C38.2218 105.733 38.0892 105.866 37.9235 105.965C37.7611 106.061 37.5821 106.109 37.3866 106.109ZM43.6856 106.194C42.8669 106.194 42.1643 105.987 41.5776 105.572C40.9943 105.155 40.5452 104.553 40.2303 103.768C39.9188 102.979 39.763 102.029 39.763 100.919C39.7663 99.8087 39.9238 98.8641 40.2353 98.0852C40.5502 97.303 40.9993 96.7064 41.5826 96.2955C42.1693 95.8845 42.8703 95.679 43.6856 95.679C44.5009 95.679 45.2019 95.8845 45.7886 96.2955C46.3752 96.7064 46.8243 97.303 47.1359 98.0852C47.4507 98.8674 47.6082 99.812 47.6082 100.919C47.6082 102.033 47.4507 102.984 47.1359 103.773C46.8243 104.558 46.3752 105.158 45.7886 105.572C45.2052 105.987 44.5043 106.194 43.6856 106.194ZM43.6856 104.638C44.322 104.638 44.8241 104.325 45.192 103.698C45.5632 103.068 45.7488 102.142 45.7488 100.919C45.7488 100.11 45.6643 99.4309 45.4953 98.8807C45.3262 98.3305 45.0876 97.9162 44.7793 97.6378C44.4711 97.3561 44.1065 97.2152 43.6856 97.2152C43.0525 97.2152 42.5521 97.5301 42.1842 98.1598C41.8163 98.7862 41.6307 99.706 41.6274 100.919C41.624 101.731 41.7052 102.414 41.871 102.967C42.04 103.521 42.2786 103.938 42.5869 104.22C42.8951 104.499 43.2614 104.638 43.6856 104.638ZM49.26 106V104.668L52.7948 101.202C53.1329 100.861 53.4146 100.558 53.64 100.293C53.8653 100.027 54.0344 99.7706 54.1471 99.522C54.2598 99.2734 54.3161 99.0083 54.3161 98.7266C54.3161 98.4051 54.2432 98.13 54.0974 97.9013C53.9515 97.6693 53.751 97.4903 53.4958 97.3643C53.2406 97.2384 52.9506 97.1754 52.6258 97.1754C52.291 97.1754 51.9977 97.245 51.7458 97.3842C51.4939 97.5201 51.2983 97.714 51.1591 97.9659C51.0233 98.2178 50.9553 98.5178 50.9553 98.8658H49.2003C49.2003 98.2195 49.3478 97.6577 49.6428 97.1804C49.9378 96.7031 50.3438 96.3336 50.8608 96.0717C51.3812 95.8099 51.9778 95.679 52.6506 95.679C53.3334 95.679 53.9333 95.8066 54.4503 96.0618C54.9674 96.317 55.3684 96.6667 55.6535 97.1108C55.9418 97.5549 56.086 98.062 56.086 98.6321C56.086 99.0133 56.0131 99.3878 55.8672 99.7557C55.7214 100.124 55.4645 100.531 55.0966 100.979C54.7321 101.426 54.22 101.968 53.5604 102.604L51.8054 104.389V104.459H56.2401V106H49.26ZM58.3282 106L62.6584 97.429V97.3594H57.6322V95.8182H64.5675V97.3942L60.2422 106H58.3282ZM66.8184 106L71.1487 97.429V97.3594H66.1224V95.8182H73.0578V97.3942L68.7325 106H66.8184ZM75.3086 106L79.6389 97.429V97.3594H74.6126V95.8182H81.548V97.3942L77.2227 106H75.3086ZM83.7989 106L88.1291 97.429V97.3594H83.1029V95.8182H90.0382V97.3942L85.7129 106H83.7989Z" fill="#27B648"/>
<path d="M98.8839 95.3409L95.6027 107.531H94.5288L97.8101 95.3409H98.8839ZM105.386 101.406V106H104.212V95.8182H105.386V99.5568H105.485C105.664 99.1624 105.932 98.8492 106.29 98.6172C106.652 98.3819 107.132 98.2642 107.732 98.2642C108.252 98.2642 108.708 98.3686 109.099 98.5774C109.49 98.7829 109.794 99.0994 110.009 99.527C110.228 99.9512 110.337 100.491 110.337 101.148V106H109.164V101.227C109.164 100.621 109.007 100.152 108.692 99.8203C108.38 99.4856 107.948 99.3182 107.394 99.3182C107.01 99.3182 106.665 99.3994 106.36 99.5618C106.058 99.7242 105.82 99.9612 105.644 100.273C105.472 100.584 105.386 100.962 105.386 101.406ZM115.586 106.159C114.897 106.159 114.292 105.995 113.771 105.667C113.254 105.339 112.85 104.88 112.558 104.29C112.27 103.7 112.126 103.01 112.126 102.222C112.126 101.426 112.27 100.732 112.558 100.138C112.85 99.5452 113.254 99.0845 113.771 98.7564C114.292 98.4283 114.897 98.2642 115.586 98.2642C116.275 98.2642 116.879 98.4283 117.396 98.7564C117.916 99.0845 118.32 99.5452 118.609 100.138C118.9 100.732 119.046 101.426 119.046 102.222C119.046 103.01 118.9 103.7 118.609 104.29C118.32 104.88 117.916 105.339 117.396 105.667C116.879 105.995 116.275 106.159 115.586 106.159ZM115.586 105.105C116.11 105.105 116.541 104.971 116.879 104.702C117.217 104.434 117.467 104.081 117.629 103.643C117.792 103.206 117.873 102.732 117.873 102.222C117.873 101.711 117.792 101.236 117.629 100.795C117.467 100.354 117.217 99.9976 116.879 99.7259C116.541 99.4541 116.11 99.3182 115.586 99.3182C115.062 99.3182 114.631 99.4541 114.293 99.7259C113.955 99.9976 113.705 100.354 113.543 100.795C113.38 101.236 113.299 101.711 113.299 102.222C113.299 102.732 113.38 103.206 113.543 103.643C113.705 104.081 113.955 104.434 114.293 104.702C114.631 104.971 115.062 105.105 115.586 105.105ZM125.65 102.878V98.3636H126.823V106H125.65V104.707H125.57C125.391 105.095 125.113 105.425 124.735 105.697C124.357 105.965 123.88 106.099 123.303 106.099C122.826 106.099 122.402 105.995 122.03 105.786C121.659 105.574 121.368 105.256 121.155 104.832C120.943 104.404 120.837 103.866 120.837 103.216V98.3636H122.011V103.136C122.011 103.693 122.166 104.137 122.478 104.469C122.793 104.8 123.194 104.966 123.681 104.966C123.973 104.966 124.269 104.891 124.571 104.742C124.876 104.593 125.131 104.364 125.337 104.056C125.545 103.748 125.65 103.355 125.65 102.878ZM128.972 106V98.3636H130.106V99.517H130.185C130.324 99.1392 130.576 98.8326 130.941 98.5973C131.305 98.362 131.716 98.2443 132.174 98.2443C132.26 98.2443 132.368 98.246 132.497 98.2493C132.626 98.2526 132.724 98.2576 132.79 98.2642V99.4574C132.75 99.4474 132.659 99.4325 132.517 99.4126C132.378 99.3894 132.23 99.3778 132.074 99.3778C131.703 99.3778 131.372 99.4557 131.08 99.6115C130.792 99.764 130.563 99.9761 130.394 100.248C130.228 100.516 130.145 100.823 130.145 101.168V106H128.972ZM139.59 100.074L138.536 100.372C138.47 100.196 138.372 100.026 138.243 99.8601C138.117 99.6911 137.944 99.5518 137.726 99.4425C137.507 99.3331 137.227 99.2784 136.886 99.2784C136.418 99.2784 136.029 99.3861 135.717 99.6016C135.409 99.8137 135.255 100.084 135.255 100.412C135.255 100.704 135.361 100.934 135.573 101.103C135.785 101.272 136.117 101.413 136.567 101.526L137.701 101.804C138.384 101.97 138.892 102.223 139.227 102.565C139.562 102.903 139.729 103.339 139.729 103.872C139.729 104.31 139.603 104.701 139.351 105.045C139.103 105.39 138.755 105.662 138.307 105.861C137.86 106.06 137.34 106.159 136.746 106.159C135.967 106.159 135.323 105.99 134.812 105.652C134.302 105.314 133.979 104.82 133.843 104.17L134.957 103.892C135.063 104.303 135.263 104.611 135.558 104.817C135.856 105.022 136.246 105.125 136.726 105.125C137.273 105.125 137.707 105.009 138.029 104.777C138.354 104.542 138.516 104.26 138.516 103.932C138.516 103.667 138.423 103.445 138.238 103.266C138.052 103.083 137.767 102.947 137.383 102.858L136.11 102.56C135.411 102.394 134.897 102.137 134.569 101.789C134.244 101.438 134.082 100.999 134.082 100.472C134.082 100.041 134.203 99.6596 134.444 99.3281C134.69 98.9967 135.023 98.7365 135.444 98.5476C135.868 98.3587 136.349 98.2642 136.886 98.2642C137.641 98.2642 138.234 98.4299 138.665 98.7614C139.1 99.0928 139.408 99.5303 139.59 100.074Z" fill="#FAFAFA"/>
</svg>
